<svg viewBox="0 0 138.55 67.76" xmlns="http://www.w3.org/2000/svg" xmlns:xlink="http://www.w3.org/1999/xlink"><clipPath id="a"><path d="M-575.28-1069.85H705.55v703H-575.28z"/></clipPath><g clip-path="url(#a)"><image height="2560" transform="matrix(.68 0 0 .68 -575.28 -1647.82)" width="2480" xlink:href="../../../Clientes/Guillo Milia/Sylvestra/LAVIENROSEPIC1low.jpg"/></g><g fill="#231f20"><path d="M20.13 31.42h-2.77v-4.94c0-1.37-.53-2.06-1.6-2.06s-1.69.67-1.69 2V30a6.48 6.48 0 00.85 3.38A21.71 21.71 0 0016.86 36a16.34 16.34 0 012.46 3.64 10 10 0 01.81 4V49a4.48 4.48 0 01-1.27 3.32 4.14 4.14 0 01-3 1.21 4.83 4.83 0 01-3.11-1 3.55 3.55 0 01-1.41-3v-7.81h2.77v7a2.15 2.15 0 00.58 1.6 1.55 1.55 0 001.13.48 1.41 1.41 0 001-.41 2.19 2.19 0 00.56-1.59v-5.25a6.72 6.72 0 00-.91-3.5 18.72 18.72 0 00-2-2.62A13.68 13.68 0 0112 34.11a8 8 0 01-.73-3.42v-4.21A4.78 4.78 0 0112.69 23a4.26 4.26 0 013.13-1.31 4.05 4.05 0 013 1.23 4.67 4.67 0 011.33 3.46zm-6.31 22.41l2.83 2.83a4.61 4.61 0 01-1.85-1.14L12 52.68a5 5 0 001.82 1.15zm2.9-25.62l-2-2a1.51 1.51 0 01.2-.68l1.8 1.79zm-2-.27v-.87l2 2v.87zm2 3.73l-2-2v-.87l2 2zm0 12.11l-2-2v-.71l2 2v.48zm0 1.73l-2-2v-.87l2 2zm0 .86v.87l-2-2v-.85zm0 2.58l-2-2v-.89l2 2V49zm-2-.27v-.85l1.81 1.81a1 1 0 01-.44.41zm3-14.24l-2.82-2.85a8.81 8.81 0 01-.16-1l2.83 2.85a5.29 5.29 0 00.19 1zM15.9 54.18L18.74 57a5.59 5.59 0 01-.94 0L15 54.12a8 8 0 00.9.06zm-.52-29a.87.87 0 01.38-.08c.64 0 1 .48 1 1.43zM18 36.4l-.65-.81A24.54 24.54 0 0115.47 33l2.85 2.85a27.18 27.18 0 001.88 2.57c.29.37.5.64.62.81zm-1.3 17.72a5.2 5.2 0 00.68-.17l2.86 2.84a6 6 0 01-.71.16zm.41-22H18l2.85 2.85H20zm3.73 24.49L18 53.7c.16-.08.35-.18.56-.31l2.84 2.86zm.84-21.64l-2.84-2.85h.88l2.83 2.85zM19.05 53l.44-.44 2.85 2.83c-.16.18-.31.33-.43.44zm4.09-9.76l-2.84-2.79a13.73 13.73 0 00-.56-1.45l2.85 2.85a8.69 8.69 0 01.55 1.43zM22.72 55l-2.86-2.85a5.35 5.35 0 00.34-.54l2.8 2.8a4.53 4.53 0 01-.28.59zm-2-29.7a5.15 5.15 0 00-.4-1.3l2.86 2.86a5.94 5.94 0 01.35 1.23zm2.81 27.87c-.06.24-.12.46-.19.67L20.45 51a3.88 3.88 0 00.18-.69zm-2.96-21.1h.21v-.67l2.83 2.86v.66h-.2zm.15 10.52c0-.31-.08-.66-.15-1l2.86 2.86a8 8 0 01.14 1zm2.87 9.8l-2.83-2.86v-.85l2.83 2.85v.34a4.43 4.43 0 010 .52zm0-22.45l-2.83-2.85v-.88l2.83 2.86zm-2.83-1.12v-.88l2.83 2.86v.85zm2.83 4.58l-2.83-2.85v-.88l2.83 2.84zm0 13.82l-2.83-2.83v-.88l2.83 2.84zm-2.81-1.12v-.86l2.83 2.84V49zm2.83 4.58l-2.83-2.83V47l2.83 2.83zm3.58-10.8l-3.38-18h2.69l2 12.11h.21l2-12.11h2.73l-3.44 18v13.41h-2.81zm-.17 14h.88l2.85 2.84h-.87zm.31-30.8l-.16-1.07 2.43 2.49-.12.75zm1.9 3.6l-1.56-1.56-.17-1L29.35 26zm-1.23.5l-.17-1 1.27 1.27-.12.75zm.73 2.48l-.4-.39-.16-1.07.68.71zm-.11.73l-.06.3-.06-.42zm3.86 26.33h-.87l-2.86-2.84h.89zM30 21.77l-.08.52zm3.3 35l-2.8-2.84h.08v-.77L33.44 56v.78zM30.58 40.2V40l.11-.52 2.85 2.85-.1.5v.27zm2.86 4.58l-2.86-2.85v-.88l2.86 2.86zm-2.86-1.12v-.88l2.86 2.86v.87zm0 1.73v-.88l2.86 2.86v.87zm0 .85l2.86 2.86v.9l-2.86-2.85zm0 2.6V48l2.86 2.84v.89zm2.86 4.57l-2.86-2.83v-.88l2.86 2.86zm-2.86-1.1v-.88l2.86 2.84v.87zm3.09-10.76l-2.84-2.83L31 38l2.83 2.85zm-2.56-4.29l.14-.73 2.84 2.83-.13.75zm3.12 1.39l-2.85-2.83.14-.75 2.86 2.85zm-2.56-4.29l.14-.73 2.84 2.84-.13.73zm3.12 1.4l-2.85-2.84.14-.75L34.94 35zm-2.56-4.3l.13-.72 2.85 2.83-.14.73zm3.13 1.4L32.5 30l.15-.73 2.83 2.85zm-2.59-4.29l.15-.75 2.85 2.85-.14.73zM35.9 30l-2.84-2.85.15-.73L36 29.21zm-2.56-4.29l.14-.75 2.84 2.86-.13.73zm3.12 1.4l-2.85-2.86.14-.73 2.86 2.84zm-2.56-4.36L34 22l2.84 2.86-.13.73zm3.1 1.42l-2.85-2.86L37 24.13zm.68-2.25h2.85v28.8h3.8v2.57h-6.65zm2.85 34.85l-2.85-2.84h.87l2.86 2.84zm-.25-2.84l2.86 2.84h-.9l-2.83-2.84zm.86 0H42l2.84 2.84H44zm0-31.07V22L44 24.84v.85zM44 27.42l-2.83-2.83v-.88L44 26.54zm-2.83-1.1v-.88L44 28.28v.87zM44 30.88l-2.83-2.83v-.88L44 30zm-2.83-1.1v-.88L44 31.73v.88zM44 34.34l-2.82-2.84v-.87L44 33.46zm-2.83-1.13v-.85L44 35.2v.87zM44 37.8L41.18 35v-.9L44 36.93zm-2.83-1.13v-.85L44 38.65v.88zM44 41.26l-2.83-2.85v-.88L44 40.38zm-2.83-1.13v-.87L44 42.11V43zM44 44.72l-2.83-2.86V41L44 43.84zm-2.83-1.13v-.87L44 45.57v.88zm0 1.73v-.87L44 47.3v.88zm0 .86L44 49v.88l-2.83-2.86zm0 2.6v-.87l2.17 2.17h-.88zm0 .86l.44.44h-.44zm5.4 7.13h-.87l-2.83-2.84h.87zm.85 0l-2.82-2.84h.4v-.48l2.86 2.84v.48zm.4-3.07L45 50.85v-.77l2.86 2.85zM45 52.58v-.88l2.86 2.86v.87zm4.92-30.66l1.79 25.43h.44l1.79-25.43h2.78l-2.23 31.37h-5.13l-2.21-31.37zm-1 32l2.85 2.84h-.14l-2.84-2.84zm.85 0h.88l2.86 2.84h-.88zm3.36-29.49l-2.56-2.53v-.63l2.62 2.63zm-2.42-.69l-.06-.94 2.44 2.42-.06.84zm2.19 3.92l-2.06-2.06-.07-.94 2.19 2.19zm-1.9-.17l-.06-1 1.94 1.94-.06.84zm1.69 3.41l-1.56-1.56-.06-1 1.68 1.71zm-1.44.29l-.06-.94 1.46 1.46-.06.8zm1.23 2.94l-1.08-1.08-.08-.94 1.2 1.21zm-.95.77l-.11-.9 1 1-.06.84zm3.73 21.87h-.9l-2.83-2.84h.87zm-3-19.41l-.6-.58-.06-1 .71.73zm-.48 1.27l-.06-.93.48.45-.06.84zm.26 2l-.11-.1-.06-.94.21.23zm4.08 16.18l-2.86-2.84h.88l2.83 2.84zm-1.13-2.84h.15v-.69L58 56.1l-.07.67h-.14zm3.11 1.36l-2.86-2.84.07-.81 2.83 2.83zm-2.8-4.48l.06-.84 2.86 2.86-.07.81zm.19-2.44l2.83 2.85v.82l-2.86-2.86zm.06-.79v-.82l2.86 2.84-.07.81zm.1-1.63l.06-.81L58.55 48v.81zm3 1.23l-2.83-2.83v-.82l2.85 2.84zm-2.73-4.44L56 42l2.83 2.85v.82zm3 1.21L56 41.16l.06-.82 2.85 2.84zm-2.73-4.46l.06-.81L59 41.57l-.06.81zm3 1.25l-2.85-2.86.06-.81L59.13 40zm-2.85-4.48l.06-.81 2.84 2.85-.07.82zm3 1.25l-2.85-2.86.06-.81 2.85 2.83zm-2.73-4.48l.06-.82 2.84 2.86-.07.81zm3 1.25l-2.86-2.86.07-.81 2.85 2.84zm-2.81-4.46v-.83l2.86 2.85-.07.81zm3 1.21l-2.9-2.84.06-.81 2.84 2.83zM57 26.63v-.83l2.86 2.85-.07.81zm3 1.23L57.13 25l.06-.81L60 27zm-2.73-4.48v-.79l2.85 2.83-.06.81zm2.94 1.25l-2.84-2.86v-.5l2.84 2.86zm1.06 29.3h.87L65 56.77h-.88zm.1-32h6.44v2.56h-3.67v11.73h3.67v2.56h-3.67v11.94h3.67v2.57h-6.44zm5.36 34.85h-.88L63 53.93h.87zm.85 0l-2.85-2.84h.87l2.84 2.84zm-2.79-30.44v-.88l2.85 2.84v.87zm2.85 4.56l-2.85-2.83v-.88L67.64 30zm-2.85-1.1v-.88l2.85 2.84v.87zm2.85 4.56l-2.85-2.83v-.88l2.85 2.84zm-2.85-1.12v-.86l2.85 2.83v.36h-.52zm.6 2.33l-.6-.58v-.9l1.48 1.48zm-.6 4.34v-.51h.4L68 42.26h-.38v.48zm2.85 4.56l-2.85-2.85v-.86l2.85 2.83zm-2.85-1.13v-.85l2.85 2.83v.88zm0 1.75v-.89l2.85 2.85v.88zm0 .84l2.85 2.85v.88l-2.85-2.86zm0 2.61v-.88l2.42 2.42h-.88zm0 .85l.69.69h-.69zM68.15 28l-2.84-2.85h.88L69 28zm.72 14.3L66 39.4h.87l2.84 2.86zm-2.41 11.63h.87l2.84 2.84h-.88zM67 25.11h.88L70.75 28h-.87zm.75 14.29h.69v-.16l2.85 2.83v.19h-.7zM71 56.77l-2.83-2.84h.27v-.6l2.85 2.85v.59zm.29-32.56l-2.85-2.85v-.09l2.85 2.86zm-2.85-1.12v-.88l2.85 2.86v.87zm2.85 4.58l-2.85-2.86v-.87l2.85 2.84zm-2.85 9v-.87l2.85 2.85v.86zm2.85 4.59l-2.85-2.86v-.87l2.85 2.83zm0 12.36l-2.85-2.86v-.66l2.85 2.85zm-2.85-1.13v-.89l2.85 2.85v.88zm12.64-21.07H78.3v-4.94c0-1.37-.53-2.06-1.6-2.06s-1.69.67-1.69 2V30a6.39 6.39 0 00.86 3.38A20.43 20.43 0 0077.8 36a15.65 15.65 0 012.46 3.64 10 10 0 01.82 4V49a4.48 4.48 0 01-1.28 3.32 4.14 4.14 0 01-3 1.21 4.81 4.81 0 01-3.1-1 3.54 3.54 0 01-1.42-3v-7.81H75v7a2.12 2.12 0 00.59 1.6 1.51 1.51 0 001.12.48 1.41 1.41 0 001-.41 2.14 2.14 0 00.56-1.59v-5.25a6.72 6.72 0 00-.91-3.5 18 18 0 00-2-2.62A14 14 0 0173 34.11a8 8 0 01-.73-3.42v-4.21A4.78 4.78 0 0173.63 23a4.26 4.26 0 013.13-1.31 4.05 4.05 0 013 1.23 4.68 4.68 0 011.34 3.46zm-6.32 22.41l2.84 2.83a4.72 4.72 0 01-1.86-1.14l-2.84-2.84a5.18 5.18 0 001.86 1.15zm2.9-25.62l-2-2a1.4 1.4 0 01.21-.68l1.79 1.79zm-2-.27v-.87l2 2v.87zm2 3.73l-2-2v-.87l2 2zm0 12.11l-2-2v-.71l2 2v.48zm0 1.73l-2-2v-.87l2 2zm0 .86v.87l-2-2v-.85zm0 2.58l-2-2v-.89l2 2V49zm-2-.27v-.85l1.81 1.81a1 1 0 01-.44.41zm3-14.24l-2.86-2.85a8.81 8.81 0 01-.16-1l2.83 2.85a5.29 5.29 0 00.23 1zm-1.81 19.74L79.68 57a5.59 5.59 0 01-.94-.09l-2.83-2.83a7.78 7.78 0 00.94.1zm-.53-29a.87.87 0 01.38-.08c.64 0 1 .48 1 1.43zm2.61 11.22l-.65-.81A24.54 24.54 0 0176.41 33l2.85 2.85a27.18 27.18 0 001.88 2.57c.29.37.5.64.62.81zm-1.29 17.72a5.2 5.2 0 00.68-.17l2.86 2.84a6 6 0 01-.71.16zm.41-22h.88l2.85 2.85h-.89zm3.73 24.49L79 53.7a5.58 5.58 0 00.56-.31l2.84 2.86zm.84-21.64l-2.84-2.85h.88l2.83 2.85zM80 53a6.08 6.08 0 00.44-.44l2.86 2.83c-.17.18-.32.33-.44.44zm4.09-9.76l-2.84-2.83a13.73 13.73 0 00-.57-1.41l2.86 2.85a7.77 7.77 0 01.54 1.43zM83.66 55l-2.86-2.88a5.35 5.35 0 00.34-.54L84 54.41a3.51 3.51 0 01-.34.59zm-2-29.7a5.15 5.15 0 00-.4-1.3l2.86 2.86a5.38 5.38 0 01.35 1.23zm2.81 27.87c-.06.24-.12.46-.19.67L81.39 51a5 5 0 00.19-.69zm-2.96-21.1h.21v-.67l2.84 2.86v.66h-.21zm.15 10.52c0-.31-.08-.66-.15-1l2.86 2.86a8 8 0 01.14 1zm2.88 9.8l-2.84-2.86v-.85l2.84 2.85v.34c.02.18.01.35 0 .52zm0-22.45l-2.84-2.85v-.88l2.84 2.86zm-2.84-1.12v-.88l2.84 2.86v.85zm2.84 4.58l-2.84-2.85v-.88l2.84 2.84zm0 13.82l-2.84-2.83v-.88l2.84 2.84zm-2.82-1.12v-.86l2.84 2.84V49zm2.84 4.58l-2.84-2.83V47l2.84 2.83zm2.69-22.47h-.52l-2.85-2.83h.54zM84.52 22h9.94v2.77h-3.58v28.52h-2.77V24.73h-3.59zm2.94 5.61l-2.21-2.19h.9l1.31 1.31zM87 25.38h.46v.46zm4.61 31.39h-.87l-2.84-2.84h.88zm.85 0l-2.83-2.84h.85l2.86 2.84zm-1.12-2.84h.19v-.71l2.83 2.84v.71h-.17zm3-24.65l-2.83-2.84v-.87l2.83 2.83zm-2.83-1.11v-.87l2.83 2.83V31zm2.83 4.57l-2.81-2.84V29l2.83 2.83zm-2.83-1.11v-.87l2.83 2.83v.88zm2.83 4.57l-2.83-2.84v-.87l2.83 2.83zm-2.83-1.13v-.85l2.83 2.83v.87zm2.83 4.59l-2.83-2.84v-.9l2.83 2.86zm-2.83-1.13v-.86l2.83 2.84v.88zm2.83 4.59l-2.83-2.86v-.86l2.83 2.84zM91.53 42v-.89L94.36 44v.87zm2.83 4.56l-2.83-2.85v-.88l2.83 2.86zm-2.83-1.12v-.88l2.83 2.86v.88zm0 1.73v-.87l2.83 2.86V50zm0 .85l2.83 2.86v.87l-2.83-2.85zm0 2.61v-.88l2.83 2.86v.87zm2.83 4.56l-2.83-2.83v-.88l2.83 2.86zm-2.19-29.81h.88l2.85 2.83H95zm4.59 2.83l-2.86-2.83h.88l2.85 2.83zm-1.65-6.83v-.07L98 24.17zm0 .85L98 25.09V26l-2.84-2.85zm0 2.61V24L98 26.82v.85zm3.47-2.92h4.79q4 0 4 4.36v7.33a4.35 4.35 0 01-.71 2.77 3.81 3.81 0 01-1.89.94 3.58 3.58 0 012.12 1.48 5.23 5.23 0 01.48 2.5v8.92a4.82 4.82 0 00.82 3.07h-2.77a4.32 4.32 0 01-.82-3v-8.7a2.48 2.48 0 00-.87-2.25 5.19 5.19 0 00-2.38-.39v14.34h-2.77zm1 32l2.85 2.84h-.87l-2.86-2.83zm.85 0h.88l2.85 2.84h-.87zm.94-29.24v11.54a3.65 3.65 0 002.65-.8 3.32 3.32 0 00.6-2.18v-6.32a2.06 2.06 0 00-.79-1.9 4.06 4.06 0 00-1.9-.33zm.65 1.42v-.77h.08l1.9 1.88v.86zm2 3.69l-2-2V27l2 2zm-2-.23v-.88l2 2v.88zm2 3.69l-2-2v-.88l2 2zM102 33v-.88l1.89 1.9a2.74 2.74 0 01-.2.69zm.68 2.41l-.68-.68v-.88l1.29 1.29a1.61 1.61 0 01-.61.3zm1.32 6.5l-2-2v-.36h.56l1.38 1.45v.58zm-2-.23v-.88l2 2v.88zm0 1.73v-.88l2 2v.88zm0 .85l2 2v.88l-2-2zm0 2.61V46l2 2v.88zm2 3.69l-2-2v-.86l2 2zm-2-.25v-.88l2 2a4.61 4.61 0 00.23 1.11zm2.83 4.58L102 52v-.88l2.83 2.88zm0 .86v.87L102 53.76v-.87zm-.92-29.46l-.91-.89a1 1 0 01.91.89zm4.55 30.48l-2.86-2.84h.88l2.85 2.84zm-1-18.28a3.84 3.84 0 00-1-1.11l.43-.33 2.84 2.83a1.87 1.87 0 01-.4.32l.42.41a4 4 0 01.54.71zm2.71 1l-2.86-2.84a2.69 2.69 0 00.33-.54l2.86 2.83a4.21 4.21 0 01-.35.51zm-2.82 14.48h.88l2.77 2.8h-.85zm.61-28.8a8.3 8.3 0 00-.29-1.17l2.83 2.86a4.92 4.92 0 01.29 1.16zm-.09 10.31a7.14 7.14 0 00.13-.77l2.83 2.84a6.1 6.1 0 01-.1.77zm3 8.18l-2.87-2.9a6.89 6.89 0 00-.1-1l2.85 2.86c.04.31.08.63.1 1zm0-13.82l-2.87-2.9v-.87l2.85 2.85v.88zm0 6.9L108 33.86V33l2.83 2.85v.86zm-2.83-8v-.88l2.83 2.86v.88zm2.83 4.59L108 30.4v-.87l2.83 2.83zm-2.87-1.2v-.87l2.83 2.85V35zm0 10.38v-.88l2.83 2.84v.87zm2.83 4.56L108 44.24v-.88l2.83 2.84zM108 46v-.86l2.83 2.84v.87zm2.83 4.58L108 47.7v-.88l2.83 2.84zm0 1.73L108 49.43v-.88l2.83 2.84zm0 .86c0 .28 0 .57.05.89L108 51.18v-.9zm1.05 3.65l-2.84-2.84h.5a10.83 10.83 0 01-1.31-1.71l2.83 2.86a3.36 3.36 0 00.44.64l.9 1.05zm7.26-11.35h-3.63l-.69 7.82h-2.64L115 21.92h4.8l2.54 31.37h-2.65zm-6 8.46l2.84 2.84h-.86l-2.85-2.84zm.86 0h.87l2.84 2.84h-.88zm4.39 1.79l-.06.82-2.85-2.86.06-.81zm.07-.79l-2.84-2.83.06-.81 2.86 2.85zm-2.71-4.42l.08-.81 2.84 2.84-.07.81zm1.48-24L115.72 43h3.21l-1.29-16.51zm1.52 25.24l-2.86-2.85.09-.79 2.78 2.89zM116 47.33l.06-.82 2.73 2.73.07.81v.13zm.48-5.57l.65.65h-.69zm.9 4.36l1.27 1.27.06.94-2.19-2.21zm-.83-5.12l.07-.79 1.56 1.56v.67H118zm1.57-.17l-1.44-1.42.08-.81 1.24 1.26zm-1.3-3l.07-.81 1 1 .08.93zm1-.75l-.82-.88.06-.8.71.71zm-.73-2.44l.09-.81.42.44.08.93zm.44-1.31l-.29-.27.06-.82.15.15zm.69 12.82h.31v.33zm4.63 10.65H122l-2.85-2.84h.85zm-2.36-34.31l-.06-1 2.84 2.86.08.93zm3 4.73l-2.83-2.85-.08-1 2.85 2.85zm-2.68-1l-.07-.94 2.84 2.84.08 1zm2.89 30.56l-2.83-2.84h.85l2.86 2.84zm.11-25.83L121 28.11l-.08-1 2.8 2.89zm-2.69-1L121 29l2.86 2.85.08 1zm3 4.74l-2.86-2.86-.06-.94 2.8 2.87zm-2.69-1l-.08-1 2.85 2.83.06 1zm3 4.73l-2.85-2.86-.09-1 2.86 2.86zm-2.71-1l-.06-.94 2.83 2.83.09 1zm3 4.73l-2.85-2.84-.09-.95 2.86 2.83zm-2.71-1l-.06-1 2.84 2.86.08.94zM125 46l-2.84-2.85-.08-.94 2.92 2.84zm-2.69-1l-.09-1 2.86 2.84.08 1zm3 4.71l-2.86-2.83-.06-1 2.84 2.86zm-2.69-1l-.08-.93 2.85 2.83.06 1zm-.08 5.13h.5v-.44l2.85 2.86v.42h-.48zm.23-3.23l-.09-1 2.86 2.84.08 1zm.08.92l2.83 2.85.09.94-2.77-2.74zM27.42 15.15l-.65-.62V9.72h5.35l.62.66v1.39h-1l.32.31v1.37h-3.25v1.7zM28 11h4V9.88h-5v4.49h1v-1.7h3.25v-1.09H28zm-.36.94h3.26v.39h-3.22V14h-.39v-3.76h4.31v.39h-3.92z"/><path d="M35.34 9.72l.63.66 3.33 4.77h-1.7l-.6-.62-.26-.37h-2.58l-.71 1h-1.71l-.67-.62 3.43-4.82zm-.09.16h-.67l-3.2 4.49h1.36l.7-1h2.9l.69 1h1.36zM37.71 14h-.49l-.69-1h-3.27l-.35.5c-.15.22-.27.39-.35.49h-.51l1.24-1.72c.64-.88 1.12-1.57 1.46-2h.31zm-4.17-1.38h2.73l-1.35-1.92zm1.37-1.31l.67 1h-1.36zm5.21-1.59l.63.66 1.39 2.08L44 9.72h1.12l.62.66v4.77h-1.38l-.66-.62v-.24l-.58.86h-.84l-.65-.62-.58-.87v1.49h-1.38l-.67-.62V9.72zm.14 4.65v-2.16l1.45 2.16h.7l1.45-2.16v2.16H45V9.88h-.88l-2 3-2-3h-.88v4.49zm-.74-.37v-3.76h.33l2.21 3.28c.68-1 1.42-2.14 2.21-3.28h.34V14h-.4v-3l-2 3h-.31l-2-3v3zm7.35 1.15l-.66-.62V9.72h1.41l.62.66v4.77zm.59-.78V9.88h-1.09v4.49zm-.74-.37v-3.76h.39V14zm2.06.53V9.72h1.41l.62.66v2.73h3l.62.65v1.39h-5zm.16-.16h4.7v-1.1H50V9.88h-1.06zm.35-4.13h.38v3.38h3.62V14h-4zm6.17 4.91l-.66-.62V9.72h1.41l.62.66v4.77zm.59-.78V9.88H55v4.49zm-.73-.37v-3.76h.38V14z"/><path d="M60.93 9.72l.64.66 3.33 4.77h-1.71l-.64-.62-.27-.37h-2.53l-.7 1h-1.71l-.68-.62 3.43-4.81zm-.08.16h-.67L57 14.37h1.35l.71-1h2.89l.7 1H64zM63.3 14h-.48l-.69-1h-3.27l-.35.5c-.16.22-.27.39-.35.49h-.51l1.24-1.72 1.46-2h.31zm-4.17-1.38h2.74l-1.35-1.92zm1.37-1.31l.68 1h-1.36zm7.43 3.22V9.72h3.65a2.57 2.57 0 011.06.2 2.34 2.34 0 01.85.66 1.7 1.7 0 01.24.4 1.92 1.92 0 01.15.48 1.2 1.2 0 010 .5.88.88 0 01-.21.42.63.63 0 01.28.21 1.38 1.38 0 01.2.33 3.34 3.34 0 01.1.36 1.33 1.33 0 010 .32 1.91 1.91 0 01-.13.71 1.19 1.19 0 01-.37.48 1.51 1.51 0 01-.55.28 2.47 2.47 0 01-.69.08h-4zm.16-.16h3.82a2.23 2.23 0 00.65-.08 1.31 1.31 0 00.5-.25 1.16 1.16 0 00.34-.44 1.56 1.56 0 00.11-.64 1 1 0 00-.17-.57 1.29 1.29 0 00-.53-.39 1 1 0 00.25-.33 1 1 0 00.1-.38 1.28 1.28 0 00-.43-1.06 1.75 1.75 0 00-1.15-.35h-3.49zm.36-4.13h3.13a1.44 1.44 0 01.89.25 1 1 0 01.33.8.72.72 0 01-.21.52.69.69 0 01-.41.24 1.16 1.16 0 01.67.29.77.77 0 01.31.62 1.22 1.22 0 01-.1.49.73.73 0 01-.27.33 1.17 1.17 0 01-.39.18 2.46 2.46 0 01-.49 0h-3.46zm.38 1.69h2.74a1.39 1.39 0 00.3 0 1 1 0 00.26-.11.48.48 0 00.19-.21.55.55 0 00.08-.29.56.56 0 00-.24-.5 1 1 0 00-.58-.16h-2.75zm0 1.69h3.08a1.31 1.31 0 00.41-.06.62.62 0 00.31-.22.62.62 0 00-.09-.85.94.94 0 00-.55-.17h-3.16zM69.2 11h2.38a.68.68 0 01.32.07.23.23 0 01.14.23.21.21 0 01-.08.17.5.5 0 01-.19.1H69.2zm0 1.68H72a.53.53 0 01.28.07.24.24 0 01.13.22.25.25 0 01-.15.24.74.74 0 01-.34.07H69.2zm6.2 2.47l-.66-.62V9.72h3.63a3.48 3.48 0 01.49 0 3.26 3.26 0 01.45.14 2 2 0 01.5.32 4.73 4.73 0 01.54.55 1.3 1.3 0 01.29.49 2.15 2.15 0 01.1.68 1.54 1.54 0 01-.18.75 1.49 1.49 0 01-.53.53l.78.9.91 1h-1.84l-.65-.62-.94-1.08h-1.51v1.7zm4.6-3.86a1.31 1.31 0 00-.42-1.06 1.83 1.83 0 00-1.17-.35H74.9v4.49H76v-1.7h1.83l1.47 1.7h1.48l-1.62-1.85a1.24 1.24 0 00.84-1.23zm-1 .93a1.83 1.83 0 01-.4.13l.78.91.62.74h-.52L78 12.32h-2.36V14h-.39v-3.76h3.12a2 2 0 01.5.06 1.21 1.21 0 01.38.18.78.78 0 01.26.33 1.17 1.17 0 01.09.48.92.92 0 01-.64.93zm-3.31-.29h2.73a1.45 1.45 0 00.3 0 1.09 1.09 0 00.27-.11.64.64 0 00.2-.2.6.6 0 00.07-.3.62.62 0 00-.07-.31.48.48 0 00-.19-.21l-.26-.11a1.58 1.58 0 00-.32 0h-2.78zM76 11h2.59a.38.38 0 01.18.09.26.26 0 01.08.19.24.24 0 010 .14.27.27 0 01-.12.09l-.16.05H76zm6.24 4.15l-.65-.62V9.72h5.35l.62.66v1.39h-1l.31.31v1l.68.65v1.39zm.61-4.15h3.93V9.88h-5v4.49h5v-1.1h-3.93v-.6h3.26v-1.09h-3.26zm-.35.94h3.26v.39H82.5v1.3h3.92V14H82.1v-3.76h4.32v.39H82.5z"/><path d="M87.33 13.2l1.16-.72-.31-.31a1.11 1.11 0 01-.48-.93 1.13 1.13 0 01.09-.45 1.16 1.16 0 01.25-.36 1.8 1.8 0 01.37-.28 2.19 2.19 0 01.44-.2 3.64 3.64 0 01.47-.14 4.3 4.3 0 01.46-.07h1.28a2.47 2.47 0 01.43.06 2.93 2.93 0 01.42.11 2.2 2.2 0 01.41.18 2.53 2.53 0 01.37.26 1.93 1.93 0 01.35.35c.13.12.23.24.32.33l.18.22.1.15.06.1-.82.55.1.06a2.4 2.4 0 01.23.2 4.93 4.93 0 01.4.4 1 1 0 01.25.41 1.5 1.5 0 01.09.52.93.93 0 01-.11.44 1 1 0 01-.28.36 2.55 2.55 0 01-.4.28 4 4 0 01-.48.2l-.5.13a4.64 4.64 0 01-.48.07 3 3 0 01-.41 0h-1a3.12 3.12 0 01-1.48-.39 2.51 2.51 0 01-.41-.32 8.13 8.13 0 01-.67-.68 4.91 4.91 0 01-.4-.53zm.23.05a1.43 1.43 0 00.25.33 1.69 1.69 0 00.28.26 1.45 1.45 0 00.32.2l.34.14a1.54 1.54 0 00.37.09l.36.06h1.63l.54-.09a2.51 2.51 0 00.55-.17 2.17 2.17 0 00.48-.25 1.23 1.23 0 00.36-.36.91.91 0 00.13-.46 1.11 1.11 0 00-.33-.78 1.18 1.18 0 00-.37-.24l-.42-.17c-.13 0-.29-.07-.49-.1l-.46-.07h-.62c-.89-.08-1.33-.19-1.33-.35s.41-.26 1.23-.26a3.46 3.46 0 01.89.1 1.37 1.37 0 01.66.38l.94-.63a3.24 3.24 0 00-.36-.38 1.91 1.91 0 00-.41-.26 2.6 2.6 0 00-.44-.16 2.14 2.14 0 00-.48-.1 4.64 4.64 0 00-.48 0h-.96l-.51.09a2.78 2.78 0 00-.51.17 2.65 2.65 0 00-.44.25 1.19 1.19 0 00-.31.36 1 1 0 00-.11.46c0 .63.54 1.06 1.62 1.28.24.05.64.11 1.18.17h.58l.23.05h.2a.84.84 0 01.16.07.14.14 0 010 .09c0 .17-.54.26-1.62.26a3.78 3.78 0 01-.49 0l-.45-.09a1.52 1.52 0 01-.43-.19 1.37 1.37 0 01-.35-.33zm.91-.11l.27.21.32.14.32.08a1.63 1.63 0 00.36 0h1.41a2.44 2.44 0 00.39-.06l.34-.11a.62.62 0 00.26-.17.37.37 0 00.1-.24.38.38 0 00-.15-.29 1.31 1.31 0 00-.37-.2 3.19 3.19 0 00-.49-.12c-.17 0-.33-.06-.47-.07h-.73l-.46-.07a3.5 3.5 0 01-.49-.14 2.43 2.43 0 01-.43-.19 1.1 1.1 0 01-.32-.28.6.6 0 01-.12-.36.63.63 0 01.09-.33.79.79 0 01.23-.25 2.17 2.17 0 01.34-.19 2.91 2.91 0 01.39-.12l.42-.07h.7a3.12 3.12 0 011.94.51L92 11a1.87 1.87 0 00-.74-.3 5.34 5.34 0 00-.95-.07H90a3.47 3.47 0 00-.39 0 2.74 2.74 0 00-.39.1.79.79 0 00-.29.18.39.39 0 00-.12.28.38.38 0 00.13.3.93.93 0 00.37.2c.16 0 .34.08.54.11l.63.09.67.07a5.86 5.86 0 01.63.12 2.63 2.63 0 01.54.17 1 1 0 01.37.29.68.68 0 01.14.42.6.6 0 01-.17.41 1.22 1.22 0 01-.42.29 4.09 4.09 0 01-.56.18 5.18 5.18 0 01-.56.1h-1.49c-.16 0-.35 0-.54-.08a2 2 0 01-.55-.19 1.59 1.59 0 01-.43-.33z"/><path d="M93.83 13.2l1.17-.72-.31-.31a1.11 1.11 0 01-.48-.93 1.13 1.13 0 01.09-.45 1.36 1.36 0 01.25-.36 1.8 1.8 0 01.37-.28 2.19 2.19 0 01.44-.2 3.64 3.64 0 01.47-.14 4.3 4.3 0 01.46-.07h1.28a2.47 2.47 0 01.43.06 2.93 2.93 0 01.42.11 2.2 2.2 0 01.41.18 2.53 2.53 0 01.37.26 1.93 1.93 0 01.35.35c.13.12.23.24.32.33l.18.22.1.15.06.1-.81.55.09.06a2.4 2.4 0 01.23.2 3.71 3.71 0 01.4.4 1 1 0 01.25.41 1.5 1.5 0 01.09.52.93.93 0 01-.11.44 1.1 1.1 0 01-.27.36 2.67 2.67 0 01-.41.28 3.45 3.45 0 01-.48.2l-.5.13a4.64 4.64 0 01-.48.07 3 3 0 01-.41 0h-1a3.12 3.12 0 01-1.48-.39 3 3 0 01-.41-.32 8.13 8.13 0 01-.67-.68 4.91 4.91 0 01-.41-.53zm.23.05a1.43 1.43 0 00.25.33 1.69 1.69 0 00.28.26 1.45 1.45 0 00.32.2l.34.14a1.58 1.58 0 00.36.09l.37.06h1.63l.54-.09a3.28 3.28 0 001-.42 1.33 1.33 0 00.35-.36.91.91 0 00.13-.46 1 1 0 00-.1-.45 1.14 1.14 0 00-.23-.33A1.18 1.18 0 0099 12l-.42-.17c-.13 0-.29-.07-.49-.1l-.46-.07h-.62c-.89-.08-1.33-.19-1.33-.35s.41-.26 1.23-.26a3.46 3.46 0 01.89.1 1.37 1.37 0 01.66.38l.94-.63a4.26 4.26 0 00-.35-.38 2.26 2.26 0 00-.42-.26 2.6 2.6 0 00-.44-.16 2.14 2.14 0 00-.48-.1 4.64 4.64 0 00-.48 0h-.96l-.51.09a2.78 2.78 0 00-.51.17 2.55 2.55 0 00-.43.25 1.1 1.1 0 00-.32.36 1 1 0 00-.11.46c0 .63.54 1.06 1.62 1.28.24.05.64.11 1.19.17h.57l.23.05h.2a.84.84 0 01.16.07.14.14 0 010 .09c0 .17-.54.26-1.62.26a3.78 3.78 0 01-.49 0l-.45-.09a1.52 1.52 0 01-.43-.19 1.56 1.56 0 01-.35-.33zm.91-.11l.27.21.32.14.32.08a1.63 1.63 0 00.36 0h1.41a2.16 2.16 0 00.38-.06 2.89 2.89 0 00.35-.11.62.62 0 00.26-.17.33.33 0 00.1-.24.38.38 0 00-.15-.29 1.31 1.31 0 00-.37-.2 3.37 3.37 0 00-.48-.12c-.18 0-.34-.06-.48-.07h-.73l-.46-.07a3.5 3.5 0 01-.49-.14 2.43 2.43 0 01-.43-.19 1.1 1.1 0 01-.32-.28.6.6 0 01-.12-.36.63.63 0 01.09-.33.79.79 0 01.23-.25 2.17 2.17 0 01.34-.19 2.91 2.91 0 01.39-.12l.42-.07h.7a3.1 3.1 0 011.94.51l-.34.24a1.87 1.87 0 00-.74-.3 5.34 5.34 0 00-.95-.07h-.31a3.33 3.33 0 00-.38 0 2.58 2.58 0 00-.4.1.79.79 0 00-.29.18.39.39 0 00-.12.28.38.38 0 00.13.3 1 1 0 00.38.2 4.88 4.88 0 00.53.11l.63.09.67.07a5.86 5.86 0 01.63.12 2.45 2.45 0 01.54.17 1 1 0 01.37.29.68.68 0 01.14.42.6.6 0 01-.17.41 1.22 1.22 0 01-.42.29 4.09 4.09 0 01-.56.18 5.18 5.18 0 01-.56.1h-1.49c-.16 0-.35 0-.54-.08a2 2 0 01-.55-.19 1.76 1.76 0 01-.43-.33z"/><path d="M101 15.15l-.66-.62V9.72h1.41l.62.66v4.77zm.59-.78V9.88h-1.09v4.49zm-.74-.36v-3.77h.38V14z"/><path d="M106.48 9.72l.63.66 3.33 4.77h-1.7l-.65-.62-.26-.37h-2.53l-.7 1h-1.71l-.68-.62 3.43-4.81zm-.08.16h-.68l-3.2 4.49h1.36l.7-1h2.9l.7 1h1.35zm2.45 4.12h-.48l-.69-1h-3.27l-.36.5c-.15.22-.26.39-.34.49h-.51l1.24-1.72 1.46-2h.3zm-4.17-1.38h2.73l-1.35-1.92zm1.37-1.31l.67 1h-1.35z"/></g></svg>