<svg xmlns="http://www.w3.org/2000/svg" viewBox="0 0 428.6 255.4"><path d="M54.2 224h1.6l-3.3 11.6H16.6v-1.5c2.2 0 3.7-.7 4.6-2 .9-1.4 1.4-3.6 1.4-6.8v-37.5c0-2.9-.4-4.9-1.3-6-.9-1.1-2.4-1.7-4.7-1.7v-1.5h19v1.5c-2.1 0-3.6.6-4.5 1.9-.9 1.3-1.4 3.4-1.4 6.4v39.5c0 2 .4 3.3 1.2 4 .8.7 2.4 1.1 4.8 1.1H45c3.3 0 4.3-.6 5.6-1.7 1.3-1.1 2.5-3.5 3.6-7.3m39.3 11.6v-1.5c3 0 4.6-1.1 4.6-3.2 0-.6-.1-1.3-.4-2l-4.9-14.7h-17L72 224.8c-.9 2.7-1.4 4.6-1.4 5.8 0 2.2 1.4 3.4 4.2 3.4v1.5H61.2V234c2-.3 3.5-.9 4.6-1.9 1.1-1 2.2-3.2 3.3-6.4L83.7 182h5.5l15.4 45.7c.9 2.7 1.8 4.4 2.8 5.2 1 .8 2.6 1.2 4.7 1.2v1.5H93.5zm-16.9-24.7h14.9L84 188.4l-7.4 22.5zm95.5 24.9v-1.6c3.2 0 4.8-1.1 4.8-3.3 0-.6-.1-1.3-.4-2.1l-5.2-15.5h-17.9l-3.8 11.2c-.9 2.8-1.4 4.9-1.4 6.1 0 2.3 1.5 3.5 4.4 3.6v1.6h-14.4v-1.6c2.1-.3 3.7-1 4.8-2 1.1-1.1 2.3-3.3 3.5-6.7l16-47.2h5.3l16.4 49.2c.9 2.8 1.9 4.6 3 5.5 1 .8 2.7 1.2 5 1.2v1.6h-20.1zm-17.7-26h15.7l-7.9-23.6-7.8 23.6zm87.1-25.7v-1.5h16v1.5c-2.6 0-4.3.6-5.3 1.8-1 1.2-1.5 3.4-1.5 6.6v43.1h-1.6l-37.6-46.1v37.2c0 2.6.5 4.5 1.6 5.6 1.1 1.1 2.9 1.7 5.4 1.7v1.5h-16.1V234c2.6 0 4.3-.7 5.2-2 .9-1.3 1.4-3.7 1.4-7.1v-31c0-3.3-.6-5.8-1.8-7.2-1.2-1.5-3.2-2.3-6-2.6v-1.5h13.6l33.3 41.3v-31c0-3.3-.5-5.5-1.4-6.8-1-1.3-2.7-2-5.2-2m49.8-1.5v1.5c-2.3 0-3.8.6-4.7 1.9-.9 1.2-1.3 3.4-1.3 6.6v33.1c0 3.2.4 5.4 1.3 6.6.9 1.2 2.4 1.8 4.7 1.8v1.5h-19.1v-1.5c2.3 0 3.9-.6 4.7-1.8.8-1.2 1.3-3.4 1.3-6.6v-33.1c0-3.3-.4-5.5-1.2-6.7-.8-1.2-2.4-1.8-4.8-1.8v-1.5h19.1zm47.6 2.6h-8V226c0 3.2.4 5.4 1.2 6.5.8 1.1 2.3 1.7 4.6 1.7v1.5h-18.8v-1.5c2.3 0 3.9-.6 4.8-1.9.8-1.3 1.3-3.4 1.3-6.5v-40.5h-7.7c-3.7 0-6.3.6-8 1.8-1.7 1.2-2.6 3.1-2.8 5.8h-1.6v-12.2h1.6c1.4 1.3 4.1 2 8 2h27.8c4 0 6.8-.7 8.4-2h1.7v12.2h-1c-.7-2.9-1.8-4.9-3.5-6-2.1-1.2-4.6-1.7-8-1.7m51.2 50.4v-1.5c3 0 4.6-1.1 4.6-3.2 0-.6-.1-1.3-.4-2l-4.9-14.7h-17l-3.6 10.6c-.9 2.7-1.4 4.6-1.4 5.8 0 2.2 1.4 3.4 4.2 3.4v1.5h-13.7V234c2-.3 3.5-.9 4.6-1.9 1.1-1 2.2-3.2 3.3-6.4l14.7-43.7h5.5l15.4 45.7c.9 2.7 1.8 4.4 2.8 5.2 1 .8 2.6 1.2 4.7 1.2v1.5h-18.8zm-16.8-24.7h14.9l-7.5-22.5-7.4 22.5z"/><path d="M80.4 209.5l.9-3.7 2.2-6.5 1.5-3.5-.9 3.7L82 206zm4.9 7.1h-7.5s-3.4 9.9-3.7 10.8c-.6 1.9-.7 3.7-.7 3.7.9-2.7 1.8-4.6 2.5-7l2.3-6.8 13.7-.7h-6.6zm22.4 13.3c-.8-1.8-1.7-3.7-2.4-5.6l-1.9-5.7-3.9-11.5-3.9-11.5-1.1-3.4-1.6-5.8 2.2 5.6 1.1 3.4 3.9 11.5 3.9 11.5 1.9 5.7c.6 2 1.2 3.9 1.8 5.8m7.3 5.7c-.1.9-.1 1.6-.1 2.5h-10.8s-6.3.1-7.9.3c1.6.2 7.9.3 7.9.3h11.2c0 .1-.2-2.1-.3-3.1m-37.1.1c-.1.8-.1 1.6-.3 2.5h-6.7s-5.7.1-6.8.3c1.1.2 6.8.3 6.8.3h7.3s-.2-2.2-.3-3.1m-21.3-3.4l-1.6 5.8H29.2c-3.2-.1-6.3.2-9.5.3 3.2.1 6.3.4 9.5.3h26.3l1.8-6.3 1.1-5.5-1.8 5.4zm160.9.3c-1.5-.6-2.6-2.2-3-3.8-.3-1.7-.2-3.3-.2-4.9v-22.8l.3-4.9.3 4.9v22.8c0 1.6-.1 3.2.2 4.8.3 1.5 1 3.1 2.4 3.9m29.4-14.2l-3.7-4.1-3.4-4.3-6.9-8.5-6.9-8.6-3.4-4.3-3.2-4.5 3.7 4.1 3.5 4.3 6.8 8.6 6.9 8.5 3.4 4.3zm61.6-27.7c.9-1.6 2.6-2.4 4.2-2.7 1.7-.3 3.3-.3 4.9-.3 1.6-.1 3.3.1 4.9.3-1.6.2-3.3.4-4.9.3-1.6 0-3.3 0-4.8.3-1.6.3-3.2.9-3.9 2.3-.7 1.4-1.1 2.6-1.1 4.2.1.1-.4-2.5.7-4.4m43.6 4.4l1.8-.3v-4.9s.1-5.9.3-6.9c.2 1 .3 6.9.3 6.9v5.5l-2.4-.3zm-11.5-7.3c-2.2-.1-4.4 0-6.6 0h-.3v34.3c0 1.9-.1 3.8.2 5.7.2 1.8.6 4 2.4 5-1.6-1.1-1.8-3.2-1.9-5v-39.2h6.2c2.2-.1 3.5-.2 5.7.3-2.1-.9-3.6-1-5.7-1.1m-1.3 47.7c-.1.9-.1 1.7-.2 2.6h-13.8c-1.6-.1-3.1.1-4.7.3 1.6.2 3.1.4 4.7.3h14.5c0 .1-.4-2.2-.5-3.2m-180.9-27.1l1-3.9 2.2-6.8 1.6-3.7-.9 3.9-2.3 6.8zm5.1 7.5h-7.8s-3.5 10.4-3.8 11.3c-.6 2-.7 3.9-.7 3.9.9-2.9 1.8-4.8 2.7-7.3l2.4-7.1h7.4l7-.7h-7.2zm24.6 13.9c-.9-1.9-1.7-3.9-2.5-5.9l-2-6-4.1-12-4.1-12-1.2-3.6-1.7-6.1 2.4 5.9 1.2 3.6 4.1 12 4.1 12 2 6c.6 2.1 1.2 4.1 1.8 6.1m6.6 6c-.1.9-.1 1.7-.1 2.6h-11.3s-6.6.1-8.3.3c1.6.2 8.3.3 8.3.3h11.8c0 .1-.3-2.2-.4-3.2m-39 0c-.1.9-.1 1.6-.3 2.6h-7s-6 .1-7.2.3c1.2.2 7.2.3 7.2.3h7.7c0 .1-.3-2.2-.4-3.2m65.7-.2c-.1.9-.1 1.6-.1 2.5h-8s-6.3.1-7.9.3c1.6.2 7.9.3 7.9.3h8.5c-.1.1-.3-2.1-.4-3.1m72.8 0c-.1.9-.1 1.6-.1 2.5h-10.9s-6.3.1-7.9.3c1.6.2 7.9.3 7.9.3h11.4c-.1.1-.3-2.1-.4-3.1m82.8-26.1l.9-3.7 2.2-6.5 1.5-3.5-.9 3.7-2.1 6.5zm5 7.1h-7.5s-3.4 9.9-3.7 10.8c-.6 1.9-.7 3.7-.7 3.7.9-2.7 1.8-4.6 2.5-7l2.3-6.8h7l6.7-.7H382zm23.4 13.3c-.8-1.8-1.7-3.7-2.4-5.6l-1.9-5.7-3.9-11.5-3.9-11.5-1.1-3.4-1.6-5.8 2.2 5.6 1.1 3.4 3.9 11.5 3.9 11.5 1.9 5.7c.5 2 1.1 3.9 1.8 5.8m6.3 5.7c-.1.9-.1 1.6-.1 2.5h-10.8s-6.3.1-7.9.3c1.6.2 7.9.3 7.9.3H412c0 .1-.2-2.2-.3-3.1m-37.2 0c-.1.8-.1 1.6-.3 2.5h-6.7s-5.7.1-6.8.3c1.1.2 6.8.3 6.8.3h7.3c0 .1-.2-2.1-.3-3.1M260 184.2v2.5h-1.5c-.2 0-2.1-.1-3.6 1.2-.9.9-1.4 2.1-1.4 3.8v3.3s-.1 38.5.2 43.2l-2.4.4h2.9v-46.9c0-1.4.4-2.5 1.2-3.3 1.3-1.2 2.8-1 3.1-1.1h2.2l-.7-3.1zm30 4.2c1.3-1.2 2.8-1 3.1-1.1h1.4l-.7-3.1v2.5h-.7c-.2 0-2.1-.1-3.6 1.2-.9.9-1.4 2.1-1.4 3.8v29c0 2.1-.1 4.2.1 6.4.3 2 .8 4.5 2.8 5.5-1.9-1.2-2.1-3.6-2.2-5.6-.1-2.1 0-4.2-.1-6.3v-29c.1-1.4.5-2.5 1.3-3.3m-255.7-3.9c1.3-1.2 2.8-1 3.1-1.1H39l-.7-3.1v2.5h-.9c-.2 0-2.1-.1-3.6 1.2-.9.9-1.4 2.1-1.4 3.8v33.1c0 2.1-.1 2.1.1 4.2.3 2 .8 4.5 2.8 5.5-1.9-1.2-2.1-3.6-2.2-5.6-.1-2.1 0-2.1-.1-4.2v-33.1c.1-1.4.5-2.5 1.3-3.2M216.5 41.2c0 .1 0 .2-.1.3-.1 0-.1-.1-.1-.3 0-.2 0-.2.1-.2.1.1.1.1.1.2m-13.8 47.2c0 .1 0 .1 0 0s0-.1 0 0m34.5-18.7s-.1.1-.1.2c.1 0 .1-.1.1-.2m-51 12.9c0 .3.1.5.2.4.1-.1.1-.3.1-.4 0-.2 0-.3-.1-.3-.1-.1-.2 0-.2.3m9.5 11.7c.1 0 .2-.1.2-.2s-.1-.2-.2-.2-.2.1-.2.2c0 .2.1.2.2.2m-20.3-34.8c-.1 0-.2 0-.2.1v.1l.1-.1c.1 0 .1-.1.1-.1M206 38.8c0-.1-.1-.1-.2-.1s-.1 0-.1.1 0 .1.1.1.2 0 .2-.1m34.7 33.7s.1-.1.1-.2c-.1 0-.1 0-.1.2 0-.1 0-.1 0 0m-35.6-8.2c.1 0 .2 0 .2-.1s-.1-.1-.2-.1-.1 0-.1.1 0 .1.1.1m20 17.1c.1 0 .2-.1.2-.2v-.1c-.2.1-.3.1-.2.3-.1 0 0 0 0 0M214.4 26s0-.1 0 0c-.1 0-.2 0-.2.1.1 0 .2 0 .2-.1m33 39.6c0-.1-.1-.1-.2-.1s-.2 0-.2.1.1.1.2.1c.1.1.2 0 .2-.1M203 77.5v.2c0-.1.1-.2.2-.2v-.1l-.2.1zm38.5-10.3h.2s0-.1-.1-.1c0 .1-.1.1-.1.1M209.6 28s-.1 0 0 0c-.1 0-.1 0-.1.1s.1 0 .1-.1m-5.5 32.6c-.1 0-.2 0-.2.1s.1.1.2.1.1 0 .1-.1-.1-.1-.1-.1m.9 3.5c.1 0 .1-.1 0-.2-.1 0-.2 0-.2.1s.1.1.2.1m18.2 15.5c-.1 0-.2 0-.2.1.2 0 .2 0 .2-.1M207 66.8c-.1 0-.2.1-.2.2.2-.1.2-.1.2-.2m-12.2-11s-.1 0-.1.1c.1 0 .1 0 .1-.1m40.8 16c.1 0 .2 0 .2-.1s-.1-.1-.2-.1-.1 0-.1.1c0 0 0 .1.1.1M216.9 52h.2c0-.1-.1-.1-.2 0 0-.1 0-.1 0 0m-.2-5.5c0 .5.1.8.1.9v-1.2l-.1.3m2.8-18.8c.2.1.5.1.7 0 .1-.1.2-.2.2-.3 0-.1.1-.2.1-.3 0-.1.1-.1.2-.2h.5c.1 0 .4.1.7.2.3.1.6.3.7.4.1 0 .2.1.4.2s.3.3.5.4l.4.4.2.2c.6.6 1.1 1.4 1.4 2.2.3.9.4 1.7.4 2.6 0 .3-.1.5-.1.7 0 .2-.1.4-.1.5-.1.2-.1.4-.2.6-.1.2-.1.4-.1.5 0 .2-.1.4-.2.7 0 .1-.1.2-.1.2 0 .1-.1.1-.1.2s0 .2-.1.4c-.1.1-.1.2-.1.3l-.2.5c0 .1 0 .2.2.2.1.1.2.2.4.3 0 0 .1.1.2.1s.2.1.3.1c.3-.1.5-.1.5 0-.1.1-.1.2-.2.4 0 .2 0 .3.1.4l.1.1.1.1c.3.3.4.6.4 1.1v.3c0 .1.1.2.1.2 0 .2 0 .4.1.5l-.1.6h.2c.1 0 .2 0 .4-.1.1.1.2 0 .3-.1l.2-.2v1.2c0 .1 0 .4-.1.8v.8c0 .1-.1.6-.5 1-.6.6-1.1.6-1.1.6l.3.4-.7-.4h-1.1l-1-.1-1.1-.3s-.4.7.8 1.7c1.2 1 2.7 1.5 2.7 1.5s.5.2 1.2 0c.4-.1.9-.5 1.2-.8 0 .1.1.3.1.5s.1.4.2.6v.1c0 .2.1.4.1.6.1.5.2 1 .2 1.4 0 .4.1.8.1 1.1-.1.4-.2 1-.3 1.6-.1.6-.5.9-1 .9 0-.2 0-.3.1-.3s0-.2-.1-.5c0-.4-.2-.5-.5-.5 0-.2-.1-.3-.3-.3-.2 0-.3-.1-.5-.1-.3 0-.5.1-.6.2l-.5.5c-.3.4-.2.9.2 1.5s.9.9 1.7.9h.3c.8 0 1.6-.5 2.4-1.4.2-.4.4-.8.6-1.3.1-.3.1-.4.2-.6 0 .1 0 .1.1.2.1.4.1.9.1 1.3s0 .9.1 1.3v1.6c0 .7-.3 1.6-.9 2.8-.6 1.1-1.5 1.7-2.8 1.7-.7 0-1.1-.3-1.3-.8.3-.1.5-.2.7-.2.2 0 .3-.3.3-.7v-.3c0-.4-.2-.8-.5-1-.3-.2-.7-.3-1.1-.3-.4 0-.8.3-1.1.6-.3.3-.5.8-.5 1.4 0 1 .5 1.6 1.4 2 .4.3.8.4 1.2.5.4 0 .7.1 1.1.1.6 0 1.1-.1 1.5-.3.2-.2.3-.3.5-.3.1 0 .2-.1.3-.3.2 0 .3-.1.5-.3.1-.2.2-.3.2-.2.1-.2.3-.4.7-.5.1-.3.1-.5.1-.7.2-.3.3-.5.3-.7 0-.2.2-.4.3-.7.1-.3.2-.7.2-1.2s.2-1.1.3-1.6c0-.3.3-.6.2-1 0-.2.2-.4.4-.6l.9.6c.9.5 1.9.8 3.1 1 .4.1.8.1 1.4 0 .6-.1 1.1-.2 1.5-.3.3-.1.5-.2.7-.3.2-.1.4-.2.7-.4.1 0 .1 0 .2-.1s.2-.1.3-.2c.1 0 .2-.1.3-.3.1 0 .1-.1.2-.1s.1-.1.1-.1l.1-.1.8-.8.3-.3c.2-.2.3-.3.3-.4 0-.1.1-.3.3-.5 0-.1.1-.1.1-.2 0 0 .1-.1.1-.2.1-.1.1-.3.2-.4.1-.2.1-.3.2-.5v-.2c.1-.1.1-.1.1-.3 0 0 .1-.1.1-.2s.1-.2.1-.2l-.1-.1c.1 0 .1-.1.1-.4 0-.3-.1-.5-.1-.7v-.6c0-.2-.1-.4-.2-.6-.1-.5-.3-.9-.4-1.2-.2-.3-.4-.6-.7-.9l-.2-.2-.2-.2-.4-.4c-.2-.2-.3-.3-.5-.3-.1-.1-.2-.2-.3-.2-.1 0-.2 0-.4-.1 0 0-.1-.1-.3-.1-.2 0-.3-.1-.3-.1v.1h-.2c-.1-.1-.2-.1-.5 0-.2.1-.4.1-.5.1l-.6.3c-.2.1-.4.2-.5.4l-.1.1c-.3.4-.5.8-.5 1.2-.1.5 0 1 .3 1.3.2.4.5.7 1 .9.5.2.9 0 1.3-.4l.1-.1c0-.1.1-.2.1-.3.1-.1.1-.3.2-.4v-.4c0-.1-.1-.1-.1-.1l-.1-.1c.3 0 .6.1.8.3l.3.3c.1.1.2.2.2.3.1.1.2.3.3.4 0 .1.1.2.1.3 0 .1.1.2.1.3v1.3c0 .1-.1.2-.1.2v.3l-.1.1v.2c-.2.6-.5 1.1-.9 1.5-.1.1-.1.2-.1.2h-.2c-.1.1-.3.1-.4-.1h-.1c.1-.1 0-.2 0-.3-.1-.1-.1-.3-.1-.4-.1-.2-.1-.3-.2-.3l-.1-.1c-.1-.1-.3-.2-.5-.2h-.6c-.1.2-.1.3-.1.4 0 .1 0 .2-.1.4s-.1.3-.2.4c-.1.1-.2.2-.2.3l-.2.2c-.1.1-.3.3-.6.4-.2.1-.4.2-.6.2-.1 0-.3 0-.7.1-.4.1-.6 0-.8-.1l.1.1c-.1-.1-.2-.1-.4-.1h-.5c-.2-.1-.3-.1-.4-.2-.1 0-.2-.1-.4-.2-.4-.1-.6-.2-.8-.4-.2-.2-.4-.3-.6-.5l-.8-.8-.1-.1h-.1c.3.1.6.1.6.1h.5c.3 0 .5 0 .7-.1.2 0 .3.1.5.2l.2-.2v-.1l-.2-.5c.4-.1.8-.3 1.2-.7.4-.4.7-.8.8-1.1.2-.4.3-1 .1-1.6 0-.3-.1-.6-.3-.8-.2-.2-.3-.4-.4-.6 0 .1-.1.3-.1.4 0 .1-.1.2-.2.3-.1.1-.2.2-.2.3 0 .1-.1.2-.4.4-.1.1-.3.2-.4.2-.1.1-.3.1-.4.1-.1 0-.2 0-.4.1h-.5v-.8c-.1-.2-.2-.5-.5-.7-.1 0-.2.1-.3.2-.1.1-.2.1-.4.2-.4 0-.7-.1-.8-.2l-.3-.3c-.1-.1-.2-.3-.3-.5l-.3-.6c-.1-.2-.1-.4-.2-.7-.1-.3-.1-.5-.1-.5l.1-.1c-.1-.1-.1-.3-.2-.7 0-.4 0-.7-.1-.8l.1-.1c-.1-.1-.1-.2-.1-.4v-.8c0-.3.1-.5.1-.8v-2l.2.2.1.1.1.1c.2.3.4.4.6.5.2.1.4.2.5.4.1.1.2.1.3.2.1.1.2.1.3.1.1 0 .2 0 .3.1.1.1.2.1.2 0 .1.1.2.2.3.2h.7c.1 0 .2-.1.4-.2.4 0 .8-.2 1.1-.5.1-.1.3-.3.4-.6 0-.1 0-.2.1-.4s.1-.3 0-.4c.1-.1 0-.1 0-.2 0 0 0-.1-.1-.3-.1-.3-.2-.4-.3-.5l-.2-.2c-.2-.2-.5-.4-.8-.4-.3-.1-.6 0-.9.2l-.4.4c-.1.1-.1.1 0 .2v.3c-.1.3-.2.4-.3.4-.1 0-.2 0-.2.1 0 0-.1-.1-.2-.1s-.2-.1-.3-.1c-.1 0-.3-.1-.3-.1-.1 0-.2-.1-.2-.2-.1-.1-.2-.2-.3-.4-.2-.2-.3-.4-.2-.5.1.1.1.1.2.1s.1 0 .2.1h.7c.1 0 .2 0 .3-.1.4-.1.8-.3 1-.6.1-.2.1-.4.1-.7 0-.3-.1-.5-.2-.7l-.2-.2s-.1-.1-.2-.1l-.6-.3h-.1c-.1 0-.2 0-.3.1-.1 0-.2.1-.3.2-.2.2-.3.4-.4.5-.4-.4-.8-1.1-1.2-1.9-.4-.9-.7-1.6-.9-2.1-.4-.6-.8-1.3-1.2-2-.4-.7-.9-1.3-1.4-1.9l-.2-.2-.1-.1-.3-.3-.1-.1-.2-.2-.4-.4c-.2-.2-.4-.3-.6-.5-.2-.2-.4-.3-.6-.4-.2-.1-.3-.2-.5-.2-.1 0-.2 0-.4-.1-.1-.1-.2-.2-.3-.2h-1.1c-.2 0-.3 0-.3.1h-.3s-.1.1-.3.1l-.4.2-.3.3c-.1.1-.2.4-.3.7-.1.3 0 .5.1.7-.6.9-.5 1-.2 1.1m-47.1 23.8c0 .1.1.2.1.2 0 .1 0 .2.1.3.1.1.1.1 0 .2.1.1.2.3.2.5.1.2.1.3.2.4 0 .1.1.1.1.2 0 0 .1.1.1.2.2.2.3.3.3.5 0 .1.1.2.3.4l.3.3.8.8.1.1.1.1c.1 0 .1.1.2.1l.3.3c.1.1.1.1.3.2.1.1.2.1.2.1.3.2.5.3.7.4.2.1.4.2.7.3.4.2.9.3 1.5.3h1.4c1.1-.2 2.1-.5 3.1-1l.9-.6c.2.2.3.4.3.5 0 .4.3.8.3 1.1.2.5.3 1 .3 1.6 0 .5.1.9.2 1.2.2.3.3.5.3.7 0 .2.2.4.3.7 0 .2.1.4.1.7.4.2.6.4.7.5 0-.1.1 0 .2.2s.3.3.5.3c.1.2.2.3.3.3.1 0 .3.1.5.3.4.2.8.3 1.5.3.3 0 .7 0 1.1-.1.4-.1.8-.2 1.2-.5 1-.4 1.5-1 1.4-2 0-.6-.2-1.1-.5-1.4-.4-.3-.7-.6-1.1-.6-.4 0-.8 0-1.1.3-.4.2-.5.6-.5 1v.3c0 .4.1.7.3.7.2 0 .4.1.6.2-.2.5-.6.8-1.3.8-1.2 0-2.2-.6-2.8-1.7-.6-1.1-.9-2.1-.9-2.8v-1.6c.1-.4.1-.9.1-1.3s.1-.9.1-1.3c0-.1 0-.1.1-.2.1.2.1.4.2.6.2.5.4 1 .6 1.3.8 1 1.6 1.4 2.4 1.4h.3c.7 0 1.3-.3 1.7-.9.4-.6.5-1.1.2-1.5l-.5-.5c-.1-.1-.3-.2-.6-.2-.2 0-.4 0-.5.1-.2.1-.3.2-.3.3-.3 0-.5.2-.5.5-.2.3-.2.4-.1.5.1.1.1.2.1.3-.5 0-.9-.3-1-.9-.1-.6-.2-1.1-.3-1.6 0-.4 0-.7.1-1.1 0-.4.1-.9.2-1.4 0-.2 0-.4.1-.6v-.1c.1-.2.2-.4.2-.6.1-.2.1-.4.1-.5.3.3.8.6 1.2.8.7.2 1.2 0 1.2 0s1.6-.5 2.7-1.5c1.2-1 .8-1.7.8-1.7l-1.1.3-1 .1h-1.1l-.7.4.3-.4s-.5 0-1.1-.6c-.4-.4-.5-.9-.5-1 0-.1.1-.3 0-.7 0-.4-.1-.7-.1-.8v-1.2l.2.2c.1.1.2.1.3.1.2.1.3.1.3.1h.2l-.1-.6c.1-.1.1-.3.1-.5 0 0 .1-.1.1-.2v-.3c0-.4.1-.8.4-1.1l.1-.1.1-.1c.1-.1.1-.2.1-.4s-.1-.3-.2-.4h.5c.1 0 .2-.1.2-.1.1 0 .1-.1.2-.1.1-.1.2-.2.4-.3.1-.1.2-.1.2-.2l-.2-.5c0-.1-.1-.2-.1-.3-.1-.1-.1-.2-.1-.4 0-.1-.1-.2-.1-.2 0-.1-.1-.1-.1-.2-.2-.3-.2-.5-.2-.7 0-.1 0-.3-.1-.5s-.1-.4-.2-.6c0-.1-.1-.3-.1-.5s-.1-.4-.1-.7c-.1-.9.1-1.8.4-2.6.3-.9.8-1.6 1.4-2.2l.2-.2.4-.4c.2-.2.3-.3.5-.4.2-.1.3-.2.4-.2.1-.1.4-.3.7-.4.3-.1.6-.2.7-.2.3-.1.5-.1.5 0 .1 0 .1.1.2.2 0 .1.1.2.1.3 0 .1.1.2.2.3.2.1.4 0 .7 0 .2-.1.4-.2.4-.4.1-.2.2-.4.1-.7-.1-.3-.2-.5-.3-.7l-.2-.3-.4-.2c-.2-.1-.3-.1-.3-.1h-.3c-.1-.1-.2-.1-.3-.1h-1.1c-.1.1-.2.1-.3.2-.1.1-.3.1-.4.1-.1 0-.3.1-.5.2s-.4.3-.6.4c-.2.2-.4.3-.6.5-.2.2-.4.3-.4.4l-.3.2-.1.1-.3.3-.1.1-.2.2c-.5.6-1 1.2-1.4 1.9-.4.7-.8 1.3-1.2 2-.2.6-.5 1.3-.9 2.1s-.8 1.5-1.2 1.9c-.1-.2-.2-.3-.4-.5-.1-.1-.2-.2-.3-.2-.1-.1-.1-.1-.3-.1h-.1l-.6.3c-.1.1-.2.1-.2.1l-.2.2c-.1.2-.2.5-.2.7 0 .3 0 .5.1.7.2.4.5.6 1 .6.1 0 .2 0 .3.1h.7s.1 0 .2-.1c.1 0 .1 0 .2-.1 0 .2-.1.3-.2.5-.2.2-.3.3-.3.4-.1.1-.2.1-.2.2-.1 0-.2.1-.3.1-.1 0-.1 0-.3.1-.1 0-.2.1-.2.1 0-.1-.1-.2-.2-.1-.1 0-.3-.1-.3-.4v-.5l-.4-.4c-.3-.2-.6-.2-.9-.2-.3.1-.6.2-.8.4l-.2.2c-.1.1-.1.2-.3.5-.1.2-.2.4-.1.3-.1.1-.1.2 0 .2-.1.1 0 .2 0 .4.1.2.1.3.1.4.2.3.3.5.4.6.3.3.7.5 1.1.5.1.1.3.1.4.2h.3c.2-.1.3-.1.4 0 .1 0 .2 0 .3-.2h.3c.1-.1.2-.1.3-.1.1 0 .2 0 .3-.1.1-.1.2-.2.3-.2.1-.1.3-.3.5-.4.2-.1.4-.3.6-.5l.1-.1.1-.1.2-.2v2c0 .2.1.5.1.8v.8c0 .2 0 .4-.1.4l.1.1c-.1.1-.1.4-.1.8s-.1.7-.1.7l.1.1s-.1.2-.1.5c-.1.3-.1.5-.2.7l-.3.6c-.1.2-.2.4-.3.5l-.3.3c-.1.1-.4.2-.8.2-.2 0-.3-.1-.4-.2-.1-.1-.2-.1-.3-.2-.3.3-.4.5-.5.7-.1.2-.1.5 0 .8h-.5c-.2 0-.3 0-.4-.1-.2 0-.3 0-.4-.1-.1-.1-.2-.2-.4-.2-.3-.2-.4-.3-.4-.4 0-.1 0-.2-.2-.3-.1-.1-.2-.2-.2-.3 0-.1-.1-.2-.1-.4-.1.2-.3.4-.4.6-.2.2-.2.5-.3.8-.1.6-.1 1.2.1 1.6.1.3.4.7.8 1.1.4.4.8.6 1.2.7l-.2.5v.1l.2.2c.2-.2.3-.2.5-.2s.4 0 .7.1h.5c.1 0 .3 0 .6-.1.1.1.1.1 0 0h-.1l-.1.1-.8.8c-.2.2-.4.4-.6.5-.2.1-.5.3-.8.4-.2.1-.3.1-.4.2-.1 0-.2.1-.4.2h-.5c-.2 0-.4 0-.4.1l.1-.1c-.2.1-.4.1-.8.1-.3-.1-.6-.1-.7-.1-.2 0-.4-.1-.6-.2-.2-.1-.4-.3-.6-.4l-.2-.2c-.1-.1-.1-.1-.2-.3-.1-.1-.2-.3-.2-.4-.1-.2-.1-.3-.1-.4 0-.1 0-.2-.1-.4h-.6c-.2 0-.4.1-.5.2l-.1.1s-.1.1-.2.3c0 .1 0 .2-.1.4-.1.1-.1.2 0 .3h-.1c-.1.1-.3.2-.4.1h-.2s0-.1-.1-.2c-.4-.4-.7-.9-.9-1.5v-.2l-.1-.1V52c0-.1 0-.1-.1-.2v-1.3c0-.1 0-.2.1-.3 0-.1.1-.2.1-.3.1-.1.2-.3.3-.4.1-.1.1-.3.2-.3l.3-.3c.2-.2.5-.3.8-.3 0 .1-.1.1-.1.1l-.1.1v.4c.1.2.1.3.2.4.1.1.1.2.1.3l.1.1c.4.4.8.5 1.3.4.5-.2.8-.4 1-.9.3-.4.3-.8.3-1.3 0-.4-.2-.8-.5-1.2l-.1-.1c-.2-.2-.3-.3-.5-.4l-.6-.3c-.1 0-.3 0-.5-.1s-.4 0-.5 0c-.1-.1-.2-.1-.2 0V46s-.1.1-.3.1c-.2 0-.3 0-.3.1-.1 0-.3.1-.4.1-.1 0-.2.1-.3.2-.1 0-.3.1-.5.3l-.4.4-.2.2-.2.2c-.3.3-.5.6-.7.9-.2.3-.3.7-.4 1.2-.1.1-.1.3-.2.6v.6c0 .1 0 .3-.1.7 0 .3 0 .5.1.4l-.1.1c-.4-.8-.4-.7-.4-.6m81.5 15.2v.4c-.1.6-.2 1.2-.3 1.9-.1.7-.6 1-1.5 1-.1 0-.3 0-.6-.1s-.4-.2-.4-.4c0-.1.1-.2.2-.4.1-.1.2-.2.2-.4 0-.5-.3-.8-.8-.8-.4 0-.6 0-.8.1.1 2-.2 3.9-.8 5.8-.7 1.9-1.9 3.5-3.6 4.7-.5.4-1 .7-1.6.9-.6.3-1.1.6-1.5 1.1l-.3.6c-.1.2-.2.5-.4.7-.1.2-.3.5-.5.7l-.4.4h-1.6c-.1 0-.1 0-.2-.1s-.1-.1-.2-.1v-.2c.4-.1.7-.3.8-.4s.1-.4.1-.7v-.5c-1.6.1-2.9 0-4.1-.3-1.2-.3-2.5-.6-4-1.1-.1-.1-.2-.2-.3-.4-.1-.2-.1-.3-.2-.3h-.2c-.3.3-.7.5-1.2.7-.5.2-1 .3-1.4.3-.6 0-1.3-.2-2.2-.6-.9-.4-1.3-1-1.3-1.8.3-.1.5-.1.7-.3.2-.1.4-.2.6-.2 0-.7-.3-1-.9-1-.4 0-.7.2-.8.5-.1.4-.2.7-.2 1v.2c.5 1.4 1.4 2.2 2.6 2.6 1.2.3 2.4.5 3.8.6.4.2.7.5.7.9v1.9c0 .3-.1.6-.2 1-1.3.1-2.3.6-3 1.4-.7.8-1.3 1.7-2 2.7l-1.5 2.4c-.5.8-1.1 1.5-1.8 2.1-.7.6-1.4 1.1-2.2 1.5-.8.4-1.7.6-2.6.6h-.8c-.3 0-.7-.1-1-.2-.3-.1-.6-.2-.9-.4-.3-.2-.4-.4-.4-.6 0-.8.3-1.2.9-1.2.2 0 .5 0 .7.1.2.1.4.1.7.1.6 0 1.2-.2 1.8-.5.6-.3 1-.7 1.4-1.3.4-.5.7-1.1.9-1.7.1-.3.2-.5.2-.8l.2-.1v.1c0 .1 0 .2.1.2s.2-.1.2-.2-.1-.2-.2-.2l.2-3.1v.5c0 .1.1.2.1.1.1-.1.1-.3.1-.7 0-.3 0-.6-.1-.7-.1-.1-.1 0-.1.2v.5l-.2-.3v-1.6l-1-6.5v-.2c0-.2.1-.4.2-.5l-.4.2v-1.1c0 .2-.1.3-.2.4l-.9-4.4-.1-.3c0-.1 0-.3-.1-.7-.1-.4-.1-.8-.2-1.3-.1-.4-.1-.9-.2-1.3s-.1-.6-.1-.8v-.3l.1.2v-1 .4h-.2c-.1-.4-.2-.6-.1-.6v-.5h.3c.1 0 .1 0 .1-.2-.4-.1-.6-.5-.7-1-.1-.6-.2-1-.2-1.3 0-.1 0-.2.1-.3.1-.1.1-.2.1-.3V62l-.3.3v-.2c0-.1 0-.2.1-.4.1-.1.1-.3.1-.4v-.4c-.1.1-.1.1-.2.1s-.1 0-.1.1l-.2-.1v-1.3c-.3-.2-.5-.6-.5-1.4 0-.7-.1-1.1-.2-1.1h-2.2c-.1.5-.2 1-.4 1.5-.1.4-.2.8-.3 1.1-.1.3-.1.5-.1.6-.1.2-.3.5-.4.9-.2.4-.4.9-.6 1.3-.2.4-.4.9-.6 1.3l-.6 1.1-.9 1.5-.9 1.6c-.3.4-.4.6-.3.7.1.4.2.5.5.5l2.2 3.9 1.9 3.8v.4c0 .1 0 .1.1.1.3 1.1.6 2.1.8 3 .1.5.2 1.1.3 1.7l-.1 3.6c-.1.9-.3 1.7-.6 2.4-.3.8-.8 1.8-1.3 2.8-.1.1-.3.2-.5.4l-.5.5c0 .1 0 .2-.1.3l-1.1.7c.2.1.4.3.6.4l-.2.2h.3c.1 0 .2 0 .2.1.1.1.2.1.4.3.3.3.6.7.9 1.2.3.4.5.9.8 1.3.3.4.6.6.8.6.2 0 .4-.2.4-.4s-.1-.3-.2-.4h.4c.4 0 .8.2 1.1.6.3.4.5.8.5 1.1 0 .5-.2.8-.7.9-.5.2-.9.2-1.2.2-.3 0-.6 0-1-.1s-.7-.3-.8-.6h-1.7c-.2 0-.5-.2-.9-.7-.4-.4-.6-.8-.6-1v-.2c0-.1 0-.1.1-.1.8.1 1.2-.2 1.2-.9 0-.4-.2-.5-.6-.5-.3 0-.5.2-.7.5-.1.3-.2.6-.2.9 0 .7.2 1.2.6 1.6.4.4.9.7 1.4 1 .5.3 1 .5 1.4.7.4.2.6.4.6.5.5 0 1 .2 1.7.7.6.4 1.1.8 1.4 1l-.6.7-.5.3v.2s-1.1 1.7-1.1 1.4c0-.3.3-1.9-.7-2.4-.4-.2-.9-.3-1.6-.3-.5 0-1 .2-1.5.5s-.7.8-.7 1.5c0 .3.1.6.2.9.1.3.4.4.8.4.7 0 1-.4 1-1.1 0-.2-.1-.4-.3-.8.1-.2.3-.3.6-.3.6 0 1 .3 1.3.8.3.5.4 1 .4 1.5v.6c0 .1-.1.3-.2.5v2.2c0 .2-.1.4-.3.6-.2.2-.4.3-.5.3-.2 0-.5-.2-.9-.6-.4-.4-.8-.7-1.1-.8v-.2h-.3l.1-.3h-.4l.2.1-.2.2c.1.1.3.4.4.8.2.4.3.7.4.8v.4c0 .4-.1.7-.3.8-.2.1-.5.2-.9.2-.1.2-.3.7-.6 1.4s-.5 1.2-.6 1.4l-.1.3c-.8-.2-1.3-.8-1.5-1.8h.2c0-.5-.2-.8-.7-.9-.5-.1-.9-.3-1.2-.7l.4-.4-.2-.9-.3.2c.2-.2.3-.4.4-.7.1-.3.2-.5.4-.7-.8.2-1.4.6-2 1.3-.4-.1-.8-.3-1.1-.5-.3-.2-.4-.6-.4-1.1v-.5c0-.1.1-.3.2-.6l-.7-.9c.1-.1 0-.2 0-.2-.1 0-.1-.1-.1-.2h-.1v-.9l.1.1v-.1c0-.2 0-.3-.1-.4.1-.2.3-.5.5-.7.2-.2.5-.3.8-.3.2 0 .4.1.6.3.2.2.3.4.3.6-.1.1-.1.2-.2.4s-.2.3-.2.3c.2.4.6.5 1 .5.5 0 .8-.2 1.1-.5.2-.3.4-.7.4-1.2 0-.3-.1-.5-.2-.6-.1-.1-.3-.4-.5-.7-.1-.2-.4-.4-.7-.4h-.9c-1 0-1.7.4-2.2 1.3-.4.7-.7 1.8-.8 2.3-.1.5-.5-1.5-.5-1.5v-.7l-.2-.1-.3-1c.5-.8 1.2-1.4 2.3-1.9 1.1-.4 2-.9 2.7-1.2.1 0 .2-.1.4-.2s.3-.2.3-.3c.1 0 .2 0 .4-.1.1-.1.2-.1.4-.1v-.2c-.2.1-.5.2-.7.4-.2.1-.5.2-.8.2-.1 0-.2 0-.4-.1-.1-.1-.2-.1-.4-.1h-.1l-1.9.8h-.3c-.4 0-.9-.2-1.3-.5s-.7-.7-.7-1.2h.1v-.1c0-.1 0-.1-.1-.2-.5-.1-.5-.1-.5-.2-.1-.1 0-.3.1-.4.2-.2.3-.3.4-.3.3 0 .5.1.5.4 0 .2.2.4.5.4h.1l1.3-1c-.1-.1-.1-.1 0-.2.4-1 .9-1.6 1.3-2 .5-.4 1.2-.6 2.2-.7V93l-1.2-1.1c-.1-.2-.3-.5-.6-.6-.5-.3-.8-.7-.8-1.2-.2 0-.4-.1-.4-.2s0-.1.1-.2v-.1c.1 0 .1 0 .1-.1-.1-.3-.3-.6-.5-.9-.2-.3-.3-.6-.3-1v-.3h.6-.9v.5c-.2-.1-.3-.3-.3-.5s-.1-.4-.2-.5v-3.6.5c.1-.1.2-.3.2-.6v-1.4.8h-.1v-1.7c.3 0 .4-.2.4-.4l-.3.2v-.8c0-.1 0-.2.1-.3h.4c-.1-.1-.2-.3-.2-.4 0-.1 0-.2.1-.4.1-.1.2-.2.3-.2h-.1c0-.1 0-.1-.1-.2l.1-.3c.3-.3.5-.8.6-1.4 0 .1-.1.1-.2.1s-.1 0-.1-.1 0-.1.1-.1.2 0 .2.1c0-.1.1-.2.1-.4.1-.8.3-1.2.6-1.3l-.1-.1c0-.5.1-.9.4-1.2.3-.2.5-.5.7-.9l-.2-.2v-.2c.1-.1.2-.3.2-.4l.1-.1 1.2-1.8.5-.7s0-.1.1-.1l.2-.2c.1-.3.2-.5.2-.7 0-.3-.1-.6-.3-.9l-.7-1.2h.1c0 .1.1.2.2.2s.1-.1.1-.2 0-.2-.1-.2c0-.1-.1-.2-.2-.2s-.1.1-.1.2v.1l-.4-.7c.1 0 .1 0 .1-.1s0-.1-.1-.1h-.1c.1 0 .2-.1.2-.2s-.1-.2-.2-.2-.1 0-.1.1v-.1c.2 0 .2-.1 0-.2 0 0-.1 0-.1.1l-.2-.4v-.1c0-.4-.2-.7-.6-.8-.4-.1-.6-.4-.6-.8 0-.1.1-.2.2-.2-.1 0-.2-.1-.3-.2-.1-.1-.1-.2-.1-.3v-.2l.1.1c.1-.1.2-.2.2-.4-.2.1-.4 0-.4-.3v-.5h.9c-.2-.6-.5-.9-1.1-.9 0 .1 0 .1-.1.1-.1.1-.1.1-.2.1-.2 0-.3-.2-.4-.6-.1-.4-.2-.7-.2-.8 0-.1 0-.2.1-.2s.1 0 .1-.1c0-.2-.1-.4-.2-.6-.2-.2-.2-.4-.2-.5h-2.5L198 70.7l-.4 2-.3 1.3-.3 1.6-1.3 9.1v3.5c0 .1 0 .2.1.3.1.1.1.2.1.4.1.5.3.9.5 1.3l.6 1.2c.4.4.8.7 1.3.9.5.2 1 .3 1.5.3.2 0 .5 0 .7-.1.2-.1.5-.1.8-.1.3 0 .6.2.9.5.3.3.5.6.5.9 0 .6-.4.9-1.1 1-.7.1-1.3.1-1.7.1-.6 0-1.3-.1-2.1-.3-.8-.2-1.4-.6-1.8-1.1l.3-.2h-.5v-.4h-.3v.3h-.2l-.5-.5-.8-.8c-.2-.2-.4-.5-.5-.7V91c0-.1-.1-.3-.1-.4h-.4v-.4c-.2 0-.3-.1-.3-.3 0 .1-.1.1-.2.1s-.1-.1-.1-.2 0-.2.1-.2.2.1.2.2v-.1c.1-.3 0-.5-.3-.5v.4c-.1 0-.1 0-.2-.1-.7-.9-1.2-1.7-1.6-2.6-.4-.8-1-1.6-1.8-2.3-.2-.2-.4-.3-.7-.4-.3-.1-.6-.1-.9-.2-.3-.1-.6-.2-.8-.4-.2-.2-.3-.4-.3-.7 0-.2.1-.3.2-.4l.1.3v-1.9h-.1v-.5c.6 0 1.3-.1 2.1-.2s1.6-.3 2.3-.6c.7-.3 1.3-.7 1.8-1.2s.7-1.2.7-2c0-.6-.3-.9-.8-.9s-.8.2-.8.6c0 .3.1.6.4.8.2.2.4.5.5.8-.7 1-1.6 1.4-2.6 1.4-.3 0-.6 0-.9-.1-.3-.1-.6-.1-1-.1h-.3c-1.6.8-3.2 1.4-4.8 1.7-1.7.3-3.4.5-5.2.5v.4c0 .4.1.6.3.6.2.1.5.1.9.3v.1c-.1 0-.1 0-.1.1s-.1.1-.1.1h-.7c-.7 0-1.1-.1-1.3-.4-.2-.2-.4-.5-.5-.8-.1-.3-.2-.5-.3-.8-.1-.3-.2-.5-.4-.6-1.1-.6-2.2-1.2-3.2-1.9s-1.9-1.6-2.6-2.7c-.1-.2-.3-.5-.4-.9-.2-.4-.3-.6-.3-.7v-.4c-.3 0-.4-.1-.4-.3v-.3h-.1c-.1 0-.2-.1-.2-.2s.1-.2.2-.2.1.1.2.1v-.1c-.1-.1-.2-.2-.3-.2-.1 0-.2-.2-.2-.5h.3c0-.2-.1-.4-.3-.6-.2-.2-.3-.4-.3-.7v-2.9h-1.2c-.4 0-.6.3-.6.9 0 .1.1.3.2.7.1.3.3.5.3.7h-.5c-.7 0-1.3-.2-1.8-.7-.5-.4-.6-1.1-.4-1.9-.3-.2-.4-.6-.4-1 0-.5.3-.8.9-.9.6-.1 1.1-.2 1.5-.2h.6c.1 0 .3 0 .6.1 0-.3 0-.8.1-1.4.1-.6.4-.9.9-.9.3 0 .5.1.7.2.2.1.2.4.2.7.3-.5.8-1.2 1.5-2.1.7-.8 1.4-1.3 2.1-1.5.2-.1.4-.1.8-.2s.5-.2.5-.5h.2c-.1 0-.1.1 0 .2v.1s.1 0 .1-.1 0-.2-.1-.2c.3 0 .6 0 .8-.2.2-.2.4-.3.5-.5l.1.1c.1 0 .2 0 .2-.1s-.1-.1-.2-.1c.1-.2.2-.3.3-.5.1-.2.4-.3.8-.3.2 0 .4.1.5.2l.4.4c.7.4 1.4.7 2.2.9.8.3 1.5.6 2 1.1 1.1 1 2 2.1 2.8 3.3.8 1.2 1.2 2.6 1.2 4.1 0 .3 0 .6-.1.9-.1.3-.1.6-.1.9 0 .2.1.3.4.4.3.1.5.1.6.1.5 0 .9-.3 1-1h.1c.5 0 .8.3 1.1.8.2.5.4 1 .4 1.3 0 .7-.3 1.1-1 1.3-.7.2-1.2.2-1.7.2-.2.1-.4.3-.4.6-.1.3-.2.4-.5.4s-.6-.1-1-.3c-.4-.2-.7-.3-.8-.4-.3.2-.6.4-1 .7-.4.3-.6.5-.8.6-.2.3-.3.7-.3 1.1 0 .2.1.4.3.5.2.1.3.3.3.6s-.1.5-.3.7c-.2.2-.5.3-.8.3H180c-.1 0-.1 0-.1-.1l-.2.1c0 .1-.1.3-.2.5s-.2.3-.2.4h3.8c.2 0 .3-.1.3-.2.1 0 .1-.1.2-.1 0-.1 0-.1.1-.1h.1c1.6-.6 2.9-1.4 3.9-2.4 1.1-1 2.2-2.2 3.3-3.6.1-.1.3-.3.5-.4.2-.2.3-.4.3-.5v-.1l-.4.2 1.1-2.2v-.1l.2-.4.3-.6.6-1.5.5-1.1.4-.8c0 .1.1.1.2.1s.2 0 .2-.1-.1-.1-.2-.1-.2 0-.2.1v-.2l.5-1.8c.1-.2.2-.4.3-.7.1-.3.2-.5.2-.6 0-.1 0-.2-.1-.2s-.1-.1-.1-.2c.1-.5.1-1 .2-1.3.1-.3.1-.6.2-.9.1-.3.2-.4.3-.5-.1-.5-.3-.9-.7-1.1-.4-.3-.8-.5-1.1-.8-.1-.1-.3-.4-.6-.8s-.4-.7-.5-.8c-.1-.1-.2-.2-.4-.3-.1-.1-.2-.2-.3-.5v-.1c.2-.2.4-.4.6-.8.3-.4.6-.7.9-1.1.3-.4.6-.7.9-.9.3-.2.7-.4 1-.4.4 0 .7.1 1 .3.2-.2.4-.4.4-.6 0-.2-.1-.3-.3-.4v-.5c0-1 0-2 .1-2.9.1-.6.1-1.3.1-1.9v-5c0-.3 0-.6-.1-.9-.1-.4-.1-1-.3-1.6-.1-.9-.4-1.5-.7-1.7-.4-.3-.9-.6-1.7-1 0-.2 0-.6-.1-1.3-.1-.7-.1-1.1-.1-1.3v-.3c0-.1.1-.2.3-.4 1-.1 1.9-.2 2.9-.2h2.9c.5-.8 1.3-1.5 2.3-1.9 1.1-.4 2-.9 2.7-1.2.1 0 .2-.1.4-.2s.3-.2.3-.3c.1 0 .2 0 .4-.1.1-.1.2-.1.4-.1V27c-.2.1-.5.2-.7.4-.2.1-.5.2-.8.2-.1 0-.2 0-.4-.1-.1-.1-.2-.1-.4-.1h-.1l-1.9.8h-.4c-.4 0-.9-.2-1.3-.5s-.7-.7-.7-1.2h.1v-.1c0-.1 0-.1-.1-.2s-.1-.1-.1-.2c-.1-.1 0-.3.1-.4.2-.2.3-.3.4-.3.3 0 .5.1.5.4 0 .2.2.4.5.4h.1l1.3-1c-.1-.1-.1-.1 0-.2.4-1 .9-1.6 1.3-2 .5-.4 1.2-.6 2.2-.7v-.6l.2-.2v-.1c0-.1 0-.2.1-.2s.1 0 .1.1l.3-.3c.4-.3.6-.5.7-.6.1-.1.1-.1.2-.3.1-.1.1-.2.2-.2-.1 0-.1 0-.1-.1l-.1-.1v-.5c0-.1.1-.2.1-.2.4 0 .7.2.9.5.3.3.5.7.8 1.1l.9 1.2c.3.4.7.6 1.1.8l-.2.2h.3c.1 0 .2 0 .2.1.1.1.2.1.4.3.3.3.6.7.9 1.2.3.4.5.9.8 1.3.3.4.5.6.8.6.2 0 .4-.2.4-.4s-.1-.3-.2-.4h.4c.4 0 .8.2 1.1.6.3.4.4.8.4 1.1 0 .5-.2.8-.7.9-.5.1-.9.2-1.2.2-.3 0-.6 0-1-.1s-.7-.3-.8-.6h-1.7c-.2 0-.5-.2-.9-.7-.4-.4-.6-.8-.6-1v-.2c0-.1 0-.1.1-.1.8.1 1.2-.2 1.2-.9 0-.4-.2-.5-.6-.5-.3 0-.5.2-.7.5-.2.3-.2.6-.2.9 0 .7.2 1.2.6 1.6.4.4.9.7 1.4 1 .5.3 1 .5 1.4.7.4.2.6.4.6.5.5 0 1 .2 1.7.7.6.4 1.1.8 1.4 1h4.8c.1 0 .3.2.5.5.2.4.3.6.3.8v2.5l-1.6 1.1c-.1 0-.2.2-.3.4-.2.3-.3.5-.3.7-.1.1-.2.3-.2.6v10.1l.3 3c.1.3.2.5.5.6.3.1.4.3.4.5h-.4c-.1.1-.3.1-.5.1s-.4.1-.4.1h1.2c.1.1.1.2.3.3.1.1.2.1.2.3h.4c-.1-.1-.2-.3-.2-.5V52c.5.4 1 .9 1.4 1.5.3.5.7 1 1.1 1.4l.1.3-.1.1c-.1.1-.2.2-.3.4-.1.2-.3.4-.4.7-.2.3-.3.5-.4.8-.2.2-.3.4-.3.4-.2.2-.4.4-.6.4-.2.1-.3.3-.3.6s0 .7.1 1v.1c.1.7.2 1.5.3 2.3.3 1.2.5 2.3.8 3.4.1.2.3.5.4.8 0 .1.1.1.2.2l1.6 3.6v.1c.1.3.3.6.5.9l.2.4c1.2 2.3 2.6 4.1 4.2 5.3 1.9 1.5 4.5 2.3 7.7 2.3h.8c0-.1 0-.1-.1-.3-.1-.1-.2-.2-.2-.3-.1-.1-.3-.1-.6-.1s-.5 0-.6-.1c-.4-.1-.7-.1-.8-.3-.1-.1-.2-.2-.2-.4 0-.1-.1-.3-.1-.4 0-.1-.1-.3-.3-.5l.4-.3v-.6c0-.6-.1-1-.3-1.3-.2-.2-.5-.5-1-.9 0-.1 0-.1-.1-.1s-.2 0-.2-.1h-.1c-.3 0-.6.1-.8.4-.2.2-.4.4-.7.5h-.1c-.4 0-.7-.1-.9-.3-.2-.2-.5-.4-.8-.6-.4-.2-.9-.4-1.7-.6-.8-.2-1.2-.7-1.2-1.3h.8c.3 0 .6-.1.8-.2h-1.1v-.1c0-.1 0-.1.1-.2h.4c-.2-.1-.4-.4-.4-.7v-.4c.4.1.6.3.6.6.1.3.3.4.6.4h.3c.2-.1.5-.3.9-.4.4-.2.6-.3.6-.4v-.9l.1.3.1-.2c0-.2-.1-.4-.2-.4v-2l.1-.3h-.1c-.1 0-.2.1-.4.2.2-1.8.8-3.3 2-4.5l.2-.2c.1-.1.1-.2.3-.3l.3-.3h.4c0-.2.2-.5.5-.7.3-.2.7-.4 1.2-.6.4-.2.9-.3 1.3-.4.4-.1.7-.2 1-.3.3-.1.4-.2.4-.5s.3-.4.9-.4v-.2l-.1-.1c0-.1.1-.2.3-.2.4 0 .8.2 1.2.6.4.4.7.7 1 .9.3.3.7.5 1.2.6.5.1.9.3 1.2.4.8.5 1.5 1 2.1 1.5.6.5 1.2 1.1 1.8 1.8.1-.1.2-.3.3-.4.1-.2.2-.3.4-.3.4 0 .6.1.8.4.1.2.3.5.4.8.1.3.2.5.3.8.1.2.2.4.4.4l.1-.2h.4c.5.1 1 .1 1.6.1-.1.3.2.6.2 1.3m-22.3 4.2c0-.1-.1-.2-.2-.2s-.1.1-.1.2 0 .2.1.2.2 0 .2-.2m.3-.1c0-.1-.1-.2-.2-.2s-.2.1-.2.2.1.2.2.2c.2-.1.2-.1.2-.2m-16.4-45.3c0 .1 0 .1.1.1s.2 0 .2-.1-.1-.1-.2-.1c0 0-.1 0-.1.1m-1.5.5c0 .1.1.1.2.1 0 .1.1.2.2.2s.1-.1.1-.2 0-.2-.1-.2c0-.1-.1-.1-.2-.1s-.2.1-.2.2m-.9 1.1c0 .1.1.1.2.1s.1 0 .1-.1 0-.1-.1-.1-.2 0-.2.1m-.3-.7c-.1 0-.1.1-.1.2s0 .2.1.2.2-.1.2-.2c0-.2-.1-.2-.2-.2m-.4-3c0 .1 0 .1.1.1s.2 0 .2-.1-.1-.1-.2-.1c-.1-.1-.1 0-.1.1m-11.2 2.9c0-.1 0-.1 0 0-.2-.1-.2-.1-.2 0 .2.1.2.1.2 0m.5 1.3c0-.1-.1-.1-.2-.1s-.1 0-.1.1 0 .1.1.1.2 0 .2-.1m0-1.4c0-.1-.1-.1-.2-.1s-.1 0-.1.1 0 .1.1.1c.1.1.2 0 .2-.1m.4-.2c0-.1 0-.1-.1-.1s-.2 0-.2.1.1.1.2.1.1 0 .1-.1m-7.6 5.5c.1 0 .2 0 .2-.1s-.1-.1-.2-.1-.2 0-.2.1c0 0 .1.1.2.1m.3 2.4c-.1 0-.1 0 0 0l-.1.2c.1 0 .1-.1.1-.2m-1.4 20.4c0-.1 0-.1-.1-.1s-.2 0-.2.1.1.1.2.1.1-.1.1-.1m.2-.4c.1 0 .2 0 .2-.1s-.1-.1-.2-.1-.2 0-.2.1.1.1.2.1m.5 2.4c0-.1-.1-.1-.2-.1s-.1 0-.1.1 0 .1.1.1c.1.1.2 0 .2-.1m.1-3.1c0-.1-.1-.2-.2-.2s-.2.1-.2.2.1.2.2.2c.2 0 .2-.1.2-.2m.9 2.8c0-.1-.1-.1-.2-.1 0-.1-.1-.1-.2-.1 0-.1 0-.1-.1-.1s-.2 0-.2.1.1.1.2.1c0 .1 0 .1.1.1 0 .1.1.1.2.1.2.1.2 0 .2-.1m.1.4l-.1-.2.1.2zm-10.8 17.8l.2-.1-.2.1zm-20.2-5.9c-.1-.1-.1-.1-.2 0s-.1.1 0 .2c.1-.1.2-.1.2-.2m3.2-1.7c0-.1 0-.1-.1-.1s-.2 0-.2.1.1.1.2.1.1 0 .1-.1m12.3 5.6c0-.1-.1-.1-.2-.1s-.1 0-.1.1 0 .1.1.1c.2 0 .2 0 .2-.1m-.2-5.1c.1 0 .1-.1.1-.2s0-.2-.1-.2-.2.1-.2.2.1.2.2.2m-.2 1.4l-.6.6v.1c.1 0 .2-.1.4-.2.1-.2.2-.3.3-.3v-.2h-.1zm.8 3c0-.1-.1-.1-.2-.1s-.2 0-.2.1.1.1.2.1c.1.1.2 0 .2-.1m.3-6.5c0-.1-.1-.1-.2-.1s-.1 0-.1.1 0 .1.1.1.2 0 .2-.1m.2 5c0-.1 0-.1-.1-.1s-.2 0-.2.1.1.1.2.1.1 0 .1-.1m0-.8h-.2c.1.1.1.1.2 0m0-4.1c0-.1 0-.1-.1-.1s-.2 0-.2.1.1.1.2.1.1 0 .1-.1m1.1 3c.1 0 .2 0 .2-.1s-.1-.1-.2-.1-.2 0-.2.1c0 0 .1.1.2.1m.3.2c0-.1 0-.2-.1-.2s-.2.1-.2.2.1.2.2.2c.1-.1.1-.1.1-.2m1.2 3.5c0-.1-.1-.2-.2-.2s-.1.1-.1.2 0 .2.1.2c.2 0 .2 0 .2-.2m.9-2.4c0-.1-.1-.2-.2-.2s-.1.1-.1.2 0 .2.1.2c.2 0 .2-.1.2-.2m-.2-3.6c-.1 0-.2 0-.2.1s.1.1.2.1.1 0 .1-.1l-.1-.1m-.1-.4c0-.1-.1-.2-.2-.2s-.1.1-.1.2 0 .2.1.2.2-.1.2-.2m-.2-.3c0-.1 0-.1-.1-.1s-.2 0-.2.1.1.1.2.1.1 0 .1-.1m-.2-.3s-.1 0 0 0 .1 0 0 0m-.3-.4c0 .1.1.2.2.2s.1-.1.1-.2 0-.2-.1-.2c-.2 0-.2.1-.2.2m-7.4-4.7c.2 0 .3-.1.4-.2.1-.1.1-.2.1-.3v-.1c-.1 0-.2.1-.2.2-.1.2-.2.3-.3.4m-4.2 2.2c0 .1 0 .1 0 0 .2.1.2 0 0 0 0-.1 0 0 0 0m-1 4.4c.1.4.3.9.5 1.3.2.5.4.9.7 1.3.3-1.4.9-2.7 1.8-3.8.9-1.1 2.2-1.6 3.7-1.6.7 0 1.3.1 1.8.4.5.3 1 .6 1.6.9.2.2.5.6 1.1 1.2.5.6.9 1 1 1.2l.6.6c.3.4.5.6.6.7l.1.1h.2l.2-.1v-1.6c0-.2-.1-.5-.3-.8-.1.1-.2.1-.4-.2 0-.1-.1-.2-.3-.5-.2-.3-.3-.5-.3-.6-.5-.8-1.1-1.5-1.8-2.1-.7-.6-1.6-.9-2.6-.9-.4 0-.6.2-.9.5-.2.4-.5.5-.9.5-.2 0-.5-.1-.9-.4-.4-.2-.6-.4-.8-.5h-.2c-1 .5-1.9 1-2.6 1.6-.7.6-1.3 1.4-1.9 2.4v.4zm3.8-1.6c-.1.1-.1.1 0 .2.1 0 .2-.1.2-.2-.1-.1-.2-.1-.2 0m-1.2 1.6c.1 0 .1 0 .1-.1s0-.1-.1-.1-.2 0-.2.1.1.1.2.1m-.2 0c-.1 0-.2.1-.2.2s.1.2.2.2.2-.1.2-.2 0-.2-.2-.2m-.6 10.9c0-.1-.1-.2-.2-.2s-.1.1-.1.2 0 .2.1.2c.2 0 .2-.1.2-.2m3.3 1.9c0-.1-.1-.1-.2-.1s-.2 0-.2.1.1.1.2.1c.2.1.2 0 .2-.1m.6-3.2c0-.1-.1-.1-.3.1v.1c.1-.2.1-.3.1-.5l-.1-.1c-.1-.1-.4-.3-.9-.6s-.8-.5-.9-.6l-4.4-4.3v.8c0 1.4.3 2.6.8 3.5.5 1 1.2 2 2.1 3l.2.2 3 1.4h.3v-.4c-.2-.1-.5-.3-.8-.4-.3-.2-.4-.4-.4-.8 0-.2.2-.4.7-.6.2-.1.3-.2.4-.3 0-.2.2-.3.2-.5m-.9.9c-.1 0-.1.1 0 0 .1.1.1.2.2.1.1 0 .1-.1 0-.1-.1-.1-.2-.1-.2 0m-.5-3.7c0-.1 0-.1-.1-.1s-.2 0-.2.1.1.1.2.1c.1.1.1 0 .1-.1m0 .1c-.1 0-.1 0-.1.1s0 .1.1.1.2 0 .2-.1-.1-.1-.2-.1m-.2-.1c0-.1 0-.1-.1-.1s-.2 0-.2.1.1.1.2.1l.1-.1m1.9 5.4c0-.1-.1-.1-.2-.1s-.2 0-.2.1.1.1.2.1c.2 0 .2 0 .2-.1m0-4.7c0-.1-.1-.1-.2-.1s-.2 0-.2.1.1.1.2.1c.2 0 .2 0 .2-.1m.4-4.5h1.4c.6-.4.9-.9.9-1.5 0-1.4-.7-2.1-2.2-2.1h-.9c-.4.2-.9.6-1.6 1.2-.6.6-.9 1.1-.9 1.6v2.4c.1.1.1.3.3.4.1.1.1.2.2.4.1.1.1.2.2.4.1.3.3.6.7 1 .3.4.7.5 1 .5h.1c-.4-.5-.6-1-.6-1.4 0-.1 0-.2.1-.4s.1-.3.1-.5c0-.1-.2-.4-.6-.8-.4-.4-.6-.9-.6-1.5 0-.5.2-.9.5-1.3s.7-.5 1.2-.5c.1 0 .3.1.6.3.3.2.4.4.3.5l-.3.3c-.1.1-.1.3-.1.5-.2.3 0 .5.2.5m-1.2 3c0-.1-.1 0 0 0-.1.1-.1.2 0 .2s.1-.1 0-.2c.1 0 .1 0 0 0M175 68c-.1 0-.2 0-.2.1s.1.1.2.1.2 0 .2-.1-.1-.1-.2-.1m1.7 5.9c0 .1 0 .2.1.2s.2-.1.2-.2-.1-.2-.2-.2-.1.1-.1.2m.4 1.3c0-.1 0-.2-.1-.2s-.2.1-.2.2.1.2.2.2c0 0 .1 0 .1-.2m.7-1.1l1.5-1.3.2-.3-.3.1v-.4c-.5.3-.9.5-1.2.8-.3.2-.6.6-.8 1 .2 0 .3.1.6.1zm.9-.3c0-.1 0-.1-.1-.1s-.2 0-.2.1.1.1.2.1c0 0 .1 0 .1-.1m.3-.6c.1 0 .2-.1.2-.2-.1-.1-.1-.1-.2 0v.2m2.1 6.7c0-.1 0-.1 0 0-.1-.1-.2-.1 0 0-.1.1-.1.1 0 0-.1.1 0 .1 0 0m6.9-.9c0-.1-.1-.1-.2-.1s-.2 0-.2.1.1.1.2.1.2-.1.2-.1m.1-2.1l-.3.2.3-.2zm.5 2.4c0-.1-.1-.2-.2-.2s-.1.1-.1.2 0 .2.1.2.2-.1.2-.2m.5-3.3c0-.1-.1-.1-.2-.1s-.1 0-.1.1 0 .1.1.1c.2 0 .2 0 .2-.1m1.4-1.8c0-.1-.1 0-.2.1-.1.2-.2.2 0 .2.1 0 .2-.1.2-.3m.4-.4c0-.1 0-.1-.1-.1s-.2 0-.2.1.1.1.2.1.1 0 .1-.1m1.1-2.1c-.1 0-.1 0 0 0-.1.1-.1.1 0 0zm.3-.5c-.1 0-.1 0 0 0-.1.2-.1.2 0 .2.1-.1.1-.2 0-.2m.2-.3c0-.1 0-.2-.1-.2s-.2.1-.2.2.1.2.2.2.1 0 .1-.2m-3.6 10.3c0-.1-.1-.2-.2-.2s-.1.1-.1.2 0 .2.1.2.2 0 .2-.2m1.1 4.7c0-.1-.1-.1-.2-.1s-.1 0-.1.1 0 .1.1.1c.2 0 .2-.1.2-.1m.7.9c0-.1 0-.2-.1-.2s-.1.1-.1.2h.2zm0-6.1c0-.1-.1-.1-.2-.1s-.1 0-.1.1 0 .1.1.1c.1.1.2 0 .2-.1m.4 7.1c.1 0 .1-.1.1-.2s0-.2-.1-.2-.2.1-.2.2.1.2.2.2m.4.2c0-.1 0-.2-.1-.2s-.2.1-.2.2.1.2.2.2c0 0 .1 0 .1-.2m.1-7.8c0-.1-.1-.2-.2-.2s-.1.1-.1.2 0 .2.1.2c.2 0 .2-.1.2-.2m.4 8.6c-.1 0-.1 0 0 0-.1.2-.1.2 0 .2v-.2zm0-8.8c0-.1-.1-.1-.2-.1s-.1 0-.1.1 0 .1.1.1c.1.1.2 0 .2-.1m2.7-14.9c.1 0 .1-.1 0-.2-.1.1-.1.1 0 .2-.1 0-.1 0 0 0m-.8 15.1c0 .1.1.2.2.2s.2-.1.2-.2-.1-.2-.2-.2c-.2 0-.2 0-.2.2m0 .8c0 .1.1.1.2.1s.2 0 .2-.1-.1-.1-.2-.1c-.2 0-.2 0-.2.1m0 1c.1-.1.2-.3.2-.4v-.1h-.2v.5zm0 6.5c.1 0 .2 0 .2-.1s-.1-.1-.2-.1-.1 0-.1.1c0 0 0 .1.1.1-.1 0-.1 0-.1.1s0 .1.1.1.2 0 .2-.1-.1-.1-.2-.1m-.3-.5c0 .1.1.2.2.2s.1-.1.1-.2 0-.2-.1-.2c-.1.1-.2.1-.2.2m.2-.6c.1 0 .1 0 0 0 .1-.1.1-.1 0 0-.1-.1-.1 0 0 0-.1.1-.1.1 0 0m.1-4.7c0-.1 0-.1-.1-.1-.1-.1-.1 0-.1.1s0 .2.1.2.1-.1.1-.2m-.1.9c-.1 0-.1 0 0 0-.1.1-.1.2 0 .2s.1-.1 0-.2c.1 0 .1 0 0 0m-.2-6.8l.2-.2h-.2v.2zm-.1 8.1c0 .4 0 .6.1.5.1-.1.1-.2.1-.5s0-.4-.1-.5c0-.1-.1 0-.1.5m-.2-8.5c.1 0 .1 0 .1-.1s0-.1-.1-.1-.2 0-.2.1c.1.1.1.1.2.1m0 2.2c0-.1 0-.1-.1-.1s-.1 0 0 .1h.1zm.1-1.1c.1 0 .1 0 0 0 .1-.1.1-.1 0 0 0-.2-.1-.2 0 0-.1 0 0 0 0 0m.2 9c-.1 0-.2.1-.2.2s.1.2.2.2v.1c0 .1.1.1.2.1s.1 0 .1-.1 0-.1-.1-.1v-.1c0-.2-.1-.3-.2-.3.1 0 .2 0 .2-.1s-.1-.1-.2-.1-.2 0-.2.1.1.1.2.1m0 5.4c.1 0 .2 0 .2-.1s-.1-.1-.2-.1c0 .1-.1.2-.2.2h.2m.3 0v.2-.2zm0-2.6c.1-.1.2-.2.2-.4h-.2v.4zm.3.6s-.1-.1 0 0h-.2c0 .1 0 .1.2 0-.1 0 0 0 0 0m0 2.6c0 .2.1.3.3.3v-.1c-.1-.1-.1-.1-.1-.2s-.1-.1-.1-.2v.2h-.1zm.6.5c0-.1 0-.2-.1-.2s-.2.1-.2.2.1.2.2.2c.1-.1.1-.1.1-.2m0-16.9c0-.1 0-.1-.1-.1s-.2 0-.2.1.1.1.2.1.1 0 .1-.1m0-1c-.1 0-.1 0 0 0-.1.2-.1.2 0 .2.1-.1.1-.1 0-.2m2.8 19.7c.1.1.1.1.3.1.1 0 .2 0 .2-.1.1-.1 0-.1-.2-.1s-.3 0-.3.1m-.8-.3c0 .1 0 .2.1.2s.2-.1.2-.2-.1-.2-.2-.2-.1.1-.1.2m-.6-.4c0 .1 0 .2.1.2s.2-.1.2-.2-.1-.2-.2-.2c-.1.1-.1.1-.1.2m.6-41.6c.2-.1.2-.2 0-.2v.2zm0 14.5c0-.1-.1-.1-.2-.1-.1-.1-.1 0-.1 0 0 .1 0 .1.1.1.1.1.2.1.2 0m-.5-11c0 .1.1.1.2.1s.1 0 .1-.1 0-.1-.1-.1-.2.1-.2.1m-.4.4c.1-.1.1-.1 0 0-.2-.1-.3-.1-.3 0 .3.1.3.1.3 0m-.8 6.5c0 .1 0 .2.1.2s.2-.1.2-.2-.1-.2-.2-.2c0 0-.1.1-.1.2m.1 11.2c-.2 0-.3.1-.3.3h.3v-.3zm0-.8c0-.1 0-.1-.1-.1s-.2 0-.2.1.1.1.2.1c.1.1.1 0 .1-.1m.3-8.3c0-.1 0-.1-.1-.1s-.2 0-.2.1.1.1.2.1.1 0 .1-.1m.2-3.8c0-.1-.1-.1-.2-.1s-.1 0-.1.1 0 .1.1.1c.1.1.2 0 .2-.1m0-.6v.3c.2-.2.2-.3 0-.3m.2-.8c0-.1 0-.1 0 0-.2-.1-.3-.1-.3 0 .1 0 .1.1.3 0 0 .1 0 0 0 0m0-1.2h.3c0-.1-.1-.2-.3-.4v.4zm.4 9.5c-.1 0-.1 0 0 0-.1.1-.1.2 0 .2s.1-.1 0-.2m0-.6c0 .1.1.1.2.1s.1 0 .1-.1 0-.1-.1-.1-.2 0-.2.1m.8-2.5c-.2.2-.3.4-.3.5v.1c.2-.2.3-.3.3-.4V65zm1.6-25.4c0 .1 0 .2.1.2.2-.2.2-.3-.1-.2.1-.1 0-.1 0 0m0 1.9c0 .4 0 .6.1.5.1-.1.1-.3.1-.5s0-.3-.1-.4c0-.2-.1 0-.1.4m0 1.6c0 .1.1.2 0 0 .3.1.3 0 .1-.2 0 0-.1.1-.1.2m-1.3-2.2c0 .1 0 .2.1.2s.2-.1.2-.2-.1-.2-.2-.2-.1.1-.1.2m0 6.2c0 .1 0 .2.1.2s.2-.1.2-.2-.1-.2-.2-.2c-.1.1-.1.1-.1.2m0-.9V46c-.1-.1-.1 0-.1.1s0 .1.1.1m.1-1.5c.2 0 .2-.1 0-.2-.1 0-.1.1 0 .2-.1 0-.1 0 0 0m.1-.7c0-.1-.1-.1-.2-.1s-.1 0-.1.1 0 .1.1.1c.2 0 .2 0 .2-.1m0-.6c0-.1-.1-.2-.2-.3-.1-.1-.1 0-.1.3 0 .2 0 .3.1.3.2-.1.2-.2.2-.3m-.2-.9c.1 0 .1 0 0 0v-.3c-.1 0-.1.1 0 .3m-.1-1c0 .1 0 .1 0 0s0-.1 0 0m-.1.5l.2.1V42h-.2zm0 6.3c0 .1.1.2.2.2s.1-.1.1-.2 0-.2-.1-.2-.2.1-.2.2m.1 1.5c0-.2 0-.3-.1-.4-.1-.1-.1.1-.1.4 0 .3 0 .5.1.4.1 0 .1-.2.1-.4m.3 12.1c0-.1-.1-.1-.2-.1s-.1 0-.1.1 0 .1.1.1c.2 0 .2 0 .2-.1m.2-1.2c0-.1-.1-.1-.2-.1s-.2 0-.2.1.1.1.2.1c.2 0 .2 0 .2-.1m.3-1.8c0-.1-.1-.1-.2-.1s-.1 0-.1.1 0 .1.1.1.2 0 .2-.1m0-.3c0-.1 0-.1 0 0-.2-.1-.2-.1-.2 0s0 .1.2 0c0 .1 0 .1 0 0m0-.6c0-.1-.1-.1-.2-.1s-.1 0-.1.1 0 .1.1.1c.1.1.2 0 .2-.1m.1-1.2c0-.2 0-.4-.1-.4-.1-.1-.1.1-.1.4 0 .4 0 .5.1.4.1 0 .1-.2.1-.4m.5-7.9c-.1-.1-.1 0-.1.1s0 .2.1.1c.2-.1.2-.2 0-.2m.3-2.5c0-.1-.1-.1-.2-.1s-.1 0-.1.1 0 .1.1.1.2 0 .2-.1m-.2-.4c.1-.3.1-.5 0-.6-.1-.1-.1 0-.1.2s.1.4.1.4m.2-2.2c0-.1-.1-.2-.2-.2s-.1.1-.1.2 0 .2.1.2.2 0 .2-.2m.3-7.9c0-.1 0-.2-.1-.2-.1-.1-.1 0-.1.2s0 .2.1.2c0-.1.1-.1.1-.2m0-.6c0-.1 0-.2-.1-.2s-.2.1-.2.2.1.2.2.2c0 0 .1-.1.1-.2m.3-1.6c0-.1-.1-.1-.2-.1s-.2 0-.2.1.1.1.2.1c.2 0 .2 0 .2-.1m0-.5c0-.1-.1-.1-.2-.1s-.2 0-.2.1.1.1.2.1c.2.1.2 0 .2-.1m2.8 53.7c-.1 0-.1 0 0 0-.1.1-.1.2 0 .2.1-.2.1-.2 0-.2m0-1.2c0-.1 0-.2-.1-.2-.1-.1-.1 0-.1.2s0 .3.1.3c.1-.1.1-.2.1-.3m0-.6c0-.1 0-.2-.1-.2s-.2.1-.2.2.1.2.2.2.1-.1.1-.2m.6-6.1c0-.1-.1-.1-.2-.1s-.1 0-.1.1 0 .1.1.1c.2 0 .2-.1.2-.1m-1.7 18.3c0-.1 0-.1 0 0-.2-.1-.2-.1-.2 0 .2.1.2.1.2 0m.5 1.3c0-.1-.1-.1-.2-.1s-.1 0-.1.1 0 .1.1.1.2-.1.2-.1m0-1.4c0-.1-.1-.1-.2-.1s-.1 0-.1.1 0 .1.1.1.2 0 .2-.1m.4-.3c0-.1 0-.1-.1-.1s-.2 0-.2.1.1.1.2.1c.1.1.1 0 .1-.1m2 2.7c0-.1-.1-.2-.2-.2s-.2.1-.2.2.1.2.2.2.2-.1.2-.2m1.7-1c0-.1 0-.1-.1-.1s-.2 0-.2.1.1.1.2.1.1-.1.1-.1m-3 5l.4-.4c-.1.1-.2.1-.2.2l-.2.2m.7 2.4c0-.1-.1-.1-.2-.1s-.1 0-.1.1 0 .1.1.1.2 0 .2-.1m.2.3c0-.1 0-.2-.1-.2s-.2.1-.2.2.1.2.2.2.1-.1.1-.2m2-1.1s0-.1 0 0c-.2-.1-.2-.1-.2 0s.1.1.2 0c0 .1 0 .1 0 0m7.3-2c0 .1 0 .1.1.1s.2 0 .2-.1-.1-.1-.2-.1c0 0-.1 0-.1.1m-.3.3c0-.1-.1-.1-.2-.1s-.1 0-.1.1 0 .1.1.1.2 0 .2-.1m-.3-.2c.1 0 .1 0 .1-.1s0-.1-.1-.1-.2 0-.2.1.1.1.2.1m-.8 4.7c0 .1.1.1.2.1s.2 0 .2-.1-.1-.1-.2-.1c-.1-.1-.2 0-.2.1m3.9-11.5c0 .1 0 .1.1.1s.2 0 .2-.1-.1-.1-.2-.1c0 0-.1 0-.1.1m-1.5.4c0 .1.1.1.2.1 0 .1.1.2.2.2s.1-.1.1-.2 0-.2-.1-.2c0-.1-.1-.1-.2-.1l-.2.2m-.9 1.2c0 .1.1.1.2.1s.1 0 .1-.1 0-.1-.1-.1-.2 0-.2.1m-.3-.8c-.1 0-.1.1-.1.2s0 .2.1.2.2-.1.2-.2-.1-.2-.2-.2m-.4-3c0 .1 0 .1.1.1s.2 0 .2-.1-.1-.1-.2-.1-.1.1-.1.1m6.5-28.5zm-2.3 27.6c0-.1-.1-.1-.2-.1s-.1 0-.1.1c0 .2.1.2.3 0m2.1-.3c0-.1-.1-.1-.2-.1s-.1 0-.1.1 0 .1.1.1.2 0 .2-.1m.4-.3l-.3.2h.1c.2 0 .2-.1.2-.2m1.1-.6c-.3 0-.5.2-.8.5l.8-.5zm.3-.3v-.1h-.1c-.1 0-.1 0-.1.1.1.1.2.1.2 0m.6-.7c0-.1-.1-.1-.2-.1s-.1 0-.1.1 0 .1.1.1c.1.1.2 0 .2-.1m.2-.6l-.2.3.2-.3zm.2-.8c-.1 0-.1.1-.1.2s0 .2.1.2c.2-.1.2-.2 0-.4m.6-2.1c0-.1 0-.2-.1-.3-.1 0-.1.1-.1.3 0 .2 0 .2.1.2 0 0 .1-.1.1-.2m6.2-4.8h.2v-.1l-.2.1zm-.4.1c0 .1.1.1.2.1s.2 0 .2-.1-.1-.1-.2-.1c-.2 0-.2 0-.2.1m-.5.6h.7-.6c0-.1-.1-.1-.1 0m-.7.4l-.2.2h.5c-.1 0-.1 0-.2-.1 0-.1 0-.1-.1-.1m-.4-3.5c0 .1.1.1.2.1s.1 0 .1-.1 0-.1-.1-.1c-.2 0-.2 0-.2.1m-.9 1c0 .1 0 .1 0 0 .1.1.1.1 0 0 .1 0 .1-.1 0 0 0-.1 0 0 0 0m-2-1.3c0 .1.1.2.2.2s.2-.1.2-.2-.1-.2-.2-.2-.2 0-.2.2m-.1-.3c0 .1 0 .1 0 0 .1.1.1.1 0 0 .2-.1.2-.1 0 0 .1-.1 0-.1 0 0M223 55c0-.1-.1-.2-.2-.2s-.2.1-.2.2.1.2.2.2.2-.1.2-.2m-.5-1.8c0 .1 0 .2.1.2s.2-.1.2-.2-.1-.2-.2-.2c0 0-.1.1-.1.2m-.1 1.4l-.1.2v.1l.3-.3h-.2zm-.5-.5c0 .1.1.2.2.2s.2-.1.2-.2-.1-.2-.2-.2-.2.1-.2.2m-.4 1.6c.1 0 .1-.1.2-.2s.2-.2.2-.3v-.1l-.4.6zm-.3.3c0 .1 0 .1.1.1s.2 0 .2-.1-.1-.1-.2-.1-.1.1-.1.1m.1 9.8c.1 0 .2 0 .2-.1s-.1-.1-.2-.1v.2zm0-4.2v-.2h-.9v.4h.7c0-.2.1-.2.2-.2m-.4-5.3c0 .1 0 .1.1.1s.2 0 .2-.1-.1-.1-.2-.1c0 0-.1 0-.1.1m-.2 1.3l.3-.4h-.3v.4zm-.2 2.3c-.1 0-.3-.1-.5-.1v.1c0 .3.2.4.7.4 0-.2 0-.4-.2-.4m-1.9-10.4c-.1 0-.1.1-.1.2s0 .2.1.2.2-.1.2-.2c0-.2-.1-.2-.2-.2m-.9 8.2c0 .1 0 .1 0 0 .1.1.2.1.2 0 .1-.1 0-.1 0-.1-.2 0-.2 0-.2.1m0-.1c.1 0 .2-.1.2-.2s-.1-.2-.2-.2-.1.1-.1.2c0 .2 0 .2.1.2m.2 1.2h.2c0-.1-.1-.1-.2 0 0-.1 0-.1 0 0m1.7-2.3v-.4c-.1.4-.2.6-.2.6h.3c0-.1-.1-.2-.1-.2m-.6-3.7l.3-.3c.1-.1.2-.1.3-.2h-.6v.5zm.5 4.5c.1.1.1.2.1.4v.5-.1c0-.1 0-.1.1-.2 0-.1 0-.1.1-.2l.3-.1c.1-.4-.1-.6-.6-.6v.3zm.3 1.7h.2l-.2-.2v.2zm.2-6.7c-.1 0-.2.1-.2.2s.1.2.2.2.1-.1.1-.2 0-.2-.1-.2m-.5-18.5c0 .1.1.1.2.1s.2 0 .2-.1-.1-.1-.2-.1c-.2 0-.2.1-.2.1m-.5.8c.2 0 .3-.1.2-.2l-.2.2zm-.5.9c0 .1 0 .2.1.2s.2-.1.2-.2-.1-.2-.2-.2-.1.1-.1.2m0 .5c-.1 0-.1 0-.1.1s0 .1.1.1.1 0 .1-.1c0 0 0-.1-.1-.1.1 0 .1 0 .1-.1s0-.1-.1-.1-.1 0-.1.1 0 .1.1.1m-.1.8l.1-.2h-.1v.2zm-.3 2.8c0 .1 0 .1.1.1s.2 0 .2-.1-.1-.1-.2-.1c-.1-.1-.1 0-.1.1m-.8.3c0 .1 0 .1.1.1s.2 0 .2-.1-.1-.1-.2-.1c0 0-.1 0-.1.1m-.9-2.9c0 .1 0 .1 0 0 .1.1.2.1.2 0h-.2m.1 1.9v.2l.2-.2h-.2zm-5.4-9.8h.3c.1-.1 0-.2-.1-.2-.2.1-.3.1-.2.2m-.5.3c0 .1 0 .1.1.1s.2 0 .2-.1-.1-.1-.2-.1c0-.1-.1 0-.1.1m-.6-1c0 .2.1.2.2 0h-.2zm-.7-.4c0 .1.1.1.2.1 0 .1 0 .2.1.2s.2-.1.2-.2-.1-.2-.2-.2c0-.1 0-.1-.1-.1-.2.1-.2.1-.2.2m-1.1-6.1c0 .1.1.1.2.1s.2 0 .2-.1-.1-.1-.2-.1-.2.1-.2.1m0 4.5l.2.2v-.2h-.2zm-1.4 3.1c-.1.1 0 .3.4.7.4.3.6.5.6.6.1.1.1.2.3.4.1.2.2.4.2.5h.4l-.1-.2c0-.2.1-.5.3-.7.2-.2.4-.4.7-.6.2-.2.5-.4.7-.5.2-.2.3-.3.3-.4h-.1c-.1-.1-.3-.3-.5-.4-.2-.2-.4-.3-.4-.4-.1-.1-.3-.2-.4-.5-.1-.3-.3-.3-.4-.2l-2 1.7zm2.3 5.2c0 .1.1.1.2.1s.2 0 .2-.1-.1-.1-.2-.1-.2.1-.2.1m0-.4c.1 0 .1-.1 0 0 .1-.1.1-.1 0 0-.1-.1-.1-.1 0 0-.1 0-.1 0 0 0m.2.7c0 .1.1.1.2.1s.1 0 .1-.1 0-.1-.1-.1c-.2 0-.2 0-.2.1m.3-4.5c0-.1 0-.1-.1-.1s-.2 0-.2.1.1.1.2.1l.1-.1m-.8 9.8c-.1 0-.2.1-.2.2s.1.2.2.2.2-.1.2-.2c0-.2 0-.2-.2-.2m-.5 1c-.1.1-.2.1-.3.1-.1 0-.1 0-.1.1l.2.3c.1-.1.2-.2.2-.5zm-.8-6.7c0 .1.1.1.2.1s.1 0 .1-.1 0-.1-.1-.1c-.1-.1-.2 0-.2.1m.2-.3l-.2-.1v.1h.2zm-.6 5.6c0 .1.1.1.2.1s.2 0 .2-.1-.1-.1-.2-.1-.2 0-.2.1m.4-4.2v-.2l-.2.3v.2l.2-.3c-.1 0-.1 0 0 0m-.9-9.1c0 .1.1.1.2 0 0-.1-.1-.1-.2 0 0-.1 0-.1 0 0m.2-.2c.1 0 .1 0 .1-.1s0-.1-.1-.1-.2 0-.2.1c0 0 .1.1.2.1m-.2 6.6c0 .1.1.1.2.1s.1 0 .1-.1 0-.1-.1-.1c-.1-.1-.2 0-.2.1m.3-7.1c.2 0 .3-.1.3-.3 0-.3 0-.7-.1-1.1-.1-.4-.3-.6-.7-.6-.4 0-.6.3-.6.9 0 .2.2.4.5.5.2.3.4.4.6.6m-.4 7.3c0 .1 0 .1.1.1s.2 0 .2-.1-.1-.1-.2-.1-.1 0-.1.1m0 .2c-.1 0-.2.1-.2.2s.1.2.2.2.1-.1.1-.2c0-.2 0-.2-.1-.2m-1-5.8c0 .1.1.1.2.1s.1 0 .1-.1 0-.1-.1-.1-.2 0-.2.1m-1.8 1c0 .1.1.2.2.2s.2-.1.2-.2-.1-.2-.2-.2-.2.1-.2.2m-.7 28c-.1 0-.1.1-.1.2s0 .2.1.2c.1-.1.1-.3 0-.4m.5 2.9c0-.1-.1-.2-.2-.2s-.1.1-.1.2 0 .2.1.2.2-.1.2-.2m0-.6h-.3l.1.4.2-.4zm.6-4.1c-.1-.1-.1-.2-.2-.2s-.2-.1-.2-.1l-.2.4h.6zm1.6 9.9c-.1 0-.1 0 0 0-.1.2-.1.2 0 .2.1-.2.1-.2 0-.2m.9 1.3c0-.1 0-.1-.1-.1s-.2 0-.2.1.1.1.2.1.1 0 .1-.1m.4 1.1c.1 0 .1-.1.1-.2s0-.2-.1-.2c0-.1-.1-.1-.2-.1s-.1 0-.1.1 0 .1.1.1c.1.2.1.3.2.3m.3.1l-.2-.1v.1h.2zm.2.6v-.3h-.2l.2.3zm-2.9 6.1c0 .1.1.2.2.2s.2-.1.2-.2-.1-.2-.2-.2-.2.1-.2.2m-.4.8c0 .1.1.1.2.1s.2 0 .2-.1-.1-.1-.2-.1c-.2-.1-.2 0-.2.1m-.7 12.8c0 .1.1.1.2.1s.1 0 .1-.1 0-.1-.1-.1c-.2-.1-.2 0-.2.1m-.2.7c.1 0 .2-.1.2-.2s-.1-.2-.2-.2-.1.1-.1.2c0 .2 0 .2.1.2m.4.4c0-.1 0-.1-.1-.1s-.2 0-.2.1.1.1.2.1c.1.1.1 0 .1-.1m.2-.6v-.2c.1 0 0-.1-.2-.3l-.1.3.3.2zm.2.4c.1 0 .1-.1.1-.2s0-.2-.1-.2-.2.1-.2.2.1.2.2.2m.1.4c.1 0 .2 0 .2-.1s-.1-.1-.2-.1-.1 0-.1.1c0 0 0 .1.1.1m.2.5c0 .1.1.1.2.1s.1 0 .1-.1 0-.1-.1-.1c-.2-.1-.2 0-.2.1m.4.1c0-.1-.1-.1-.2-.1s-.1 0-.1.1 0 .1.1.1c.1.1.2 0 .2-.1m3.9 3.5c0-.1-.1-.1-.2-.1s-.1.1-.1.1l.2.1s.1 0 .1-.1m-.4 4.4l.2.2v-.2h-.2zm-1.3-.4c.2 0 .3-.1.3-.3 0-.3 0-.7-.1-1.1-.1-.4-.3-.6-.7-.6-.4 0-.6.3-.6.9 0 .2.2.4.5.5l.6.6m-.1.4c.1 0 .1 0 .1-.1s0-.1-.1-.1-.2 0-.2.1.1.1.2.1m-.1.1c-.1 0-.1.1 0 0-.1.2 0 .2 0 0 .1.1 0 0 0 0m-.1 7.1c0-.1 0-.2-.1-.2s-.2.1-.2.2.1.2.2.2.1-.1.1-.2m.2-.3c0-.1-.1-.1-.2-.1s-.1 0-.1.1 0 .1.1.1.2 0 .2-.1m.1-.3c0-.1 0-.1-.1-.1s-.2 0-.2.1.1.1.2.1c0 .1.1 0 .1-.1m.6 7c0-.1-.1-.1-.2-.1s-.2 0-.2.1.1.1.2.1.2 0 .2-.1m0-4.4l-.2.3v.2l.1-.2c0-.1 0-.1.1-.1v-.2zm.3-1c0-.1 0-.1-.1-.1s-.2 0-.2.1.1.1.2.1c0 .1.1 0 .1-.1m-.1-.3l-.2-.1v.1h.2zm.7 7.1h-.2c-.1.1-.1.1-.2.1s-.1 0-.1.1l.2.3c.1-.1.2-.3.3-.5m.6-.9c0-.1-.1-.2-.2-.2s-.2.1-.2.2.1.2.2.2c.2 0 .2-.1.2-.2m.1-6.2c.1 0 .1 0 0 0 .1-.1.1-.1 0 0-.1-.1-.1 0 0 0-.1.1-.1.1 0 0m0 .5c0 .1.1.1.2.1s.2 0 .2-.1-.1-.1-.2-.1-.2 0-.2.1m.5.3c0-.1 0-.1-.1-.1s-.2 0-.2.1.1.1.2.1c0 0 .1 0 .1-.1m0-4.6c0-.1 0-.1-.1-.1s-.2 0-.2.1.1.1.2.1c0 .1.1 0 .1-.1m.8 6c0 .1.1.2.2.2s.1-.1.1-.2 0-.2-.1-.2-.2 0-.2.2m.7-7.3h.3c.1-.1 0-.2-.1-.2-.2 0-.3.1-.2.2m-.5.2c0 .1 0 .1.1.1s.2 0 .2-.1-.1-.1-.2-.1l-.1.1m-.6-.9c0 .2.1.2.2 0h-.2zm-.5-.1c-.1-.1-.3-.2-.4-.5-.1-.3-.3-.3-.4-.2l-1.9 1.9c-.1.1 0 .3.4.7.4.3.6.5.6.6.1.1.1.2.3.4.1.2.2.4.2.5h.4l-.1-.2c0-.2.1-.5.3-.7.2-.2.4-.4.7-.6.2-.2.5-.4.7-.5.2-.2.3-.3.3-.4h-.1c-.1-.1-.3-.3-.5-.4-.3-.4-.5-.5-.5-.6m0-.2c0 .1 0 .2.1.2s.2-.1.2-.2-.1-.2-.2-.2c0-.1 0-.1-.1-.1s-.2 0-.2.1c0 .2 0 .2.2.2m2.9-9.7c0-.1 0-.1-.1-.1s-.2 0-.2.1.1.1.2.1c.1.1.1 0 .1-.1m.3-.8c0-.1 0-.1-.1-.1s-.2 0-.2.1.1.1.2.1c0 .1.1 0 .1-.1m.5-1.5l-.3.7c.2-.1.3-.3.3-.7zm.3-.5c0-.1-.1-.2-.2-.2s-.1.1-.1.2 0 .2.1.2.2-.1.2-.2m.1-.9c0-.1 0-.1-.1-.1s-.2 0-.2.1.1.1.2.1c0 0 .1 0 .1-.1m.1-1.9c0 .1.1.2.2.2s.1-.1.1-.2 0-.2-.1-.2c-.2 0-.2 0-.2.2m-.2-2.9c-.1 0-.2 0-.2.1s.1.1.2.1.1 0 .1-.1-.1-.1-.1-.1m-.2-.9v-.5l-.1.2c-.1.2 0 .3.1.3m0-.9c0-.1 0-.1-.1-.1s-.2 0-.2.1.1.1.2.1c.1.1.1 0 .1-.1m-.4-.6c0 .1 0 .1.1.1s.2 0 .2-.1-.1-.1-.2-.1c0 0-.1 0-.1.1m-.2-.6h.2s-.1-.1-.2 0zM212 76c0 .1.1.1.2 0v-.1c-.2 0-.2 0-.2.1m-.7-1.5c0 .1.1.1.2.1s.1 0 .1-.1 0-.1-.1-.1-.2 0-.2.1m.3.5c-.1 0-.1 0-.1.1s0 .1.1.1.2 0 .2-.1-.1-.1-.2-.1m-2.1-4.2c-.1-.2-.2-.4-.2-.5l-.2-.2c.1.3 0 .6-.4.8 0 0-1.3 1-1.9 2.1 0 .1-.1.2-.1.2l-.4.9c-.5 1.4-1.2 3.4-1.2 3.4-.3.8-.6 1.6-.8 2.5-.4 1.6-.6 3.2-.6 4.8 0 .3 0 .7.1 1.2s.1 1 .2 1.4c.1.5.2.9.4 1.3.1.4.3.7.6.9l.5.5c.2.2.3.4.4.5l1.2 1.1c.3-.3.6-.5.7-.6.1-.1.1-.1.2-.3.1-.1.1-.2.2-.2-.1 0-.1 0-.1-.1l-.1-.1v-.5c0-.1.1-.2.1-.2.4 0 .7.2.9.5.3.3.5.7.8 1.1.1.1.1.2.2.3l.5-.5c.1 0 .1-.1.2-.1l.9-.9c.1 0 .2-.1.4-.4-.1-.1-.1-.1-.1-.2-.1-.1-.1-.1-.1-.2.1-.3.3-.6.4-.9.2-.3.3-.7.4-1 .1-.1.2-.5.4-1.1.2-.6.3-1 .3-1.1.1 0 .2-.1.2-.3.1.1.2.2.4.2h.1c-.1-.1-.2-.2-.2-.4s0-.3.1-.4c.1-.1.1-.2.1-.3-.2 0-.4.1-.6.4v-.9c0-.4-.1-.9-.1-1.3 0-.5-.1-.9-.1-1.3V80c0-.1 0-.2-.1-.4s-.1-.5-.2-.7c-.1-.2-.1-.5-.2-.7-.1-.2-.1-.3-.1-.4v-.5l.2.2v-.4l-.3.2v-1l-.2-.2v.6l-.7-1.4s-.5-1.3-.7-2h.1c.1 0 .2 0 .2-.1s-.1-.1-.2-.1-.1 0-.2.1v-.1c.1-.1.1-.2 0-.2l-.1.1v-.1c.1-.1.1-.2 0-.2 0-.1 0-.2-.1-.2 0-.1-.1-.2-.1-.2 0-.1 0-.1-.1-.2l-.1-.1v-.1c0-.1 0-.2-.1-.2h-.1l-.6-.9zm-.8-3.9c.1 0 .2 0 .2-.1s-.1-.1-.2-.1-.1 0-.1.1 0 .1.1.1m.9-1.4c.1 0 .2-.1.2-.1v-.1c0-.1-.1-.1-.2-.1s-.1.1-.1.2c0 0 0 .1.1.1m2.6-7.4c-.1-.7-1.2-1.9-3.9-1.8-3 .1-3.2 2.2-3.3 2.9.1 1 .2 1.9.4 2.3l2.4 4.2c0 .1 0 .3.1.4.1.3.3.5.5.6.4-.3.7-.6.8-.8.1-.2.2-.5.2-.8l.3-.5.3-.5.1-.1.6-.9.6-.9h.1c.2-.5.4-1 .8-1.7.3-.7.3-1.6 0-2.4m.3-2.1c.1 0 .2 0 .2-.1s-.1-.1-.1-.1l-.1.2m.3 1.6c-.1 0-.1 0 0 0-.1.1-.1.2-.1.2.1 0 .1 0 .1-.2m4.5-5.4c-.1-.2-.1-.6-.2-1.2s-.1-.9-.2-1.1c-.1-.2-.1-.4-.2-.4-.1-.1-.1-.2-.1-.4s.1-.4.3-.4l-.1-2.3-.1-2.2v-.9l-.1-1.3v-.2c.1 0 .2-.1.2-.1v-.2c-.1-.1-.1-.2-.1-.4 0-.1 0-.1-.1-.3h-.1v-.4c.1-.1.1-.2.1-.3v-.2l-.1.2h-.2c0-.2 0-.7-.1-1.3-.1-.6-.1-1.2-.2-1.9s-.2-1.3-.2-1.9c-.1-.6-.1-1-.1-1.2v-.4c0-.1 0-.2.1-.3.1-.1.1-.2.1-.3v-.1l-.3.2c-.1-.1-.2-.3-.2-.4.1 0 .1 0 .1-.1l.1-.1v-.1c-.5-.5-.9-.8-1.3-1-.4-.2-.9-.3-1.6-.3-.5 0-1 .2-1.5.5s-.7.8-.7 1.5c0 .3.1.6.2.9.1.3.4.4.8.4.7 0 1-.4 1-1.1 0-.2-.1-.4-.3-.8.1-.2.3-.3.6-.3.6 0 1 .3 1.3.8.3.5.4 1 .4 1.5v.6c0 .1-.1.3-.2.5v2.2c0 .2-.1.4-.3.6-.2.2-.4.3-.5.3-.2 0-.5-.2-.9-.6-.4-.4-.8-.7-1.1-.8v-.2h-.3l.1-.3h-.4l.2.1-.2.2c.1.1.3.4.4.8.2.4.3.7.4.8v.4c0 .4-.1.7-.3.8-.2.1-.5.2-.9.2-.1.2-.3.7-.6 1.4s-.5 1.2-.6 1.4l-.1.3c-.8-.2-1.3-.8-1.5-1.8h.2c0-.5-.2-.8-.7-.9-.5-.1-.9-.3-1.2-.7l.4-.4-.2-.9-.3.2c.2-.2.3-.4.4-.7.1-.3.2-.5.4-.7-.8.2-1.4.6-2 1.3-.4-.1-.8-.3-1.1-.5-.3-.2-.4-.6-.4-1.1v-.5c0-.1.1-.3.2-.6l-.7-.9c.1-.1 0-.2 0-.2-.1 0-.1-.1-.1-.2h-.1v-.9l.1.1v-.1c0-.2 0-.3-.1-.4.1-.2.3-.5.5-.7.2-.2.5-.3.8-.3.2 0 .4.1.6.3.2.2.3.4.3.6-.1.1-.1.2-.2.4s-.2.3-.2.3c.2.4.6.5 1 .5.5 0 .8-.2 1.1-.5.2-.3.4-.7.4-1.2 0-.3-.1-.5-.2-.6-.1-.1-.3-.4-.5-.7-.1-.2-.4-.4-.7-.4h-.9c-1 0-1.7.4-2.2 1.3-.5.8-.8 1.8-1 2.9-.2 1.1-.3 2.2-.3 3.3v2l-.1 6.7c0 .3 0 .6-.1 1-.1.7-.1 1.3-.1 2v3h4.9l5.8-.2h6.2v-.6zm-11.7-18s-.1 0 0 0c-.1.2-.1.2 0 .2.1-.1.1-.1 0-.2.1 0 .1 0 0 0m-2.4.8c0 .1 0 .1.1.1s.2 0 .2-.1-.1-.1-.2-.1-.1 0-.1.1m0-2.8c-.1.1-.2.1-.2.2s-.1.2-.1.2c.1 0 .2-.2.3-.4m.3 3.1c0 .1.1.2.2.2s.1-.1.1-.2 0-.2-.1-.2c-.2 0-.2.1-.2.2m7.1 1.3c.1 0 .1-.1.1-.2s0-.2-.1-.2-.2.1-.2.2.1.2.2.2m1.2.5c.1 0 .2 0 .2-.1s-.1-.1-.2-.1-.2 0-.2.1.1.1.2.1m.6-4.6c0 .1 0 .1.1.1s.2 0 .2-.1-.1-.1-.2-.1-.1 0-.1.1m0-.1c.1 0 .1 0 .1-.1s0-.1-.1-.1-.2 0-.2.1c0 0 .1.1.2.1m.7 0c.1 0 .2 0 .2-.1s-.1-.1-.2-.1-.1 0-.1.1l.1.1m2.7.7l.2.3v-.3h-.2zm1.7 23.8c0 .1 0 .1 0 0 .2 0 .2-.1 0 0 0-.1 0-.1 0 0m.4 1.3c0-.1-.1-.1-.2-.2s-.1 0-.1.1c0 .2 0 .2.1.1h.2m.2.8s-.1 0 0 0c-.2-.1-.2-.1-.2 0 .1.2.2.2.2 0m0 1.2l-.1.4v-.2c.1-.1.1-.1.1-.2m.4 4c0 .1 0 .1.1.1s.2 0 .2-.1-.1-.1-.2-.1-.1 0-.1.1m.4.3c0-.1-.1-.2-.2-.2s-.2.1-.2.2.1.2.2.2c.2 0 .2-.1.2-.2m0-12.8c-.1-.1-.1 0-.1.2s0 .3.1.3c.2-.2.2-.4 0-.5m-.1-.9c.1 0 .2 0 .2-.1s-.1-.1-.2-.1-.2 0-.2.1.1.1.2.1c-.1 0-.2 0-.2.1s.1.1.2.1.2 0 .2-.1c-.1 0-.1-.1-.2-.1m.1-.7c0-.1 0-.1 0 0-.1-.1-.2-.1-.2 0 .2.1.2.1.2 0m.1 12c0 .1.1.1.2.1s.2 0 .2-.1-.1-.1-.2-.1-.2 0-.2.1m.2 5.7c.2-.2.2-.3 0-.3-.1-.1-.1 0-.1.1 0 .2.1.2.1.2m.2.9c.1-.1.1-.1.1-.3 0-.1 0-.2-.1-.2-.1-.1-.1 0-.1.2 0 .3 0 .4.1.3m.3.7c0-.1-.1-.2-.2-.2s-.1.1-.1.2 0 .2.1.2.2-.1.2-.2m.1 1c0 .1 0 .1.1.2l-.1-.2c.1-.2 0-.4-.1-.5v.3c0 .1 0 .2.1.2m0 .7c.1 0 .1.1 0 0 .1.2.1.3.2.3v-.2c0-.1-.1-.2-.2-.3v.2zm.1.7s.1 0 0 0c.1-.1 0-.1 0 0m.2.9c.1 0 .2 0 .2-.1s-.1-.1-.2-.1-.1 0-.1.1.1.1.1.1m.2.8c.1 0 .1-.1 0 0 .1-.1.1-.2 0-.2s-.1 0 0 .2c-.1 0-.1 0 0 0m.1.7c.1-.1.2-.1.2-.3 0-.1-.1-.2-.2-.3v.6zm.3.7c0-.1-.1-.1 0 0-.1-.1-.2-.1-.2 0 0 0 0 .1.2 0-.1.1 0 0 0 0m0-11.3c0 .4.1.6.3.7v-.7c0-.2-.1-.3-.3-.3v.3zm.4 1.3c-.1-.1-.2-.1-.2 0s.1.1.2 0c0 .1 0 0 0 0m.2 1.1c0 .1.1.1.2.1s.2 0 .2-.1-.1-.1-.2-.1c-.2-.1-.2 0-.2.1m.2 13.9c0 .1.1.1.2.1s.2 0 .2-.1-.1-.1-.2-.1c-.2-.1-.2 0-.2.1m.1.8c0 .1.1.1.2.1s.1 0 .1-.1 0-.1-.1-.1-.2.1-.2.1m.3 1c.1-.1.1-.2 0-.2s-.1 0 0 .2c-.1 0-.1 0 0 0m.2 1.8c.1 0 .2-.1.2-.2s-.1-.2-.2-.2-.2.1-.2.2.1.2.2.2m.3.8c0-.1-.1-.1 0 0-.2-.1-.3-.1-.3 0 0 0 0 .1.3 0-.1.1 0 0 0 0m.2-5l.4.2c0-.1-.1-.2-.2-.4l-.2.2zm.5.4c0 .1.1.2.2.2s.2-.1.2-.2-.1-.2-.2-.2c0-.1-.1-.1-.2-.1s-.1 0-.1.1c0 .2 0 .2.1.2m.1 3.3c-.1 0-.2 0-.2.1s.1.1.2.1.2 0 .2-.1c0 0 0-.1-.2-.1m.2 6.4c0-.1-.1-.1-.2-.1s-.2 0-.2.1.1.1.2.1c.2.1.2 0 .2-.1m.5-1.2l-.4.9c.3-.3.4-.5.4-.7v-.2zm.2-.3c0-.1-.1-.1-.2-.1s-.1 0-.1.1 0 .1.1.1c.2 0 .2 0 .2-.1m.2-.5c-.1 0-.1 0-.2.1s-.1.1 0 .1c.2.1.2.1.2-.2m.6-.7c0-.1 0-.2-.1-.2s-.2.1-.2.2.1.2.2.2c0 0 .1-.1.1-.2m.1-.3c0-.1-.1-.1-.2-.1s-.1 0-.1.1 0 .1.1.1c.2 0 .2 0 .2-.1m-.1-5.5c-.1 0-.1 0-.1.1s0 .1.1.1v.1c0 .1.1.2.2.2 0 .1.1.1.2.1s.1-.1.1-.2 0-.2-.1-.2c0-.1-.1-.1-.2-.1v-.1h-.2m-.5 0c0 .1.1.1.2.1s.2 0 .2-.1-.1-.1-.2-.1-.2 0-.2.1m-.1 6.3c0 .1 0 .1.1.1s.2 0 .2-.1-.1-.1-.2-.1-.1 0-.1.1m1.7-11.4c0-.1 0-.1 0 0-.1-.1-.2-.1-.2 0 0 0 .1.1.2 0 0 .1 0 0 0 0m.4 3c0-.1 0-.2-.1-.2s-.2.1-.2.2.1.2.2.2c0 0 .1-.1.1-.2m3.4-1.2l-3.4-.1h-.2c-.1 0-.1 0-.2-.1v-.2l-.7.4v.2c.1 0 .1 0 .2.1h1.4c.3 0 .5-.1.5-.4h2.4zm1.3.3h-1c.1.1.3.1.6.1.1 0 .3 0 .4-.1m.5.2c0-.1-.1-.1-.2-.1s-.1 0-.1.1 0 .1.1.1.2 0 .2-.1m1.3.5c-.1 0-.1 0 0 0-.1.1-.1.2 0 .2v-.2m15.2-10.8h.2l-.2-.2v.2zm.2.7c-.1 0-.1.1-.1.2s0 .2.1.1c.2 0 .2-.1 0-.3m-.4-1.3c.1 0 .1 0 0 0 .1-.1.1-.1 0 0zm-2.2-4.3c-.1 0-.1 0-.1.1s0 .1.1.1c0 .1.1.1.2.1s.2 0 .2-.1-.1-.1-.2-.1c0-.1-.1-.1-.2-.1m-5.1-3.5c0 .1 0 .1 0 0 .2 0 .2-.1 0 0 0-.1 0-.1 0 0m-1 0c0 .1.1.1.2.1s.2 0 .2-.1-.1-.1-.2-.1c-.1-.1-.2 0-.2.1m-.8.7h.3c0-.1 0-.2-.1-.2s-.2.1-.2.2m.3.2c0 .1 0 .1 0 0 .2 0 .2-.1 0 0 0-.1 0-.1 0 0m-3.2.5c0 .1.1.1.2.1s.2 0 .2-.1-.1-.1-.2-.1c-.2 0-.2 0-.2.1m-.6.5c.1 0 .2-.1.2-.2-.1-.1-.1-.1-.2 0v.2m-1.6 1.4c0 .1 0 .1 0 0 .1.1.1.1 0 0zm-.6.8c.1 0 .2-.1.2-.2-.1-.1-.1 0-.2 0-.1.2-.1.2 0 .2m-.3.2c0 .1 0 .1.1.1s.2 0 .2-.1-.1-.1-.2-.1l-.1.1m-.3 6.4h-.2v.1c.1-.1.2-.1.2-.1m.1-.4c.1 0 .1 0 .1-.1s0-.1-.1-.1-.2 0-.2.1 0 .1.2.1m.8-.9l-.1.2c-.1.1-.2.2-.3.4-.2.2-.3.3-.3.4.2-.1.4-.2.4-.3.1-.3.1-.5.3-.7m.9-1l-.1-.2-.2.4.3-.2zm1.5 5.5c-.1-.1-.2-.2-.4-.2s-.4.1-.5.2h.9zm.5-4c0-.1 0-.1-.1-.1s-.2 0-.2.1.1.1.2.1.1 0 .1-.1m0 .4c-.1 0-.1.1-.1.2s0 .2.1.2.2-.1.2-.2-.1-.2-.2-.2m-.1-1h-1.1v.1l1.1-.1zm-1 .9c.1 0 .2-.1.2-.2s-.1-.2-.2-.2-.1.1-.1.2 0 .2.1.2m-.1 1.3c0 .1 0 .2.1.2.1-.1.1-.2 0-.4-.1 0-.1.1-.1.2m.6 1c.2 0 .3-.2.3-.4h-.7v.8c.1-.2.2-.4.4-.4m-.2.4c-.1 0-.2 0-.2.1s.1.1.2.1.1 0 .1-.1 0-.1-.1-.1m-.2-4.3c0-.1-.1 0 0 0-.1.2-.1.3 0 .3.2-.2.2-.3 0-.3m.2-.2c.1 0 .1 0 .1-.1s0-.1-.1-.1-.2 0-.2.1.1.1.2.1m.5-2.7c-.2.2-.4.5-.6.7-.2.2-.4.4-.5.7l.6-.6c.2-.3.4-.5.5-.8m0 7.9c.1 0 .2 0 .2-.1s-.1-.1-.2-.1-.2 0-.2.1c.1.1.1.1.2.1m.2.6c.1 0 .1-.1.1-.2s0-.2-.1-.2-.2.1-.2.2c0 .2.1.2.2.2m-.1 1.6s.1 0 0 0c.2 0 .2 0 0 0 .1-.1 0-.1 0 0m.4 1.4l-.2-.2v.2h.2zm0-.8c0-.1-.1-.1-.2-.1s-.1 0-.1.1 0 .1.1.1c.1.1.2 0 .2-.1m.6-2.1h-.8v.1h.8zm-.3-5.6c0-.1 0-.1-.1-.1s-.2 0-.2.1.1.1.2.1c0 .1.1 0 .1-.1m0 .7c-.1 0-.1.1-.1.2s0 .2.1.2.2-.1.2-.2c-.1-.1-.1-.2-.2-.2m.6 1.1c0-.1-.1-.2-.2-.2 0-.1 0-.1-.1-.1s-.2 0-.2.1.1.1.2.1c0 .1 0 .2.1.2.1.1.2 0 .2-.1m2.4-6.6c1.6 0 2.8.5 3.6 1.5.9 1 1.5 2.1 2 3.4l.1.1c0 .1 0 .1.1.1.1-.4.2-.7.3-.9.1-.3.3-.5.6-.6l-.2-.2.3-.6c.1.1.3.1.4-.1.1-.2.3-.3.4-.3l.1.3h.2c-.1-.1-.2-.5-.4-1-.2-.6-.4-.8-.7-.7-.5-.5-1.1-1.1-1.8-1.7-.7-.6-1.5-.9-2.4-.9-.1 0-.3.2-.6.5-.4.3-.7.5-1.1.5-.3 0-.6-.2-.9-.4-.3-.3-.7-.4-1.1-.4-.7 0-1.4.2-2 .5-.6.4-1.2.8-1.7 1.3s-.8 1.2-1.1 1.8c-.3.7-.4 1.4-.4 2.1v.4c.3-.3.5-.6.7-1 .2-.4.4-.7.6-1 .7-.7 1.4-1.3 2.2-1.9.9-.5 1.8-.8 2.8-.8m7.9 3.2l.2.2v-.2h-.2zm-1.1-.2c-.1 0-.1.1-.1.2s0 .2.1.2.2-.1.2-.2-.1-.2-.2-.2m-.4 1.2c-.1 0-.1 0-.1.1s0 .1.1.1.2 0 .2-.1c-.1 0-.1-.1-.2-.1m-2.8 3c.3-.7.4-1.1.4-1.3 0-.2-.1-.5-.2-.9s-.3-.8-.4-1.3c-.2-.4-.4-.8-.6-1.1-.2-.3-.4-.5-.6-.5h-1.9l-.3.1c-.5.3-.8.6-1 .8-.2.3-.3.7-.3 1.2 0 .3 0 .6.1 1s.3.5.8.5c.2 0 .5-.1.9-.3.3-.2.5-.4.5-.7v-.1c-.1-.1-.2-.2-.3-.4-.1-.2-.2-.3-.2-.4l.1-.1.2-.1h.5c.2 0 .4.1.5.1l-.1.1c0 .1.1.2.2.2s.1-.1.1-.2V67c.2.1.4.3.6.5.3.4.5.9.5 1.5 0 .3-.1.6-.2.8-.2.2-.2.5-.2.8v.1c.1.1.1.2.2.4s.1.3.1.4c.1.1.4-.3.6-1m-.5 1.2c-.1 0-.2.1-.2.2s.1.2.2.2.2-.1.2-.2c0-.2 0-.2-.2-.2m-.9.9l-.4.4c.2 0 .3-.1.4-.2.1-.1.2-.2.3-.4-.1.1-.2.1-.3.2m-.9-4c.1-.1.2-.2.2-.4s-.1-.3-.3-.3l-.3.8c.1.1.2 0 .4-.1m-.3 3.7c0-.1 0-.2-.1-.2s-.2.1-.2.2.1.2.2.2c0 .1 0 .1.1.1s.2 0 .2-.1c0-.2-.1-.2-.2-.2m-.1-4.8v.1c0 .1 0 .2.1.2.1-.1.2-.1.2-.2 0 0-.1-.1-.3-.1.1 0 0 0 0 0s.1-.1.1-.2 0-.2-.1-.2-.2.1-.2.2c0 .2.1.2.2.2m.4 5.6c0 .1 0 .1.1.1s.2 0 .2-.1-.1-.1-.2-.1l-.1.1m2-7.2c0-.1-.1-.1-.2-.1s-.2 0-.2.1.1.1.2.1c.2 0 .2 0 .2-.1m0 .1c-.1 0-.2 0-.2.1s.1.1.2.1.1 0 .1-.1c0 0 0-.1-.1-.1m.7 2.1c.1 0 .2 0 .2-.1s-.1-.1-.2-.1-.2 0-.2.1c.1 0 .1.1.2.1m-6 9.1c0-.1-.1-.2-.2-.2s-.1.1-.1.2 0 .2.1.2c.2 0 .2-.1.2-.2m1.3 2.1c.1 0 .1 0 .1-.1s0-.1-.1-.1-.2 0-.2.1c0 0 .1.1.2.1m0 .1c0 .1 0 .1.1.1s.2 0 .2-.1-.1-.1-.2-.1-.1 0-.1.1m.1.3c0 .1.1.2.2.2s.2-.1.2-.2-.1-.2-.2-.2c-.2 0-.2.1-.2.2m.2.3c0 .1.1.1.2.1s.1 0 .1-.1 0-.1-.1-.1c-.2 0-.2 0-.2.1m.2.4c.1 0 .1-.1 0 0 .1-.2.1-.2 0-.2 0 0-.1 0 0 .2-.1-.1 0 0 0 0m.2-6.7s0-.1 0 0c-.1-.1-.2-.1-.2 0 0 .3.1.3.2 0m.1 6.8s0-.1 0 0c-.2-.1-.2-.1-.2 0s0 .1.2 0c0 .1 0 .1 0 0m.1-7c.4-.1.6-.2.7-.4-.1-.1-.1-.2-.2-.4s-.1-.3-.1-.4v-.2c0-.1 0-.1.1-.2h-.4c-.1-.1-.3-.1-.5-.2l-.4-.2v-.2h-.4c-.2 0-.4-.1-.6-.3-.2-.2-.4-.3-.6-.4v.2c0 .5.2 1 .6 1.5.4.5.7.9 1 1.2h.1c.1.1.3.1.7 0m.8 0c0-.1 0-.2-.1-.2s-.2.1-.2.2.1.2.2.2c.1-.1.1-.1.1-.2m0-.2c0 .1.1.1.2.1s.2 0 .2-.1-.1-.1-.2-.1c-.2 0-.2 0-.2.1m.4 2.4c0-.1 0-.2-.1-.2s-.2.1-.2.2.1.2.2.2.1-.1.1-.2m5.8-1.3c.1 0 .1 0 .1-.1s0-.1-.1-.1-.2 0-.2.1c0 0 0 .1.2.1m.2.4c.1-.1.1-.1 0 0-.1-.1-.2-.1-.2 0 .1.1.2.1.2 0m.7-3.3c.1 0 .2 0 .2-.1s-.1-.1-.2-.1-.1 0-.1.1v-1.6l-4 4-.2.2c-.1.1-.2.1-.2.2-.2.1-.5.3-1.1.6-.5.3-.9.5-1.1.6l1.1 1.2.2-.3h.1l.8.7c0 .1-.1.2-.2.4-.2.2-.4.4-.8.4-.4.1-.6.2-.7.4.1.1.2.1.4.1.4 0 .7-.2 1-.5.3-.3.7-.4 1.2-.3l1.5-1.5c-.1.1-.2.1-.3.1l-.1.1V76l.8-.9c0-.1 0-.1.1-.2s.1-.2.1-.2c.1-.1.2-.4.5-.7.1-.2.2-.3.3-.4l.4-.2.2-.5c.1-.4.2-.6.3-.7v-.7c-.2-.1-.2 0-.2 0m.4 1.8h-.2v.2h.2v-.2zm.2-4.2c0-.1-.1-.1-.2-.1s-.2 0-.2.1.1.1.2.1.2 0 .2-.1m1.4-1.9c0-.1 0-.1-.1-.1s-.2 0-.2.1.1.1.2.1c.1.1.1 0 .1-.1m0-.9c0-.1 0-.2-.1-.2s-.2.1-.2.2.1.2.2.2.1-.1.1-.2m.9-.4c0-.1-.1-.1-.2-.1s-.1 0-.1.1 0 .1.1.1c.2 0 .2 0 .2-.1m.8 3.3h-.2c0 .1.1.1.2 0m1-2.3c0-.1-.1-.2-.2-.2s-.1.1-.1.2 0 .2.1.2.2-.1.2-.2m.4-.9c0-.1-.1-.1-.2-.1s-.1 0-.1.1c.1.2.2.2.3 0" fill="#857550"/><path d="M162.7 141.7l.1 3.5h-.5c-.2-.9-.4-1.5-.8-2s-.7-.8-1.1-.8c-.3-.1-1-.1-2-.1h-2.5L154 149h1.2c1.3 0 2.3-.2 2.8-.7.6-.5 1-1.1 1.3-1.9h.5l-1.8 6.3h-.6c.1-.5.2-.9.2-1.4 0-.5-.1-.9-.3-1.2-.2-.3-.5-.4-.8-.5-.3-.1-.8-.1-1.6-.1h-1.2l-1.4 4.8c-.2.7-.3 1.2-.3 1.4 0 .4.2.7.5.8.3.2.7.3 1.1.3h.4l-.2.5h-6.5l.2-.5h.3c.5 0 .9-.1 1.2-.3.3-.2.5-.4.7-.6.1-.2.3-.7.5-1.5l2.8-9.9c.2-.8.3-1.2.3-1.4 0-.6-.5-.8-1.5-.8h-.3l.2-.5h11zm18.4 15l-.2.5h-6.6l.2-.5h.4c.5 0 .9-.1 1.2-.3.3-.2.6-.4.7-.6.1-.2.3-.7.5-1.5l3-9.9c.2-.8.4-1.2.4-1.4 0-.6-.5-.8-1.5-.8h-.4l.2-.5h6.1l-.2.5h-.3c-.4 0-.7.1-1 .2-.3.1-.5.3-.6.5-.1.2-.3.8-.6 1.8l-2.9 9.6c-.2.7-.3 1.2-.3 1.4 0 .4.2.6.5.8.3.2.7.3 1.1.3h.3zm28.3.7h-.5l-4.3-13.2-1.4 5.7c-.5 2.2-1 3.9-1.4 5.1-.4 1.2-.9 2.1-1.5 2.6s-1.1.8-1.7.8c-.6 0-1-.2-1.4-.5-.4-.3-.6-.7-.6-1.2 0-.8.3-1.2.9-1.2.2 0 .4.1.6.2.2.2.2.4.2.6 0 .2-.1.4-.2.7-.1.2-.1.3-.1.4 0 .1.1.3.2.3.1.1.3.1.5.1.7 0 1.3-.5 1.9-1.4.6-.9 1.3-3.2 2.2-7l1.2-4.9c.2-.9.3-1.3.3-1.4 0-.3-.1-.5-.4-.7-.2-.2-.9-.3-1.8-.3l.1-.5h3.6l4 12.2 1-4c1-4.1 1.7-6.5 2.3-7.2.5-.8 1.1-1.1 1.8-1.1.4 0 .7.1 1 .3.2.2.3.4.3.7 0 .3-.1.5-.3.6-.2.2-.4.2-.6.2-.3 0-.6-.2-.8-.6-.1-.2-.3-.3-.5-.3-.3 0-.6.4-1 1.3s-.9 3-1.8 6.4l-1.8 7.3zm30.4-5h.5l-1.6 5.1h-.5c0-.5 0-1-.1-1.6-1.1 1.1-2.4 1.6-3.8 1.6-1.7 0-3-.6-4-1.8-1-1.2-1.5-2.6-1.5-4.1 0-2.5.9-4.8 2.7-6.9 1.8-2.2 3.8-3.3 6-3.3.9 0 1.7.2 2.4.6.6.4 1.1 1 1.5 1.8.3-.6.6-1.2.8-1.8h.5l-1 4.5h-.5v-.6c0-1.3-.3-2.3-.9-3-.6-.7-1.4-1.1-2.5-1.1s-2.2.4-3.1 1.2c-1 .8-1.8 2.2-2.6 4.2-.7 2-1.1 3.7-1.1 5.2 0 1.3.3 2.4.9 3.3.6.8 1.5 1.3 2.6 1.3 2.2 0 3.9-1.5 5.3-4.6m25.1-1.1h-4.5l-1.4 2.2c-.5.7-.8 1.2-.9 1.4-.1.2-.1.4-.1.6 0 .7.5 1.1 1.6 1.2h.4l-.2.5h-5.5l.2-.5c.8-.1 1.4-.3 1.9-.7.5-.4 1.2-1.3 2.1-2.7l7.9-11.9h.8l-.5 12.6-.1 1.4c0 .5.1.8.4 1 .3.2.8.3 1.4.3l-.2.5h-6.1l.2-.5c.8 0 1.4-.1 1.6-.4.3-.2.5-.5.5-.8.1-.3.1-.9.1-1.7l.4-2.5zm0-.5l.3-6.7-4.4 6.7h4.1zm17.4-1.3l27.1.7-27.1.7zm-147.4 1.4l-27.1-.7 27.1-.7z"/></svg>