<svg viewBox="0 0 252.74 56.69" xmlns="http://www.w3.org/2000/svg"><g fill="#1a171b"><path d="M69.43 50.27A4.81 4.81 0 0165 52.56a5.37 5.37 0 01-3.47-1.15 4.24 4.24 0 010-6.49A5.33 5.33 0 0165 43.78a4.86 4.86 0 014.23 1.95l-1 .71A3.67 3.67 0 0065 45a3.82 3.82 0 00-2.52.85 3 3 0 000 4.71 3.89 3.89 0 002.53.83 4 4 0 003.41-1.79zm4.88-1.18h3.21l-1.6-3.18zm-3 3.21l4.2-8.3h.81l4.21 8.32h-1.38l-1.06-2.11h-4.35l-1.06 2.09zm12.06-1.06l.63-1.1a6.75 6.75 0 003.76 1.23 3.45 3.45 0 001.59-.37 1.38 1.38 0 00.88-1.25c0-1-.86-1.45-2.57-1.45a8.19 8.19 0 01-2.55-.3 1.85 1.85 0 01-1.37-1.89 2 2 0 011.14-1.86 4.56 4.56 0 012.24-.49 7.16 7.16 0 014 1.17L90.45 46a5.83 5.83 0 00-3.35-1.1 3.21 3.21 0 00-1.3.24 1 1 0 00-.76 1c0 .7.86 1 2.57 1 2.64 0 4 .87 4 2.64a2.36 2.36 0 01-1.21 2.09 4.55 4.55 0 01-2.45.65 8.24 8.24 0 01-4.54-1.32m13.46-2.11h3.22l-1.61-3.18zm-3 3.21l4.2-8.3h.81l4.22 8.32h-1.39l-1.06-2.11H96.3l-1.06 2.09zm22.92-8.3a4.62 4.62 0 013.2 1.09 4.37 4.37 0 010 6.17 4.7 4.7 0 01-3.21 1h-3.63V44zm0 1.19h-2.37v5.91h2.38a3.22 3.22 0 002.26-.76 3.13 3.13 0 000-4.36 3.2 3.2 0 00-2.24-.8m8.39 7.12v-8.31h7.71v1.21h-6.42v2.08h4.21v1.2h-4.21v2.62h6.79v1.2zm21.27 0h-.65l-4.15-8.32h1.38l3.1 6.23 3.02-6.23h1.43z" fill-rule="evenodd"/><path d="M154.32 43.96h1.3v8.34h-1.3z"/><path d="M159.9 52.3v-8.32h.66l5.24 5.84v-5.84h1.26v8.32h-.68l-5.22-5.82v5.82zm15.73-.96a4 4 0 002.58-.82 3 3 0 000-4.74 4.45 4.45 0 00-5.15 0 2.87 2.87 0 00-1.14 2.39 2.83 2.83 0 001.16 2.36 4 4 0 002.55.83m0 1.22a5.44 5.44 0 01-3.5-1.15 4 4 0 01-1.54-3.26 3.92 3.92 0 011.54-3.24 5.43 5.43 0 013.5-1.13 5.53 5.53 0 013.51 1.1 3.93 3.93 0 011.53 3.27 4 4 0 01-1.54 3.27 5.41 5.41 0 01-3.5 1.14m8.26-1.34l.63-1.1a6.75 6.75 0 003.76 1.23 3.45 3.45 0 001.59-.36 1.38 1.38 0 00.87-1.25c0-1-.85-1.45-2.56-1.45a8.26 8.26 0 01-2.56-.29 1.85 1.85 0 01-1.36-1.89 2 2 0 011.13-1.86 4.61 4.61 0 012.24-.49 7.17 7.17 0 014 1.17L191 46a5.85 5.85 0 00-3.35-1.1 3.21 3.21 0 00-1.3.24 1 1 0 00-.76 1c0 .7.85 1 2.56 1 2.65 0 4 .87 4 2.64a2.34 2.34 0 01-1.21 2.09 4.51 4.51 0 01-2.44.65 8.17 8.17 0 01-4.54-1.32M230 20.06l2.47-7.25 2.23 7.25zm-1.94.63h8l-3.81-12.13zm8.65 5.84h5l-1.87-1.39-5.61-17.93 1.45-.87h-4.35l1.38.87 5.75 18zm-12.61 0h3l-1.52-1.21zm-2.51.72l3.08-2.52 5.82-17.18-2.79-2h10.53l-2.62 1.7 5.48 17.86 3.08 2.11h-9.4l2.68-2.11-1.23-3.8h-8.48l-1.27 3.6 2.89 2.31zm7.83-5.25h5.93l1 3.15-3.63 2.66h15l-4.59-2.94-5.44-17.32 4.16-2.49h-15.54l3.22 2.49-5.62 17-3.85 3.18h12.08l-3.71-2.94zm-30.72 4.53h5.3l-1.7-1.15v-18l2-1h-5.65l1.87 1.07v18zm.56-1.32V7.76l-3.42-2.18h10.91l-3.35 2v17.7l3.32 1.93H196zm-5.47 2.56h16.57l-4.77-2.94V8l4.77-2.94h-16.57l4.91 3.08v16.69zm-17.55-7.38a5.23 5.23 0 01.4 1.83 5.87 5.87 0 01-1.2 3.18c1.33-1 2.5-1.79 2.5-3.83-.42-5.19-7.24-5-10.84-6.19-2.79-.86-4.95-2.35-5-5a4.08 4.08 0 012.71-3.8c-2.19.34-4 1.73-4.13 3.87 0 3 2.9 4.91 5.9 5.88 3.7 1.24 8.61 1.17 9.67 4m1.63-13.31l-1.63 1.21a4.76 4.76 0 01.68.83 8.89 8.89 0 011 1.77zm-17.3 19l1.54-1.46-1.54-2.28zm.38-7.54a9.9 9.9 0 001.48 4.25 8.79 8.79 0 007.42 4 5.3 5.3 0 00.78 0c2.4-.17 4.83-1.93 4.83-4.21a3.37 3.37 0 00-.06-.66c-.92-4.39-7.88-3.7-10.78-5.15s-5.25-3-5.25-6.12c.06-4.08 5.22-5.22 9.35-5.22a10.23 10.23 0 016.92 2.25L178 5.84h.88v7.33h-1.09c0-.59-1.45-4.15-3-5.32a8.9 8.9 0 00-10.35-.14 2.78 2.78 0 00-.92 2.14 3.88 3.88 0 001.34 2.94c2.66 2.28 6.53 2.14 10.6 3.7a5.64 5.64 0 013.88 5.67c0 2.9-4.83 5.08-8.65 5.25h-.78A10.83 10.83 0 01163 25.3l-2 2h-1.45v-8.74zm-2.12 9.19h3.22l1.41-1.34a12.78 12.78 0 006 1.38h1.26c4.53-.24 9.19-1.14 10.32-5.39a4.81 4.81 0 00.18-1.38c0-2.52-1.77-4.63-4.28-5.81-3.75-1.76-11.58-1.1-11.76-5.42 0-2.6 2.22-3 3.92-3a11.4 11.4 0 011.52.11c4.17.27 6.5 5.87 6.5 7.12h3.71V5h-2.69l-2.43 1.7a12.76 12.76 0 00-7-1.66c-4.42 0-9.89 1.18-9.93 5.5 0 3.35 2.23 5.6 5.34 6.78a40.7 40.7 0 006.46 1.62c2.33.55 3.85 1.59 3.85 3.6s-1.38 3.35-4.06 3.48a8.1 8.1 0 01-8.13-7.42 2.08 2.08 0 010-.53h-3.5zm-19.41-7.36a5.65 5.65 0 01.38 1.83 5.79 5.79 0 01-1.2 3.18c1.34-1 2.51-1.79 2.51-3.83-.42-5.19-7.24-5-10.84-6.19-2.79-.86-5-2.35-5-5A4.09 4.09 0 01128 6.6c-2.19.34-4 1.73-4.13 3.87 0 3 2.9 4.91 5.9 5.88 3.71 1.24 8.61 1.17 9.68 4M141 7.08l-1.62 1.21a5.8 5.8 0 01.67.83 8.89 8.89 0 01.95 1.77zm-17.31 19l1.56-1.46-1.56-2.28zm.39-7.54a9.68 9.68 0 001.49 4.25 8.75 8.75 0 007.41 4 5.3 5.3 0 00.78 0c2.4-.17 4.84-1.93 4.84-4.21a4.31 4.31 0 00-.07-.66c-.92-4.39-7.88-3.7-10.78-5.15s-5.26-3-5.26-6.12c.07-4.08 5.23-5.22 9.36-5.22a10.23 10.23 0 016.92 2.25l2.34-1.8h.89v7.33h-1.1c0-.59-1.45-4.15-3-5.32a8.9 8.9 0 00-10.35-.14 2.78 2.78 0 00-.92 2.14 3.85 3.85 0 001.37 2.9c2.65 2.28 6.54 2.14 10.6 3.7a5.64 5.64 0 013.88 5.67c0 2.9-4.83 5.08-8.65 5.25h-.78a10.81 10.81 0 01-6.85-2.14l-2 2h-1.45v-8.71zM122 27.75h3.22l1.41-1.34a12.78 12.78 0 006 1.38h1.27c4.52-.24 9.18-1.14 10.31-5.39a4.79 4.79 0 00.17-1.38c0-2.52-1.76-4.63-4.27-5.81-3.74-1.76-11.58-1.1-11.76-5.42 0-2.6 2.22-3 3.92-3a11.4 11.4 0 011.52.11c4.17.27 6.5 5.87 6.5 7.12H144V5h-2.69l-2.42 1.7a12.76 12.76 0 00-7-1.66c-4.41 0-9.9 1.18-9.93 5.5 0 3.35 2.23 5.6 5.34 6.78a40.7 40.7 0 006.46 1.62c2.33.55 3.85 1.59 3.85 3.6s-1.38 3.35-4.06 3.48a8.09 8.09 0 01-8.13-7.42 2.08 2.08 0 010-.53H122zM101.68 6.34l1.81 2.42V6.34zm-4.87 9.51l1 1.1v-2.14zm5.58 10.68h2v-2.87zm-16.49 0h3.49V6.34h-3.74l1.94 1.24v17.77zm.81-1.59V8L83 5.58h21.44v5.26h-.64l-3.5-4.5h-9.6v9.16h5.4l1.9-2.18h.59v5.23H98l-1.9-2.39h-5.4v10.37h10.59l4-5.81v6.53H83.07zM81 27.77h26.24v-8.12h-2L100.8 26h-8v-9.11h2.83L98 19.68h1.8v-7.39h-1.93L95.57 15h-2.79V6.82h6.89l4.33 5.67h1.72V5.06H81.27l4.66 3.08v16.32zM62 6.82a4.73 4.73 0 012.43 4.29 4.61 4.61 0 01-2.26 3.74c.68 0 3.47-1.77 3.75-3.81 0-2-2.37-4.15-3.92-4.22m-5.94 10c.78 0 3.57.28 4.14 1.9.6 1.83.46 3.63 1.24 5.78A28.22 28.22 0 0063 27.77h7.53a20.85 20.85 0 01-1.91-2.21c-1.73-2.42-2-5.41-3.25-7.08a5.91 5.91 0 00-2.79-2.22c2.9 0 6.32-2.14 6.32-5.25 0-3.63-5.62-5.95-10.21-5.95H43.16l5 3V24.8l-5.26 3h17.3l-5.59-3.21v-7.81zm2.51-.72a4.53 4.53 0 013 2A12.7 12.7 0 0163 22.73a15.65 15.65 0 001.45 3.8H66a11.23 11.23 0 01-1.59-4A8.62 8.62 0 0062 17.68a6.41 6.41 0 00-3.43-1.62m-4.09-1.21v-8h3.67c2.4 0 4.8 1.7 4.8 4.18a4.16 4.16 0 01-4.27 3.81zm-2.27.65h5.41c2.9 0 5.9-1.62 5.9-4.46 0-3.53-3.57-4.7-5.41-4.7h-5.9zm.78 11l-1.83-1.15v-19h-3.47l2 1.21v17.93l-1.9 1zm-8.08.72l3.91-2.14V7.9l-3.88-2.32h14.37C62.91 5.58 67 7.41 67 11c-.07 2.46-4.09 4.84-6.5 4.84a3.12 3.12 0 01-.84-.1 9.27 9.27 0 013 1.38c2.37 1.62 2.43 3.39 3.14 5.77a14.9 14.9 0 002 4.32h-4.07a18 18 0 01-1.42-3.14A40 40 0 0161 18.78c-.39-1.48-2.33-2.62-4.28-2.62h-4.48v8.78l3.82 2.31zM29 21.83c0-3.52-3.39-4.84-4.52-4.91a6.24 6.24 0 013.07 5c-.18 2.21-2.86 4.14-3.92 4.35 1.09 0 5.37-1.62 5.37-4.42M23.46 6.72A4.53 4.53 0 0126.39 11a4.15 4.15 0 01-2.51 4 4.22 4.22 0 004-3.76 4.59 4.59 0 00-4.38-4.5m-4.1 8.13h-3.47v-8h3.43a4.85 4.85 0 015 4.36c0 2-2.15 3.67-5 3.67m-5.76.55h5.76c3.32 0 5.83-2 5.83-4.22-.15-2.9-2.93-4.84-5.83-4.84h-5.79zM19.43 26h-3.5v-9.3h3.5c2.93 0 6 2 6 4.77a2.28 2.28 0 010 .52c-.35 2.7-2.82 4-5.93 4m-5.83.52h5.83c3.14 0 6.36-1.49 6.75-4.53v-.52c0-3.11-3.43-5.32-6.75-5.32h-5.9zm-4.73 0h3.57V6.34H9l2 1.21v17.7zm13.06.74H6l4-2.38v-17L6.36 5.58h15.58c4.17 0 6.82 2.46 7.1 5.6 0 2.46-1.77 4.67-5.34 4.67 3.54-.17 6.7 2.78 6.68 5.81 0 4.41-5.72 5.59-8.4 5.59m-17.7.52H22c5.33 0 9.83-2.05 10.1-5.77.24-3.35-3-5.74-5.41-6.15 2.4-.63 4.45-2.19 4.45-4.67 0-3.77-4.45-6.12-9.18-6.12H4.7L9.19 8v16.63z" fill-rule="evenodd"/></g></svg>