<svg viewBox="0 0 350.27 168.59" xmlns="http://www.w3.org/2000/svg" xmlns:xlink="http://www.w3.org/1999/xlink"><defs><clipPath id="a"><path d="M-1539.36-795.42h1280.83v703h-1280.83z"/></clipPath><clipPath id="c"><path d="M0-795.42h1280.83v703H0z"/></clipPath><image id="b" height="2560" width="2480" xlink:href="../../../Clientes/Guillo Milia/Sylvestra/LAVIENROSEPIC1low.jpg"/></defs><g clip-path="url(#a)"><use transform="matrix(.68 0 0 .68 -1539.36 -1373.39)" xlink:href="#b"/></g><g clip-path="url(#c)"><use transform="matrix(.68 0 0 .68 0 -1373.39)" xlink:href="#b"/></g><g fill="#f3e6d0"><path d="M39.05 77.28h-7.89V63.21q0-5.88-4.58-5.88c-3.2 0-4.81 1.92-4.81 5.76v10a18.38 18.38 0 002.44 9.61 59.43 59.43 0 005.52 7.55q5.52 6.7 7 10.39a28.43 28.43 0 012.31 11.52v15.2a12.74 12.74 0 01-3.62 9.44 11.75 11.75 0 01-8.67 3.44 13.83 13.83 0 01-8.85-3 10.12 10.12 0 01-4-8.43v-22.19h7.89v19.83a6.17 6.17 0 001.65 4.55 4.39 4.39 0 003.2 1.37 4.09 4.09 0 002.91-1.19 6.09 6.09 0 001.61-4.51v-14.83a19.14 19.14 0 00-2.62-10 52.15 52.15 0 00-5.76-7.48q-5.46-6.1-6.83-9.44a23.07 23.07 0 01-2.07-9.74v-12a13.63 13.63 0 014-10 12.2 12.2 0 018.91-3.74 11.53 11.53 0 018.49 3.51 13.3 13.3 0 013.8 9.85zm-18 63.83l8.08 8.08a13.42 13.42 0 01-5.29-3.27l-8.07-8.07a14 14 0 005.29 3.26zm8.26-73l-5.7-5.61a4.49 4.49 0 01.6-2l5.11 5.1zm-5.71-.77v-2.5l5.71 5.7v2.5zM29.32 78l-5.71-5.7v-2.5l5.71 5.7zm0 34.5l-5.71-5.7v-2l5.65 5.7c0 .48.06.94.06 1.37zm0 4.93l-5.71-5.7v-2.49l5.71 5.7zm0 2.44v2.49l-5.71-5.76v-2.43zm0 7.36l-5.71-5.64V119l5.71 5.76v2.43zm-5.71-.77V124l5.17 5.17a2.81 2.81 0 01-1.25 1.19zm8.67-40.56l-8.13-8.13a25.67 25.67 0 01-.48-3l8.08 8.13a16.25 16.25 0 00.53 2.99zM27 142.12l8.07 8.14a16.9 16.9 0 01-2.67-.26l-8.07-8a23.35 23.35 0 002.67.12zm-1.49-82.71a2.63 2.63 0 011.07-.24c1.82 0 2.74 1.37 2.74 4.1zm7.43 32.06c-.36-.47-1-1.24-1.84-2.31a72.31 72.31 0 01-5.35-7.37l8.14 8.14a76 76 0 005.34 7.3c.83 1.07 1.43 1.84 1.78 2.32zM29.26 142a16 16 0 002-.48l8.13 8.08c-.67.19-1.35.35-2 .47zm1.18-62.83h2.5l8.13 8.14h-2.55zm10.63 69.77L33 140.76c.47-.24 1-.54 1.6-.89l8.08 8.13c-.56.32-1.09.62-1.61.89zm2.38-61.63l-8.08-8.14h2.5l8.07 8.14zM36 138.86c.39-.36.81-.77 1.24-1.25l8.14 8.08c-.48.51-.89.93-1.25 1.24zm11.6-27.79L39.53 103a39.61 39.61 0 00-1.6-4.09l8.13 8.09a21.58 21.58 0 011.54 4.07zm-1.18 33.31l-8.14-8.13a16.16 16.16 0 00.95-1.55l8.08 8.08a14.57 14.57 0 01-.89 1.6zM40.6 59.76a15.23 15.23 0 00-1-3.56l8.13 8.14a15.84 15.84 0 011 3.5zm8 79.4c-.16.67-.33 1.3-.53 1.9L39.94 133a10.93 10.93 0 00.54-2zm-8.31-60h.59v-1.9l8.12 8.1v1.9h-.59zm.42 30a28.34 28.34 0 00-.42-2.91l8.14 8.13c.19 1 .33 2 .41 2.91zm8.2 27.84l-8.08-8.14c0-.43.06-.93.06-1.48v-1l8.11 8.2v.95c0 .52 0 1.01-.09 1.47zm.06-64l-8.08-8.14v-2.42L49 70.57v2.5zm-8.08-3.21v-2.42L49 75.5v2.43zM49 82.92l-8.08-8.13v-2.5L49 80.37zm0 39.37l-8.08-8.07v-2.5L49 119.8zm-8.08-3.21v-2.43l8.08 8.08v2.49zM49 132.15l-8.08-8.08v-2.49l8.08 8.07zm10.15-30.76L49.53 50.2h7.66l5.58 34.5h.59l5.76-34.5h7.78L67 101.39v38.18h-7.85zm-.48 40h2.5l8.13 8.08h-2.49zm.89-87.76l-.47-3 7 7-.36 2.14zM65 63.92l-4.46-4.45-.47-3 5.28 5.28zm-3.51 1.43l-.47-3L64.61 66l-.36 2.14zm2.08 7.06l-1.13-1.13-.47-3 2 2zm-.3 2.08l-.17.83-.18-1.19zm11 75h-2.53l-8.14-8.08h2.55zm-7-99.7L67 51.27zm9.38 99.7l-8.07-8.08h.24v-2.2l8.18 8.08v2.2zm-7.83-47.21v-.71l.29-1.49 8.14 8.14-.3 1.42v.78zM77 115.34l-8.13-8.13v-2.49l8.13 8.13zm-8.13-3.2v-2.5l8.13 8.14v2.49zm0 4.93v-2.5l8.13 8.14v2.49zm0 2.43l8.13 8.14v2.49L68.83 122zm0 7.42v-2.49L77 132.5v2.56zm8.13 13l-8.13-8.08v-2.49l8.13 8.14zm-8.13-3.15v-2.49l8.13 8.08v2.5zm8.78-30.64l-8.07-8.08.42-2.12 8 8.13zm-7.3-12.23l.42-2.08 8.07 8.08-.39 2.1zm8.91 4l-8.14-8.08.42-2.14 8.13 8.14zm-7.35-12.25l.42-2.07 8.08 8.07-.36 2.08zm8.91 4l-8.13-8.07.41-2.14 8.14 8.13zm-7.3-12.25l.35-2.08L82 83.4l-.42 2.08zm8.9 4l-8.13-8.14.41-2.07 8.08 8.13zm-7.36-12.25l.42-2.15 8.13 8.13-.41 2.08zm8.91 4L75.89 65l.42-2.08L84.38 71zm-7.31-12.26l.42-2.13 8.08 8.13L84.8 69zm8.91 4l-8.13-8.13.41-2.08L86 62.73zm-7.3-12.29l.41-2.08 8.08 8.14-.36 2.07zm8.9 4L79 48.48l.06-.12 8.07 8.14zM89 50.2h8.13v82.07H108v7.3H89zm8.13 99.29L89 141.41h2.49l8.14 8.08zm-.71-8.08l8.14 8.08H102l-8-8.08zm2.44 0h2.49l8.08 8.08H107zM99 52.88v-2.5l8.08 8.14V61zm8.08 13L99 57.81v-2.5l8.08 8.08zM99 62.73v-2.49l8.08 8.08v2.49zm8.08 13L99 67.66v-2.49l8.08 8.07zM99 72.59V70.1l8.08 8.07v2.5zm8.08 13L99 77.52V75l8.08 8.07zM99 82.39V80l8.09 8v2.49zm8.08 13.06L99 87.38v-2.56l8.09 8.18zM99 92.25v-2.44l8.08 8.08v2.49zm8.08 13.06L99 97.17v-2.49l8.08 8.13zM99 102.1v-2.49l8.08 8.13v2.5zm8.08 13.07L99 107v-2.49l8.08 8.13zM99 112v-2.49l8.08 8.13v2.49zm0 4.93v-2.5l8.08 8.14V125zm0 2.43l8.08 8.14v2.5L99 121.82zm0 7.42v-2.49l6.18 6.18h-2.48zm0 2.44l1.25 1.25H99zm15.38 20.31h-2.48l-8.08-8.08h2.5zm2.44 0l-8.08-8.08h1.07v-1.36l8.14 8.07v1.37zm1.13-8.73l-8.14-8.14v-2.19l8.14 8.13zm-8.14-3.21v-2.49l8.14 8.13v2.5zm14.11-87.39l5.08 72.45h1.24l5.11-72.45h7.9l-6.36 89.37h-14.6L116 50.2zM121 141.41l8.13 8.08h-.41l-8.08-8.08zm2.43 0h2.5l8.13 8.08h-2.49zm9.56-84l-7.24-7.24-.12-1.79 7.48 7.49zm-6.88-2l-.18-2.67 6.94 6.89-.16 2.37zm6.23 11.16l-5.88-5.88-.17-2.69 6.24 6.24zm-5.46-.53l-.18-2.73 5.52 5.52-.18 2.38zm4.81 9.74l-4.46-4.46-.17-2.73 4.81 4.87zm-4.1.83l-.17-2.61 4.16 4.15-.18 2.26zM131.1 85l-3.1-3.09-.24-2.67 3.44 3.45zm-2.73 2.2l-.18-2.67 2.74 2.73-.18 2.37zM139 149.49h-2.55l-8.08-8.08h2.5zm-8.55-55.29l-1.72-1.66-.18-2.73 2 2.08zm-1.37 3.63l-.17-2.68 1.36 1.31-.18 2.38zm.72 5.58l-.3-.3-.18-2.67.6.65zm11.64 46.08l-8.14-8.08h2.49l8.08 8.08zm-3.21-8.08h.41l.12-2 8.14 8.14-.18 1.9h-.42zm8.85 3.86l-8.14-8.07.18-2.32 8.08 8.12zm-7.84-12.65l.18-2.37 8.13 8.13-.18 2.32zm.53-6.94l8.08 8.13-.12 2.32-8.14-8.13zm.18-2.26l.12-2.32 8.13 8.08-.2 2.32zm.3-4.63l.18-2.32 8.07 8.14-.12 2.31zm8.43 3.5l-8.08-8.07.12-2.32 8.14 8.08zm-7.78-12.65l.18-2.37 8.07 8.13-.11 2.32zm8.43 3.45L141.2 105l.18-2.31 8.13 8.07zm-7.78-12.71l.18-2.32 8.08 8.14-.18 2.32zm8.44 3.56l-8.14-8.13.18-2.32 8.13 8.08zm-7.78-12.76l.18-2.32 8.07 8.14-.18 2.31zm8.43 3.56l-8.14-8.14.18-2.31 8.14 8.07zM142.86 82l.18-2.31 8.07 8.13-.17 2.32zm8.43 3.57l-8.13-8.14.18-2.32 8.13 8.08zm-7.78-12.71l.12-2.38 8.14 8.14-.18 2.31zm8.49 3.41l-8.14-8.07.18-2.32 8.02 8.12zm-7.78-12.65l.12-2.37 8.13 8.13-.18 2.32zm8.43 3.51L144.46 59l.18-2.31 8.08 8.07zm-7.78-12.77l.12-2.26 8.13 8.08-.17 2.32zm8.37 3.56l-8.07-8.13.12-1.43 8.07 8.14zm3 83.49h2.5l8.13 8.08h-2.49zm.3-91.21h18.35v7.31h-10.45v33.43h10.45v7.3h-10.45v34h10.45v7.3h-18.35zm15.26 99.29h-2.49l-8.14-8.08h2.5zm2.44 0l-8.14-8.08h2.5l8.07 8.08zm-8-86.7V60.3l8.13 8.07v2.5zm8.13 13l-8.13-8.08v-2.48l8.13 8.07zm-8.13-3.15v-2.48l8.13 8.07v2.5zm8.13 13l-8.13-8.07v-2.5l8.13 8.08zm-8.13-3.2V80l8.13 8.08v1h-1.48zM168 89.1l-1.72-1.66v-2.56l4.22 4.22zm-1.72 12.35V100h1.13l8.07 8.14h-1.07v1.36zm8.13 13l-8.13-8.13v-2.44l8.13 8.08zm-8.13-3.2v-2.44l8.13 8.08v2.49zm0 5v-2.55l8.13 8.14v2.49zm0 2.38l8.13 8.13v2.5l-8.13-8.14zm0 7.42v-2.49l6.89 6.89h-2.5zm0 2.44l2 2h-2zm9.56-61l-8.08-8.13h2.5l8.07 8.13zm2.08 40.74l-8.08-8.23h2.5l8.07 8.14zM171 141.41h2.49l8.08 8.08h-2.49zm1.6-82.12h2.5l8.13 8.13h-2.49zm2.17 40.71h2v-.47l8.14 8.07v.54h-2zm9.23 49.49l-8-8.08h.77v-1.72l8.14 8.13v1.67zm.84-92.75l-8.14-8.14v-.24l8.14 8.14zm-8.14-3.21V51l8.14 8.13v2.5zm8.14 13.06l-8.14-8.13V56l8.17 8zm-8.14 25.6v-2.5l8.14 8.14v2.43zm8.14 13.06l-8.14-8.14v-2.49l8.14 8.08zm0 35.21l-8.14-8.13v-1.9l8.14 8.13zm-8.14-3.21v-2.49l8.14 8.14v2.49zm35.98-59.97h-7.9V63.21q0-5.88-4.57-5.88-4.82 0-4.81 5.76v10a18.47 18.47 0 002.43 9.61 58.7 58.7 0 005.53 7.55q5.52 6.7 7 10.39a28.27 28.27 0 012.32 11.52v15.2a12.78 12.78 0 01-3.62 9.44 11.75 11.75 0 01-8.67 3.44 13.79 13.79 0 01-8.85-3 10.13 10.13 0 01-4-8.43v-22.19h7.9v19.83a6.17 6.17 0 001.66 4.57 4.4 4.4 0 003.21 1.37 4.09 4.09 0 002.91-1.19 6.09 6.09 0 001.6-4.51v-14.85a19.14 19.14 0 00-2.61-10 52.15 52.15 0 00-5.76-7.48q-5.46-6.1-6.83-9.44a22.92 22.92 0 01-2.08-9.74v-12a13.63 13.63 0 014-10 12.17 12.17 0 018.91-3.74 11.57 11.57 0 018.49 3.51 13.34 13.34 0 013.8 9.85zm-18 63.83l8.07 8.08a13.31 13.31 0 01-5.28-3.27l-8.08-8.07a14.12 14.12 0 005.3 3.26zm8.25-73l-5.7-5.64a4.63 4.63 0 01.59-2l5.11 5.1zm-5.7-.77v-2.5l5.7 5.7v2.5zM202.94 78l-5.7-5.7v-2.5l5.7 5.7zm0 34.5l-5.7-5.7v-2l5.64 5.7c0 .48.06.94.06 1.37zm0 4.93l-5.7-5.7v-2.49l5.7 5.7zm0 2.44v2.49l-5.7-5.76v-2.43zm0 7.36l-5.7-5.64V119l5.7 5.76v2.43zm-5.7-.77V124l5.17 5.17a2.86 2.86 0 01-1.25 1.19zm8.67-40.56l-8.14-8.13a28.19 28.19 0 01-.47-3l8.08 8.13a14.71 14.71 0 00.53 2.99zm-5.29 56.23l8.08 8.14a16.9 16.9 0 01-2.7-.27l-8-8a23.35 23.35 0 002.62.12zm-1.48-82.71a2.6 2.6 0 011.07-.24q2.73 0 2.73 4.1zm7.42 32.06c-.35-.47-1-1.24-1.84-2.31a73.52 73.52 0 01-5.34-7.37l8.13 8.14a74.74 74.74 0 005.35 7.3c.83 1.07 1.42 1.84 1.78 2.32zM202.88 142a15.58 15.58 0 002-.48l8.14 8.08c-.68.19-1.35.35-2 .47zm1.19-62.83h2.49l8.14 8.14h-2.56zm10.63 69.77l-8.08-8.13c.48-.24 1-.54 1.61-.89l8.07 8.08c-.55.32-1.09.62-1.6.89zm2.37-61.63L209 79.12h2.49l8.08 8.14zm-7.48 51.6c.4-.36.81-.77 1.25-1.25l8.13 8.08c-.47.51-.89.93-1.24 1.24zm11.64-27.79l-8.08-8.12a37.47 37.47 0 00-1.6-4.09l8.14 8.13a22.3 22.3 0 011.54 4.03zM220 144.38l-8.13-8.13c.35-.52.67-1 1-1.55l8.07 8.08a13.08 13.08 0 01-.94 1.6zm-5.82-84.62a14.77 14.77 0 00-1-3.56l8.14 8.14a16.4 16.4 0 011 3.5zm8 79.4c-.16.67-.34 1.3-.54 1.9l-8.07-8.06a10.13 10.13 0 00.53-2zm-8.31-60h.59v-1.9l8.08 8.14v1.9H222zm.41 30c-.08-.91-.22-1.88-.41-2.91l8.13 8.13a28.34 28.34 0 01.42 2.91zm8.2 27.91l-8.08-8.14c0-.43.06-.93.06-1.48v-1l8.08 8.13v.95c.06.52.03 1.01 0 1.47zm.06-64l-8.08-8.14v-2.49l8.08 8.13zm-8.08-3.21v-2.49l8.08 8.13v2.43zm8.08 13.06l-8.08-8.13v-2.5l8.08 8.08zm0 39.37l-8.08-8.07v-2.5l8.08 8.08zm-8.08-3.21v-2.43l8.08 8.08v2.49zm8.08 13.07l-8.08-8.08v-2.49l8.08 8.07zm7.74-64.01h-1.49l-8.13-8.08h1.54zm-7.78-17.82h28.32v7.9h-10.21v81.35h-7.9V58.22H222.5zm8.37 16l-6.29-6.24h2.55l3.74 3.74zm-1.3-6.24h1.3v1.31zm13.12 89.43h-2.49l-8.08-8.08h2.49zm2.43 0l-8.07-8.08h2.43l8.14 8.08zm-3.2-8.08h.53v-2l8.08 8.08v2h-.48zm8.61-70.24l-8.08-8.08V60.6l8.08 8.07zM242.45 68v-2.5l8.08 8.08v2.49zm8.08 13l-8.08-8v-2.5l8.08 8.08zm-8.08-3.14v-2.5l8.08 8.08V86zm8.08 13l-8.08-8.08v-2.47l8.08 8.08zm-8.08-3.21v-2.41l8.08 8.07v2.5zm8.08 13.07l-8.08-8.08v-2.53l8.08 8.13zm-8.08-3.21V95.1l8.08 8.07v2.5zm8.08 13.06l-8.08-8.13V100l8.08 8.08zm-8.08-3.14v-2.56l8.08 8.14v2.49zm8.08 13l-8.08-8.13v-2.5l8.08 8.14zm-8.08-3.21v-2.49l8.08 8.14v2.49zm0 4.93v-2.49l8.08 8.13v2.5zm0 2.44l8.08 8.13v2.5l-8.08-8.14zm0 7.42v-2.49l8.08 8.13v2.49zm8.08 13l-8.08-8.01v-2.5l8.08 8.14zm-6.24-85h2.5l8.13 8.08h-2.49zm13.07 8.08l-8.14-8.08h2.49l8.14 8.08zm-4.7-19.48v-.18l8.08 8.14v.12zm0 2.44l8.08 8.13v2.49l-8.08-8.13zm0 7.42V56l8.08 8.14v2.43zm9.89-8.27h13.65q11.4 0 11.4 12.42v20.9q-.06 5.58-2 7.89a10.93 10.93 0 01-5.4 2.68 10.23 10.23 0 016.06 4.21 14.9 14.9 0 011.36 7.13v25.41q.06 6.12 2.32 8.73H282q-2.37-2.61-2.31-8.49v-24.82c0-3.29-.88-5.42-2.5-6.41-1.3-.76-3.56-1.13-6.77-1.13v40.85h-7.89zm2.79 91.21l8.13 8.08H271l-8.08-8.08zm2.43 0h2.49l8.14 8.08h-2.49zm2.67-83.31v32.84c3.64 0 6.16-.79 7.54-2.26q1.66-1.89 1.73-6.23v-18c0-2.74-.8-4.54-2.26-5.41a11.49 11.49 0 00-5.4-.95zm1.84 4v-2.2h.24l5.35 5.35v2.43zm5.59 10.51l-5.59-5.58v-2.5l5.59 5.59zm-5.59-.61v-2.5l5.59 5.58v2.5zm5.59 10.51l-5.59-5.58v-2.5l5.59 5.57zm-5.59-.66v-2.49l5.41 5.4a7.63 7.63 0 01-.6 2zm2 6.89l-2-2v-2.45L276 88a5.21 5.21 0 01-1.76.74zm3.63 18.41l-5.59-5.58v-1c.68 0 1.21.08 1.61.12l3.92 3.92c0 .59.06 1.14.06 1.66zm-5.59-.65V104l5.59 5.58v2.5zm0 4.92v-2.49l5.59 5.58V117zm0 2.44l5.59 5.58v2.5l-5.59-5.59zm0 7.42v-2.49l5.59 5.58v2.49zm5.59 10.51l-5.59-5.64v-2.43l5.59 5.58zm-5.59-.71v-2.49l5.64 5.7a12.81 12.81 0 00.66 3.14zm8.08 13.06l-8.12-8.14v-2.5l8.08 8.14zm0 2.44v2.49l-8.08-8.13v-2.5zm-2.61-83.91l-2.56-2.55a3 3 0 012.52 2.55zm12.94 86.82l-8.13-8.08h2.49l8.14 8.08zm-2.91-52.08a10.62 10.62 0 00-2.82-3.15c.48-.35.89-.67 1.25-1l8.07 8.08a6.45 6.45 0 01-1.12.89l1.18 1.19a10.33 10.33 0 011.55 2zm7.72 2.73l-8.13-8.07a10.87 10.87 0 00.95-1.55l8.13 8.08a9.93 9.93 0 01-.99 1.54zm-8 41.27H290l8.07 8.08h-2.43zm1.73-82.06a21.46 21.46 0 00-.83-3.33l8.07 8.14a13.56 13.56 0 01.83 3.32zM289 88.74c.12-.59.24-1.32.36-2.2l8.07 8.08a21.44 21.44 0 01-.3 2.2zm8.52 23.26l-8.14-8.14a17.47 17.47 0 00-.29-2.79l8.13 8.14q.18 1.27.3 2.79zm0-39.37l-8.08-8.13v-1.9l-.06-.6 8.14 8.14zm0 19.65l-8.14-8.07.06-.71v-1.76l8.08 8.13v2.43zm-8.08-22.86V67l8.08 8.13v2.5zm8.08 13.07l-8.08-8.14v-2.47l8.08 8.12zm-8.08-3.21v-2.47l8.08 8.13v2.5zm0 29.57v-2.49l8.08 8.07V117zm8.08 13l-8.08-8.08v-2.49l8.08 8.07zm-8.08-3.21v-2.44l8.08 8.08v2.49zm8.08 13.06l-8.08-8.07v-2.5l8.08 8.08zm0 4.93l-8.08-8.07v-2.5l8.08 8.08zm0 2.44q0 1.18.12 2.55l-8.14-8.08q-.06-1.37-.06-2.55zm3 10.39l-8.08-8.08h1.43a31.31 31.31 0 01-3.74-4.87l8.07 8.14a9.21 9.21 0 001.25 1.84l2.55 3zm20.6-32.16h-10.33l-2 22.27h-7.55l8.14-89.37h13.66l7.24 89.37h-7.54zm-17.22 24.11l8.07 8.08h-2.43l-8.14-8.08zm2.43 0h2.5l8.07 8.08h-2.49zm12.53 5.11l-.18 2.31-8.13-8.13.18-2.32zm.18-2.26l-8.04-8.07.18-2.32 8.14 8.14zm-7.72-12.59l.24-2.31 8.07 8.07-.18 2.32zm4.22-68.34l-4.16 47h9.14l-3.68-47zm4.33 71.91l-8.13-8.14.23-2.26 8.08 8.08zm-7.72-12.65l.18-2.32 7.78 7.78.18 2.32-.06.35zm1.37-15.86l1.84 1.84h-2zm2.55 12.41l3.62 3.63.18 2.67-6.23-6.3zm-2.32-14.66l.18-2.26 4.46 4.45.11 1.9h-.71zm4.46-.48l-4.1-4 .24-2.31 3.62 3.68zm-3.68-8.55l.17-2.31 2.85 2.86.24 2.67zm2.85-2.14l-2.44-2.43.18-2.26 2 2zm-2.08-6.94l.24-2.32 1.18 1.25.28 2.7zm1.25-3.74l-.84-.78.18-2.31.42.41zm1.95 36.51h.9l.11 1zm13.19 30.35h-2.44l-8.13-8.08h2.49zM325 51.75l-.2-2.75 8.07 8.13.24 2.67zm8.55 13.48l-8.08-8.14-.24-2.73 8.14 8.14zm-7.66-2.79l-.18-2.68 8.08 8.08.23 2.73zm8.25 87.05l-8.07-8.08h2.43l8.14 8.08zm.3-73.57l-8.08-8.08-.23-2.73 8.07 8.07zm-7.66-2.74l-.24-2.73 8.14 8.14.23 2.73zm8.55 13.48l-8.14-8.13-.19-2.67 8.07 8.07zm-7.66-2.73l-.24-2.73 8.14 8.08.17 2.73zm8.55 13.48l-8.14-8.13-.23-2.74 8.15 8.14zm-7.72-2.79l-.2-2.62 8.08 8.07.24 2.74zm8.61 13.48L329 100l-.24-2.73 8.13 8.08zm-7.72-2.73l-.18-2.73 8.08 8.13.24 2.67zm8.55 13.48l-8.07-8.14-.24-2.67 8.07 8.08zm-7.66-2.73l-.24-2.74 8.14 8.08.24 2.73zm8.55 13.42l-8.13-8.08-.18-2.73 8.07 8.13zm-7.66-2.74l-.24-2.67 8.14 8.08.18 2.73zm-.24 14.61h1.43l-.12-1.25 8.14 8.14.06 1.19h-1.37zm.66-9.2l-.24-2.73 8.14 8.07.23 2.73zm.24 2.61l8.07 8.14.24 2.67-8.14-8.08zm-272-103.89L58 29.16V15.44h15.2l1.8 1.88v4h-2.8l.9.89v3.9h-9.32v4.85zm1.73-11.87h11.18V15.9H58.4v12.81h3.16v-4.86h9.28v-3.1h-9.28zm-1 2.7h9.28v1.1h-9.28v4.82h-1.13V16.92h12.29V18H60.56z"/><path d="M82.36 15.44l1.81 1.88 9.49 13.61H88.8L87 29.16l-.75-1.06H79c-1.3 1.82-2 2.77-2 2.83h-4.87l-1.93-1.77L80 15.44zm-.23.46h-1.91L71.1 28.71H75l2-2.83h8.24l2 2.83h3.87zm7 11.78h-1.39l-2-2.82h-9.28c-.23.31-.56.78-1 1.41s-.77 1.1-1 1.41H73l3.53-4.91c1.81-2.52 3.2-4.46 4.17-5.85h.87zm-11.89-3.95H85l-3.85-5.45zm3.9-3.73l1.92 2.74h-3.87zM96 15.44l1.81 1.88 4 5.94 5.19-7.82h3.19l1.81 1.88v13.61h-3.94l-1.87-1.77v-.68l-1.65 2.45h-2.41l-1.84-1.77-1.66-2.48v4.25H94.7l-1.88-1.77V15.44zm.42 13.27v-6.15l4.1 6.15h2l4.12-6.17v6.17h3.14V15.9h-2.52l-5.77 8.54-5.73-8.54h-2.49v12.81zm-2.14-1V16.92h1l6.29 9.35q2.91-4.44 6.31-9.35h1v10.76h-1.13v-8.46L102 27.68h-.9l-5.7-8.44v8.44zm20.95 3.22l-1.88-1.77V15.44h4l1.77 1.88v13.61zm1.68-2.22V15.9h-3.1v12.81zm-2.1-1V16.92h1.09v10.76zm5.85 1.45V15.44h4l1.77 1.88v7.78H135l1.74 1.9v4h-14.2zm.45-.45h13.41v-3.16h-10.29V15.9h-3.12zm1-11.79h1.09v9.65h10.31v1.11h-11.4zm17.59 14.01l-1.88-1.77V15.44h4l1.77 1.88v13.61zm1.68-2.22V15.9h-3.1v12.81zm-2.1-1V16.92h1.09v10.76z"/><path d="M155.29 15.44l1.8 1.88 9.49 13.61h-4.85l-1.85-1.77-.75-1.06h-7.2c-1.3 1.82-2 2.77-2 2.83h-4.87l-1.93-1.77 9.78-13.72zm-.24.46h-1.91L144 28.71h3.86l2-2.83h8.25l2 2.83H164zm7 11.78h-1.38l-2-2.82h-9.32c-.23.31-.56.78-1 1.41s-.77 1.1-1 1.41h-1.45l3.53-4.91c1.81-2.52 3.2-4.46 4.17-5.85h.87zm-11.88-3.95H158l-3.85-5.45zm3.9-3.73l1.93 2.74h-3.87zm21.16 9.16V15.44h10.38a7.53 7.53 0 013 .57 6.68 6.68 0 012.43 1.9 4.53 4.53 0 01.69 1.12 6.53 6.53 0 01.44 1.38 3.57 3.57 0 010 1.42 2.32 2.32 0 01-.59 1.19 1.94 1.94 0 01.8.6 3.33 3.33 0 01.55.95 7.38 7.38 0 01.3 1 4.52 4.52 0 01.1.92 5 5 0 01-.37 2 3.24 3.24 0 01-1 1.38 4.58 4.58 0 01-1.56.78 7.18 7.18 0 01-2 .25h-11.29zm.46-.45h10.88a6.94 6.94 0 001.83-.23 4.22 4.22 0 001.44-.71 3.21 3.21 0 001-1.26 4.65 4.65 0 00.33-1.82 2.74 2.74 0 00-.5-1.63 3.45 3.45 0 00-1.5-1.12 2.65 2.65 0 00.71-.94 2.48 2.48 0 00.28-1.08 3.68 3.68 0 00-1.21-3 5 5 0 00-3.3-1h-9.92zm1-11.79h8.9a4.1 4.1 0 012.54.73 2.75 2.75 0 011 2.27 2.06 2.06 0 01-.62 1.47 1.85 1.85 0 01-1.15.7 3.35 3.35 0 011.91.83 2.27 2.27 0 01.87 1.77 3.31 3.31 0 01-.27 1.39 2.27 2.27 0 01-.77.93 3.47 3.47 0 01-1.12.51 5.36 5.36 0 01-1.39.16h-9.86zm1.09 4.84h7.79a3.38 3.38 0 00.86-.1 2.78 2.78 0 00.75-.32 1.54 1.54 0 00.55-.58 1.74 1.74 0 00.2-.84 1.6 1.6 0 00-.67-1.42 2.84 2.84 0 00-1.67-.46h-7.79zm0 4.81h8.77a3.53 3.53 0 001.16-.18 1.9 1.9 0 00.89-.62 1.74 1.74 0 00-.28-2.43 2.5 2.5 0 00-1.54-.48h-9zm1-7.51h6.79a2.08 2.08 0 01.92.2.68.68 0 01.41.66.62.62 0 01-.24.5 1.4 1.4 0 01-.53.27 2.78 2.78 0 01-.58.06h-6.77zm0 4.79h8a1.48 1.48 0 01.8.22.68.68 0 01.36.62.69.69 0 01-.42.67 2.33 2.33 0 01-1 .19h-7.75zm17.74 7.08l-1.88-1.77V15.44H205a7.87 7.87 0 011.38.11 5.75 5.75 0 012.71 1.3 14.09 14.09 0 011.53 1.55 3.71 3.71 0 01.83 1.42 5.94 5.94 0 01.3 1.92 4.26 4.26 0 01-.53 2.13 4 4 0 01-1.5 1.51l2.21 2.62c1.16 1.34 2 2.33 2.59 3h-5.26l-1.84-1.77-2.67-3.08h-4.31V31zm13-11a3.67 3.67 0 00-1.21-3 5 5 0 00-3.31-1h-9.89v12.78h3.12v-4.86h5.22l4.19 4.86h4.2l-4.6-5.28a3.55 3.55 0 002.26-3.51zm-2.88 2.66a6.09 6.09 0 01-1.15.36c.52.62 1.27 1.49 2.25 2.6l1.87 2.14h-1.48l-4.21-4.82h-6.7v4.82h-1.13V16.92H205a5.54 5.54 0 011.4.17 3.6 3.6 0 011.1.52 2.39 2.39 0 01.74.94 3.38 3.38 0 01.26 1.37 2.67 2.67 0 01-1.85 2.66zm-9.42-.82H205a3.57 3.57 0 00.87-.1 2.89 2.89 0 00.77-.31 1.64 1.64 0 00.56-.58 1.7 1.7 0 00.21-.85 1.87 1.87 0 00-.2-.88 1.47 1.47 0 00-.54-.59 3 3 0 00-.76-.31A3.57 3.57 0 00205 18h-7.8zm1-2.7H205a2.93 2.93 0 01.61.06 1.11 1.11 0 01.52.26.71.71 0 01.23.54.6.6 0 01-.14.41.8.8 0 01-.36.26 2.5 2.5 0 01-.45.12 2.09 2.09 0 01-.43 0h-6.75zM216 30.93l-1.88-1.77V15.44h15.25l1.77 1.88v4h-2.8l.9.89v2.89l1.93 1.9v4zm1.74-11.87h11.17V15.9h-14.33v12.81h14.36v-3.16h-11.19v-1.7H227v-3.1h-9.28zm-1 2.7H226v1.1h-9.28v3.71h11.18v1.11h-12.29V16.92h12.29V18h-11.16z"/><path d="M230.48 25.37l3.31-2-.87-.89a3.2 3.2 0 01-1.37-2.65 3.1 3.1 0 01.26-1.29 3.44 3.44 0 01.71-1 5 5 0 011-.79 6.73 6.73 0 011.25-.58 12.25 12.25 0 011.35-.38 11.94 11.94 0 011.32-.21c.41 0 .8-.07 1.16-.07h1.25c.34 0 .75 0 1.22.07s.89.1 1.24.17a10.1 10.1 0 011.18.32 5.73 5.73 0 011.17.51 8.65 8.65 0 011.07.74 6.89 6.89 0 011 1c.35.35.64.66.89.95a7.61 7.61 0 01.51.61c.1.14.19.27.28.42l.19.28-2.33 1.57.26.17c.16.12.39.31.68.57s.67.64 1.14 1.14a3.24 3.24 0 01.7 1.16 4.46 4.46 0 01.25 1.5 2.79 2.79 0 01-.3 1.27 3.41 3.41 0 01-.79 1 6.23 6.23 0 01-1.15.77 8.91 8.91 0 01-1.36.57 13.84 13.84 0 01-1.44.38 13.13 13.13 0 01-1.37.21c-.42 0-.8.06-1.16.06h-2.91a9.05 9.05 0 01-4.21-1.12 6 6 0 01-1.16-.91 19.47 19.47 0 01-1.91-1.94 12.68 12.68 0 01-1.06-1.61zm.66.15a6.86 6.86 0 00.72.94 7.57 7.57 0 00.79.74 4.39 4.39 0 00.93.55c.35.16.66.3.95.4a5.3 5.3 0 001.05.27l1 .17c.29 0 .66.06 1.12.08h2.3a10.43 10.43 0 001.31-.09 14.16 14.16 0 001.54-.26 8.48 8.48 0 002.95-1.2 3.24 3.24 0 001-1 2.44 2.44 0 00.37-1.32 3 3 0 00-.27-1.27 3.21 3.21 0 00-.66-.95 3.54 3.54 0 00-1.05-.69 10.91 10.91 0 00-1.21-.47 10.62 10.62 0 00-1.38-.3l-1.37-.12-1.23-.17h-.51c-2.53-.23-3.79-.57-3.79-1s1.17-.75 3.52-.75a10.7 10.7 0 012.53.28 3.93 3.93 0 011.88 1.09l2.67-1.79a6.4 6.4 0 00-1-1.07 5.51 5.51 0 00-1.18-.76 10.17 10.17 0 00-1.25-.47 7.19 7.19 0 00-1.37-.28c-.51-.06-1-.1-1.38-.11s-.89 0-1.45 0a11.74 11.74 0 00-1.29.08c-.46.06-.94.15-1.45.26a7.73 7.73 0 00-1.45.49 7.18 7.18 0 00-1.24.72 3.05 3.05 0 00-.88 1 2.76 2.76 0 00-.33 1.33q0 2.68 4.62 3.64c.69.15 1.82.3 3.38.48h.45l.52.03.63.08a5.09 5.09 0 01.67.12l.57.15a1.58 1.58 0 01.43.2.33.33 0 01.15.25c0 .5-1.53.75-4.61.75a11.84 11.84 0 01-1.39-.07 7.74 7.74 0 01-1.28-.24 4.49 4.49 0 01-1.24-.56 4.13 4.13 0 01-1-.92zm2.61-.33a5.42 5.42 0 00.77.59 3.75 3.75 0 00.91.4l.9.24a6 6 0 001 .12h3.09l1-.09a7.22 7.22 0 001.1-.18 8.84 8.84 0 001-.31 2 2 0 00.74-.49 1 1 0 00.28-.68 1.1 1.1 0 00-.43-.82 3.3 3.3 0 00-1.05-.57 9.92 9.92 0 00-1.38-.35 11.44 11.44 0 00-1.35-.19 9.82 9.82 0 00-1-.05c-.34 0-.7 0-1.09-.09s-.82-.12-1.31-.22a8.71 8.71 0 01-1.4-.38 7.67 7.67 0 01-1.23-.56 2.79 2.79 0 01-.91-.78 1.72 1.72 0 01-.33-1 1.86 1.86 0 01.25-1 2.51 2.51 0 01.66-.72 4.63 4.63 0 011-.51 7.9 7.9 0 011.11-.35c.37-.08.77-.15 1.19-.2a10 10 0 011.09-.1h.91a8.9 8.9 0 015.53 1.46l-1 .7a5.38 5.38 0 00-2.11-.86 16.58 16.58 0 00-2.71-.2h-.88a8.93 8.93 0 00-1.1.13 6.85 6.85 0 00-1.13.29 2.44 2.44 0 00-.87.58 1.11 1.11 0 00-.35.8 1.15 1.15 0 00.4.86 2.74 2.74 0 001.05.55 11.87 11.87 0 001.53.33c.57.09 1.17.17 1.8.23l1.9.22c.63.08 1.24.19 1.81.32a8.72 8.72 0 011.52.51 2.66 2.66 0 011.06.82 1.91 1.91 0 01.39 1.19 1.67 1.67 0 01-.49 1.18 3.4 3.4 0 01-1.19.83 10.38 10.38 0 01-1.6.51 14.71 14.71 0 01-1.59.27 12.28 12.28 0 01-1.28.07h-1.36q-.89 0-1.59-.06a14.38 14.38 0 01-1.56-.23 5.59 5.59 0 01-1.55-.55 4.28 4.28 0 01-1.23-.94z"/><path d="M249 25.37l3.3-2-.87-.89a3.2 3.2 0 01-1.37-2.65 3.1 3.1 0 01.26-1.29 3.44 3.44 0 01.71-1 5.27 5.27 0 011-.79 6.73 6.73 0 011.25-.58 12.25 12.25 0 011.35-.38 11.94 11.94 0 011.32-.21c.41 0 .8-.07 1.16-.07h1.25c.34 0 .75 0 1.22.07s.89.1 1.24.17a10.1 10.1 0 011.18.32 5.73 5.73 0 011.17.51 8 8 0 011.07.74 6.89 6.89 0 011 1c.35.35.64.66.89.95a7.61 7.61 0 01.51.61c.1.14.19.27.28.42s.16.24.2.28l-2.34 1.57.26.17c.16.12.39.31.68.57s.67.64 1.14 1.14a3.24 3.24 0 01.7 1.16 4.46 4.46 0 01.25 1.5 2.79 2.79 0 01-.3 1.27 3.41 3.41 0 01-.79 1 6.23 6.23 0 01-1.15.77 8.91 8.91 0 01-1.36.57 13.84 13.84 0 01-1.44.38 13.13 13.13 0 01-1.37.21c-.42 0-.8.06-1.16.06h-2.91a9.05 9.05 0 01-4.21-1.12 6 6 0 01-1.16-.91 20.66 20.66 0 01-1.91-1.94 11.61 11.61 0 01-1.05-1.61zm.65.15a6.86 6.86 0 00.72.94 7.57 7.57 0 00.79.74 4.66 4.66 0 00.93.55c.35.16.66.3 1 .4a5.49 5.49 0 001 .27l1.05.17c.29 0 .66.06 1.12.08h2.2a10.43 10.43 0 001.31-.09 14.16 14.16 0 001.54-.26 8.48 8.48 0 002.95-1.2 3.24 3.24 0 001-1 2.44 2.44 0 00.37-1.32 3 3 0 00-.27-1.27 3.21 3.21 0 00-.66-.95 3.54 3.54 0 00-1-.69 10.91 10.91 0 00-1.21-.47 10.62 10.62 0 00-1.38-.3l-1.36-.12-1.26-.12h-.51c-2.53-.23-3.79-.57-3.79-1s1.17-.75 3.52-.75a10.7 10.7 0 012.53.28 4 4 0 011.89 1.09l2.66-1.79a6.4 6.4 0 00-1-1.07 5.51 5.51 0 00-1.18-.76 9.6 9.6 0 00-1.25-.47A7.19 7.19 0 00260 16c-.51-.06-1-.1-1.38-.11s-.89 0-1.45 0a11.74 11.74 0 00-1.29.08c-.46.06-.94.15-1.45.26a7.73 7.73 0 00-1.45.49 6.73 6.73 0 00-1.23.72 3 3 0 00-.89 1 2.76 2.76 0 00-.33 1.33q0 2.68 4.62 3.64c.69.15 1.82.3 3.38.48h.45l.55.07.63.08a5.09 5.09 0 01.67.12l.57.15a1.58 1.58 0 01.43.2.33.33 0 01.15.25c0 .5-1.53.75-4.61.75a11.55 11.55 0 01-1.37-.01 7.66 7.66 0 01-1.29-.24 4.49 4.49 0 01-1.24-.56 4.13 4.13 0 01-1-.92zm2.62-.33a4.83 4.83 0 00.76.59 3.75 3.75 0 00.91.4l.9.24a6 6 0 001 .12h3.04l1-.09a7.22 7.22 0 001.1-.18 8.84 8.84 0 001-.31 2 2 0 00.74-.49 1 1 0 00.28-.68 1.07 1.07 0 00-.43-.82 3.25 3.25 0 00-1.06-.57 9.42 9.42 0 00-1.37-.35 11.3 11.3 0 00-1.34-.19 10.13 10.13 0 00-1-.05 10.71 10.71 0 01-1.08-.09c-.39-.05-.83-.12-1.32-.22a8.71 8.71 0 01-1.4-.38 7.67 7.67 0 01-1.23-.56 2.79 2.79 0 01-.91-.78 1.72 1.72 0 01-.33-1 1.86 1.86 0 01.25-1 2.51 2.51 0 01.66-.72 4.63 4.63 0 011-.51 7.9 7.9 0 011.11-.35c.37-.08.77-.15 1.19-.2a10 10 0 011.09-.1h.91a8.9 8.9 0 015.53 1.46l-1 .7a5.32 5.32 0 00-2.11-.86 16.58 16.58 0 00-2.71-.2h-.88a9.16 9.16 0 00-1.1.13 6.85 6.85 0 00-1.13.29 2.44 2.44 0 00-.83.52 1.1 1.1 0 00-.34.8 1.14 1.14 0 00.39.86 2.74 2.74 0 001.05.55 11.87 11.87 0 001.53.33c.57.09 1.17.17 1.8.23l1.9.22c.63.08 1.24.19 1.81.32a8.72 8.72 0 011.52.51 2.59 2.59 0 011.06.82 1.91 1.91 0 01.39 1.19 1.67 1.67 0 01-.49 1.18 3.4 3.4 0 01-1.19.83 10.38 10.38 0 01-1.6.51 14.71 14.71 0 01-1.59.27 12.28 12.28 0 01-1.28.07h-1.36q-.89 0-1.59-.06a14.38 14.38 0 01-1.56-.23 5.59 5.59 0 01-1.55-.55 4.28 4.28 0 01-1.23-.94z"/><path d="M269.47 30.93l-1.88-1.77V15.44h4l1.77 1.88v13.61zm1.67-2.22V15.9H268v12.81zm-2.09-1V16.92h1.09v10.76z"/><path d="M285.05 15.44l1.81 1.88 9.49 13.61h-4.86l-1.84-1.77-.75-1.06h-7.21l-2 2.83h-4.87l-1.94-1.77 9.78-13.72zm-.23.46h-1.91l-9.13 12.81h3.87l2-2.83h8.25l2 2.83h3.86zm7 11.78h-1.37l-2-2.82h-9.31c-.23.31-.56.78-1 1.41s-.77 1.1-1 1.41h-1.44l3.53-4.91c1.81-2.52 3.2-4.46 4.16-5.85h.88zm-11.87-3.95h7.78l-3.84-5.45zm3.9-3.73l1.92 2.74h-3.87z"/></g></svg>